<?xml version="1.0" encoding="utf-8"?>
<!-- Generator: Adobe Illustrator 23.0.1, SVG Export Plug-In . SVG Version: 6.00 Build 0)  -->
<svg version="1.1" id="Layer_1" xmlns="http://www.w3.org/2000/svg" xmlns:xlink="http://www.w3.org/1999/xlink" x="0px" y="0px"
	 viewBox="0 0 1000 1000" style="enable-background:new 0 0 1000 1000;" xml:space="preserve">
<style type="text/css">
	.st0{fill:#0F060B;}
	.st1{fill:#060807;}
	.st2{fill:#07080E;}
	.st3{fill:#0B0607;}
	.st4{fill:#060908;}
	.st5{fill:#0A0707;}
	.st6{fill:#06080D;}
	.st7{fill:#050505;}
	.st8{fill:#090808;}
	.st9{fill:#0C0608;}
	.st10{fill:#0B080F;}
	.st11{fill:#0A0E16;}
	.st12{fill:#090F0E;}
	.st13{fill:#100C0B;}
	.st14{fill:#060606;}
	.st15{fill:#F206A0;}
	.st16{fill:#481C6F;}
	.st17{fill:#0CA88F;}
	.st18{fill:#0AA4F3;}
	.st19{fill:#FB7CAB;}
	.st20{fill:#F8CE32;}
	.st21{fill:#0EA88F;}
	.st22{fill:#08A4F5;}
	.st23{fill:#F803A2;}
	.st24{fill:#FBCF2F;}
	.st25{fill:#FA7CAB;}
	.st26{fill:#0AA990;}
	.st27{fill:#05A5F8;}
</style>
<g>
	<path class="st0" d="M328.1,625.9c40.5,43.2,80.8,86.3,121.2,129.6c-1.3,1.3-2.3,2.4-3.3,3.6c0.9,1.1,1.9,2.2,3.1,3.8
		c-4,3.7-7.8,7.3-12,11.3c-40.5-43.3-80.7-86.3-121.2-129.6c1.2-1.3,2.2-2.3,3.3-3.5c-0.9-1.1-1.8-2.3-3-3.9c2-1.9,3.8-3.7,5.7-5.4
		C323.6,630,325.5,628.2,328.1,625.9z M383.4,705.7c0.3,0.3,0.6,0.6,0.9,0.8c5,5.4,10,10.8,15.1,16.1c9,9.7,18,19.3,27.1,29
		c3.5,3.8,7.1,7.5,10.9,11.5c2.9-2.7,5.5-5.2,8.2-7.7c-39.3-42-78.4-83.8-117.9-126c-2.5,2.9-4.9,5.6-7.5,8.5
		c20.6,22.1,41.5,44.4,62.3,66.6c0.3,0.3,0.5,0.6,0.8,1L383.4,705.7z"/>
	<path class="st1" d="M950.8,719.9c-1.2,5.3-2.4,10.4-3.7,16c-57.7-13.6-115.1-27.1-172.7-40.7c0.3-1.9,0.6-3.3,0.8-4.9
		c-1.3-0.4-2.6-0.7-4.3-1.2c0.5-5.6,2-10.8,3.6-16.2c57.8,13.6,115.2,27.1,172.7,40.7c-0.4,2-0.7,3.3-1.1,4.7
		C947.5,718.8,949,719.3,950.8,719.9z M773.7,687.1c56,13.2,111.8,26.3,167.7,39.5c0.9-3.8,1.7-7.3,2.6-11
		c-55.9-13.2-111.7-26.3-167.7-39.5C775.4,679.9,774.6,683.3,773.7,687.1z"/>
	<path class="st0" d="M400.9,313.4c-1.1-1.4-2-2.7-2.9-3.9c-4.4,2-4.4,2-7.1-2.4c-1.8-3-3.7-6.1-5.8-9.5
		c50.6-30.8,100.9-61.4,151.5-92.2c1.1,1.5,1.9,2.7,2.9,4.1c1.2-0.7,2.5-1.4,4.2-2.4c2.8,4.6,5.6,9.1,8.7,14.1
		C501.9,251.9,451.6,282.5,400.9,313.4z M394.6,308.2c49.1-29.9,98-59.6,147.2-89.6c-2-3.2-3.8-6.4-5.9-9.7
		c-49.1,29.9-98,59.6-147.1,89.6C390.8,301.7,392.6,304.7,394.6,308.2z"/>
	<path class="st2" d="M213.1,901.8c-0.9,1.6-1.6,2.9-2.4,4.3c1.1,0.9,2.2,1.8,3.8,3c-3.1,4.5-6.1,8.8-9.4,13.6
		c-48.8-33.6-97.3-66.9-145.9-100.4c0.4-0.9,0.6-1.6,1-2.3c0.4-0.7,0.9-1.4,1.3-2c-1.3-1.1-2.5-2-3.8-3.2c3.1-4.5,6.1-8.8,9.3-13.5
		C115.8,834.9,164.3,868.2,213.1,901.8z M209.7,902.7C162.2,870,115,837.5,67.7,805c-2.2,3.3-4.3,6.2-6.4,9.4
		c47.4,32.7,94.7,65.2,141.9,97.7C205.4,908.9,207.4,905.9,209.7,902.7z"/>
	<path class="st3" d="M592.1,546.3c-27.8-14.6-55-28.9-82.4-43.3c0.9-1.9,1.6-3.3,2.3-4.9c-1.4-0.8-2.8-1.6-4.7-2.8
		c7.1-13.5,14.2-26.9,21.3-40.6c27.6,14.5,54.8,28.8,82.3,43.3c-0.8,1.9-1.5,3.4-2.2,5c1.5,0.9,2.9,1.8,4.6,2.9
		C606.3,519.3,599.3,532.6,592.1,546.3z M510.8,494.3c26,13.7,51.8,27.3,77.8,40.9c6.4-12.1,12.6-24,18.9-36
		c-26-13.7-51.9-27.3-77.8-40.9C523.4,470.4,517.1,482.3,510.8,494.3z"/>
	<path class="st4" d="M548.9,911.3c0.6-1.8,1.1-3.1,1.6-4.5c-0.7-0.4-1.5-0.9-2.6-1.6c1.9-4.9,3.8-9.7,5.9-15.2
		c34.5,13.5,68.7,26.9,103.1,40.4c-0.7,1.9-1.1,3.1-1.6,4.5c0.6,0.4,1.3,0.7,2.6,1.5c-1.9,4.9-3.9,9.9-6,15.3
		C617.3,938.1,583.2,924.7,548.9,911.3z M653.5,931.9c-32.9-12.9-65.5-25.7-98.2-38.5c-1.4,3.6-2.7,7-4.1,10.6
		c32.8,12.9,65.4,25.6,98.1,38.5C650.8,938.9,652,935.6,653.5,931.9z"/>
	<path class="st5" d="M863.8,366.6c-0.6-1.6-1.2-3-1.7-4.5c-0.7,0.1-1.5,0.2-2.3,0.3c-0.3-0.3-0.7-0.4-0.8-0.7
		c-1.4-4.7-2.7-9.5-4.3-15C890,336.6,925.3,327,961,316.9c0.6,1.5,1.3,3,2,4.6c0.6-0.1,1.3-0.2,2.7-0.5c1.5,5,2.9,10.1,4.6,15.8
		C934.8,346.7,899.6,356.5,863.8,366.6z M858,348.4c1.1,3.8,2.1,7.3,3.1,10.9c34-9.5,67.7-18.9,101.6-28.4
		c-1.1-3.8-2.1-7.3-3.1-10.9C925.6,329.6,891.9,339,858,348.4z"/>
	<path class="st4" d="M144.9,137.1c-1.2-1.5-2.1-2.6-3-3.6c-1,0.5-1.8,0.9-2.9,1.5c-3.5-4.1-7-8.1-10.6-12.2
		c28-24.4,55.6-48.4,83.7-72.8c1,1.5,1.9,2.7,2.8,3.9c1.1-0.7,1.9-1.1,2.9-1.7c3.5,4,6.9,7.9,10.7,12.3
		C200.6,88.5,173,112.6,144.9,137.1z M139.6,131.5c26.6-23.2,53-46.1,79.5-69.2c-2.6-2.9-4.9-5.7-7.4-8.5
		c-26.6,23.1-52.9,46.1-79.5,69.2C134.7,125.9,137.1,128.6,139.6,131.5z"/>
	<path class="st6" d="M756.2,66.2c1.8-0.3,3.2-0.6,4.7-0.9c0.1-0.7,0.1-1.5,0.2-2.9c5.3-0.6,10.6-1.2,16.2-1.8
		c4,36.6,7.9,72.8,12,109.6c-1.5,0.4-3,0.8-4.8,1.2c0,0.7-0.1,1.5-0.2,2.8c-5.2,0.6-10.3,1.2-16.1,1.9
		C764.2,139.5,760.3,103,756.2,66.2z M786.5,168.3c-3.8-35-7.6-69.8-11.5-104.9c-3.9,0.5-7.4,0.9-11.2,1.4
		c3.8,35,7.6,69.8,11.4,104.8C779.1,169.2,782.7,168.8,786.5,168.3z"/>
	<path class="st7" d="M248.3,465.6c1.8-5.5,3.5-10.8,5.2-16.2c1.1-3.3,2.7-4.2,6-3.1c6.8,2.2,13.5,4.4,20.3,6.6c3,1,4,2.7,3.2,5.2
		c-0.7,2.2-2.5,3-5.5,2c-5.8-1.8-11.6-3.7-17.6-5.6c-1.7,5.1-3.3,10.2-5,15.3c-1.5,4.6-2.7,5.2-7.4,3.7c-5.9-1.9-11.8-3.8-17.9-5.8
		c-1.8,5.4-3.5,10.7-5.2,16c-0.4,1.3-0.9,2.7-1.3,4c-1.2,3.6-2.7,4.4-6.4,3.2c-6.2-2-12.4-4-18.9-6.2c-1.5,4.6-3,9.1-4.5,13.7
		c-0.3,1-0.6,2.1-1,3c-0.8,2-2.7,2.8-4.6,2.2c-2.1-0.7-3.2-2.5-2.5-4.6c2.1-6.7,4.2-13.4,6.4-20c0.9-2.6,2.5-3.4,5.3-2.6
		c6.5,2,13,4.2,19.8,6.3c2.1-6.5,4.2-12.9,6.2-19.3c1.4-4.4,2.7-5.1,7.1-3.6C236.1,461.7,242,463.6,248.3,465.6z"/>
	<path class="st7" d="M353.7,223.9c3.2-5,6.4-9.7,9.5-14.5c1.7-2.6,3.5-3,6.1-1.4c6.2,4,12.4,8,18.5,12.1c2.5,1.6,2.7,3.2,1.2,6.2
		c-2,1.7-3.9,1.3-5.9,0c-4.9-3.3-9.9-6.5-15.2-10c-2.8,4.2-5.5,8.4-8.3,12.6c-0.4,0.6-0.7,1.3-1.2,1.9c-1.9,2.6-3.8,3-6.6,1.2
		c-5-3.3-9.9-6.6-14.9-9.8c-0.5-0.4-1.1-0.6-1.7-1c-3.9,5.9-7.7,11.8-11.7,17.7c-0.8,1.1-2,2-3.4,3.3c-6.8-4.4-13.3-8.6-20-12.9
		c-3,4.6-5.9,9.3-9.1,13.8c-0.8,1.2-2.6,2.3-4,2.3c-2.7,0.1-4.3-3.3-2.8-5.7c3.8-6,7.7-12,11.7-17.9c1.5-2.2,3.5-2.2,6.1-0.5
		c5.5,3.6,11.1,7.2,16.8,11c3.1-4.7,6.2-9.4,9.3-14.1c0.9-1.3,1.7-2.7,2.6-4c1.7-2.5,3.6-2.9,6.1-1.2
		C342.3,216.6,347.9,220.2,353.7,223.9z"/>
	<path class="st7" d="M780.2,561.1c-7.5,0.7-14.6,1.3-21.7,1.9c-3,0.2-4.3-1.1-4.6-4.2c-0.6-6.7-1.2-13.4-1.9-20.2
		c-4.6,0.4-9,0.8-13.5,1.2c-1.4,0.1-2.8,0.3-4.2,0.3c-2.1,0-3.6-1.5-3.7-3.6c-0.1-1.9,1.4-3.7,3.4-3.9c5.5-0.5,10.9-1,16.4-1.5
		c1.2-0.1,2.3-0.2,3.5-0.4c3.8-0.5,5.4,1,5.7,4.7c0.5,6.5,1.1,12.9,1.7,19.7c2.6-0.2,5.1-0.3,7.7-0.6c4.6-0.4,9.1-0.9,13.6-1.3
		c3-0.3,4.7,1,5,4.1c0.6,6.7,1.3,13.4,1.9,20.1c6-0.5,11.8-1,17.5-1.5c2.6-0.2,4.3,1,4.6,3.4c0.7,7.4,1.4,14.9,2,22.3
		c0.2,2.9-1.1,4.7-3.4,4.8c-2.4,0.2-3.9-1.4-4.2-4.4c-0.6-5.9-1.1-11.9-1.7-18.2c-3.3,0.2-6.5,0.5-9.7,0.7c-2.5,0.2-5,0.5-7.4,0.8
		c-3.1,0.4-4.8-1.1-5.1-4.3C781.4,574.4,780.8,567.8,780.2,561.1z"/>
	<path class="st7" d="M659.5,199c-0.3,5.9-0.7,11.7-1,17.5c-0.2,2.8-1.4,4.1-4.2,4c-5.9-0.2-11.8-0.5-17.7-0.8c-0.9,0-1.8,0-2.9,0
		c-0.2,5.1-0.5,10.1-0.7,15.2c-0.1,2.2-0.2,4.5-0.4,6.7c-0.3,2.8-1.7,3.9-4.5,3.7c-6.8-0.3-13.6-0.6-20.5-1
		c-0.3,5.8-0.5,11.3-0.8,16.9c-0.1,2.1-1,3.7-3.3,4c-2.1,0.3-3.6-0.8-4.2-2.7c-0.3-1-0.2-2.1-0.1-3.2c0.3-6.1,0.6-12.1,0.9-18.2
		c0.2-3.3,1.5-4.7,4.8-4.5c6.7,0.3,13.4,0.7,20.4,1c0.3-5.1,0.5-10.2,0.8-15.2c0.1-2,0.1-4,0.2-6c0.2-3.6,1.6-4.8,5.3-4.6
		c6.4,0.4,12.9,0.6,19.6,1c0.3-5.7,0.6-11.2,0.8-16.8c0.2-3.8,1.6-5.1,5.2-4.9c6.8,0.4,13.6,0.7,20.4,1c1.1,0.1,2.2,0.1,3.1,0.6
		c1.7,0.9,2.4,2.5,1.8,4.4c-0.7,2-2.2,2.8-4.2,2.7c-5.9-0.3-11.8-0.6-17.7-0.9C660.3,199,660,199,659.5,199z"/>
	<path class="st0" d="M155.7,669.7c22-13.2,43.2-25.9,64.4-38.7c1,1.4,1.8,2.4,2.5,3.5c1.2-0.5,2.5-1.1,3.9-1.8
		c6.4,10.7,12.9,21,19,31.9c-21.6,13-42.7,25.7-64.2,38.5c-1-1.2-1.9-2.3-2.8-3.4c-1,0.5-2.1,1.1-3.8,2
		C168.5,691,162.2,680.4,155.7,669.7z M182.6,656.5c-7.6,4.7-15.3,9.4-23.2,14.2c5.6,9.3,11,18.3,16.5,27.4
		c20.1-12.1,39.9-24,60-36.1c-5.6-9.3-11-18.4-16.5-27.5c-11.1,6.7-22.1,13.3-33,19.9C185.1,655.1,183.8,655.8,182.6,656.5z"/>
	<path class="st8" d="M75.7,283c22.1,12.4,43.7,24.7,65.6,37c-0.7,1.5-1.3,2.7-1.9,3.8c1.1,0.8,2.1,1.6,3.5,2.6
		c-6,10.7-12,21.3-18.2,32.3c-22-12.4-43.7-24.6-65.5-36.9c0.7-1.5,1.3-2.7,1.8-4c-1.1-0.7-2.1-1.3-3.6-2.3
		C63.5,304.7,69.5,294,75.7,283z M122,349c5.2-9.2,10.4-18.5,15.8-28c-20.4-11.5-40.7-22.9-61-34.4c-5.3,9.3-10.5,18.6-15.8,28
		C81.3,326.1,101.5,337.5,122,349z"/>
	<path class="st9" d="M744.9,805.4c0.8,1.7,1.3,2.7,1.8,3.8c1.2-0.4,2.2-0.8,4-1.4c4.7,11,9.4,22,14.2,33.2c-4.6,2-8.7,3.8-12.9,5.6
		c-17.2,7.4-34.5,14.6-51.6,22.1c-3.3,1.4-3.5-1-4.6-2.8c-1,0.4-1.9,0.7-3.3,1.3c-0.5-0.7-1.3-1.4-1.6-2.3
		c-4.1-9.4-8.1-18.8-12-28.2c-0.3-0.8-0.5-1.7-0.8-2.8C700.6,824.3,722.7,814.9,744.9,805.4z M743.6,808.8
		c-20.9,8.9-41.5,17.7-62.3,26.6c4.1,9.6,8.1,19,12.2,28.5c20.9-8.9,41.5-17.7,62.3-26.6C751.7,827.7,747.7,818.4,743.6,808.8z"/>
	<path class="st5" d="M383.1,455.1c-0.6-1.9-1.1-3.7-1.7-5.6c-0.9,0.1-1.8,0.2-3.5,0.5c-3.2-13.3-5.4-26.8-8.4-40.9
		c13.5-2.7,26.8-5.4,40.7-8.3c0.6,1.9,1.2,3.7,1.8,5.7c0.8-0.2,1.7-0.3,2.9-0.6c0.4,0.6,1,1.2,1.2,1.9c2.5,12.4,5,24.9,7.5,37.3
		c0.1,0.3,0,0.7,0,1.6C410.4,449.9,397,452,383.1,455.1z M413.5,429.5c-0.3-1.5-0.6-3.1-0.9-4.6c-1.3-7-2.6-13.9-4-21.1
		c-12.2,2.4-24,4.8-35.9,7.2c2.4,12,4.8,23.9,7.2,35.9c11.1-2.2,21.9-4.4,32.7-6.6c1-0.2,2-0.4,3.3-0.6c-0.8-3.5-1.5-6.7-2.2-9.8
		C413.6,429.8,413.6,429.6,413.5,429.5z"/>
	<path class="st5" d="M327.6,814.3c2,0.5,3.7,0.9,5.6,1.4c0.4-1,0.8-1.9,1.4-3.4c13.4,3.5,26.6,7.4,40.1,11.4
		c-3.9,13.7-7.7,26.8-11.5,40.2c-2.2-0.6-3.8-1-5.5-1.4c-0.4,1-0.8,2.1-1.4,3.6c-13.3-3.8-26.6-7.6-40.1-11.5
		C320,840.9,323.8,827.8,327.6,814.3z M361.4,860.5c3.4-11.8,6.7-23.4,10-35.2c-11.9-3.4-23.5-6.7-35.2-10.1
		c-3.4,11.9-6.7,23.4-10,35.2C338.1,853.8,349.6,857.2,361.4,860.5z"/>
	<path class="st7" d="M263.6,946.2c-1.7,6.9-3.4,13.6-5.1,20.3c-1,3.8-2.3,4.6-6.1,3.6c-6.3-1.6-12.7-3.2-19.3-4.8
		c-1.2,4.7-2.4,9.3-3.5,13.9c-0.3,1-0.5,2.1-0.9,3.1c-0.8,2-2.6,3.1-4.5,2.6c-2-0.5-3.2-2.4-2.7-4.6c1.3-5.7,2.7-11.4,4.2-17.1
		c1.8-6.9,2.3-7.1,9.2-5.3c5.5,1.4,11,2.8,16.8,4.2c1.3-4.9,2.5-9.8,3.8-14.7c0.5-1.9,1-3.8,1.5-5.8c0.9-3.4,2.3-4.3,5.8-3.5
		c6.3,1.5,12.5,3.1,18.7,4.7c1.4,0.4,2.9,0.7,4.3,1.2c2.3,0.7,3.3,2.6,2.7,4.8c-0.5,1.9-2.6,3-4.8,2.4
		C277.1,949.5,270.4,947.9,263.6,946.2z"/>
	<path class="st7" d="M866.6,192c-1.7,5.2-3.4,10.3-5.1,15.4c-1,3-2.9,4.3-5.3,3.5c-2.2-0.7-3-2.9-2-5.8c2-6.1,4-12.2,6-18.3
		c1.1-3.2,2.7-4,5.9-3c6.3,2,12.7,4.2,19.3,6.3c1.6-4.7,3.1-9.4,4.7-14.1c0.8-2.3,1.5-4.5,2.3-6.8c0.9-2.5,2.7-3.4,5.1-2.6
		c7.7,2.5,15.4,5,23,7.6c2.3,0.8,3.2,2.8,2.6,4.9c-0.6,2.1-2.8,3.1-5.3,2.3c-6.4-2.1-12.7-4.2-19.3-6.4c-1.4,4.3-2.9,8.6-4.4,13
		c-0.8,2.5-1.6,5-2.5,7.5c-1,2.8-2.7,3.8-5.5,2.9C879.7,196.3,873.3,194.2,866.6,192z"/>
	<path class="st7" d="M914.7,949.1c-6.5,3-12.8,6-19.1,9c-3.2,1.5-5,0.9-6.5-2.4c-2.4-5.1-4.8-10.2-7.2-15.2
		c-0.4-0.9-0.9-1.7-1.5-2.7c-5.1,2.4-10,5-15.1,7.1c-1.2,0.5-3.2,0.4-4.3-0.3c-0.9-0.5-1.5-2.4-1.4-3.6c0.1-1.1,1.3-2.4,2.3-2.9
		c6-3,12-5.8,18.1-8.6c3-1.4,4.7-0.7,6.2,2.3c2.8,6,5.7,12,8.7,18.2c6.3-3,12.6-6,18.8-9c3.7-1.7,5.1-1.2,6.9,2.4
		c3.2,6.8,6.5,13.5,9.7,20.3c1.3,2.8,0.8,4.8-1.5,5.9c-2.2,1-4,0.2-5.3-2.5C920.5,961.2,917.7,955.2,914.7,949.1z"/>
	<path class="st7" d="M569.8,128.4c-6.1,3.2-12.2,6.4-18.2,9.6c-3.7,1.9-5.3,1.5-7.2-2.2c-3-5.8-6.1-11.5-9.2-17.5
		c-4.4,2.3-8.8,4.5-13.1,6.8c-0.7,0.4-1.4,0.8-2.2,1.1c-2.1,0.9-4.3,0.2-5.2-1.5c-1-1.8-0.3-4.2,1.8-5.3c2.7-1.5,5.5-2.9,8.3-4.4
		c3.2-1.7,6.4-3.4,9.6-5c2.7-1.4,4.7-0.7,6.2,2c3.1,6,6.3,12,9.5,18.1c6.2-3.3,12.3-6.5,18.4-9.7c3.4-1.8,5.3-1.2,7,2.2
		c3.5,6.7,7,13.4,10.5,20.1c1,1.9,1.1,3.7-0.6,5.2c-1.5,1.4-3.2,1.3-4.8,0.2c-0.7-0.6-1.2-1.5-1.7-2.4
		C575.9,140,572.9,134.3,569.8,128.4z"/>
	<path class="st7" d="M482.8,816c0.6-6.4,1.1-12.6,1.7-18.8c0.1-1.1,0.1-2.2,0.3-3.2c0.4-2.6,1.6-3.6,4.2-3.5
		c7.1,0.5,14.2,1.2,21.4,1.8c0.9,0.1,1.8,0.2,2.7,0.3c2.5,0.2,3.9,1.7,3.8,4c0,2.2-1.7,3.7-4.2,3.6c-5.4-0.4-10.8-0.9-16.1-1.3
		c-1.5-0.1-3-0.2-4.6-0.3c-0.6,7.2-1.2,14.2-1.9,21.2c-0.4,3.6-2,4.6-5.6,4.2c-6.4-0.7-12.9-1.2-19.7-1.8c-0.5,5.5-1,10.9-1.4,16.3
		c-0.2,2.2-1,3.9-3.3,4.4c-2.4,0.5-4.6-1.4-4.5-3.8c0.5-7.1,1.1-14.2,1.8-21.4c0.2-2.5,2.3-3.7,5.1-3.5
		C469.3,814.7,476,815.3,482.8,816z"/>
	<path class="st7" d="M90.8,62.8c6.5,0.4,12.7,0.8,18.9,1.2c1.1,0.1,2.2,0.1,3.2,0.2c2.4,0.4,3.7,1.8,3.5,4.3
		c-0.5,8-1,16.1-1.6,24.1c-0.2,2.5-2.1,4.1-4.3,3.8c-2.3-0.2-3.6-2.1-3.4-4.9c0.4-5.5,0.8-11.1,1.2-16.6c0.1-1.1,0-2.1,0-3.3
		c-7.3-0.5-14.5-1-21.6-1.6c-3-0.3-4-1.3-3.8-4.3c0.3-6.8,0.8-13.6,1.2-20.7c-4.6-0.3-9.2-0.7-13.8-1c-1.1-0.1-2.2,0-3.2-0.1
		c-2.4-0.3-3.8-1.9-3.7-4.1c0.1-2.3,1.6-3.6,4.2-3.5c2.2,0,4.3,0.2,6.5,0.3c4.6,0.3,9.3,0.6,13.9,1c2.8,0.2,4.1,1.6,4,4.3
		C91.7,48.7,91.2,55.6,90.8,62.8z"/>
	<path class="st7" d="M90.9,602.8c3.4,0.2,6.7,0.5,10,0.7c3.7,0.2,7.3,0.4,11,0.6c3.5,0.2,4.8,1.8,4.6,5.3c-0.5,7.5-1,15.1-1.5,22.6
		c-0.1,2-0.7,3.9-2.8,4.2c-1.3,0.2-3.2-0.4-4.1-1.4c-0.8-0.8-0.8-2.6-0.7-3.9c0.3-6.4,0.8-12.8,1.2-19.3c-6-0.4-12-0.9-17.9-1.2
		c-7.5-0.4-8.2-1.1-7.6-8.6c0.4-5.5,0.8-11.1,1.2-16.9c-5.5-0.4-10.9-0.6-16.2-1.1c-1.4-0.2-3.3-1-4.1-2.1c-1.7-2.3,0.1-5.5,3.1-5.4
		c7.3,0.3,14.6,0.7,21.9,1.4c2.3,0.2,3.3,2,3.1,4.3c-0.4,6.5-0.8,13.1-1.2,19.6C90.9,601.9,90.9,602.3,90.9,602.8z"/>
	<path class="st8" d="M440.5,26.8c2.2,1.6,4.5,3.2,6.8,4.9c0.4-1.2,0.7-2.4,1.3-4.2c13.3,9.9,26,19.8,38.7,29.8c0,0.3-0.1,0.7-0.1,1
		c-14.8,6.1-29.7,12.2-45,18.5c-0.1-1.9-0.2-3-0.3-4.2c-2.5,0.9-4.9,1.8-7.3,2.6c-0.2,0.1-0.5-0.1-1.4-0.4
		c2.1-15.8,4.3-31.7,6.4-47.6C439.8,27.1,440.2,26.9,440.5,26.8z M441.7,30.8c-1.9,13.8-3.7,27.2-5.5,41c13-5.3,25.5-10.4,38.3-15.7
		C463.4,47.7,452.7,39.4,441.7,30.8z"/>
	<path class="st0" d="M603.3,362.3c-7.6,0.1-16.1-5.8-19.3-14.6c-3.2-8.8-0.4-19,6.8-25c2-1.7,3.6-3.9,5.7-5.5
		c9.5-7.6,23.6-6.4,30.9,2.6c8.3,10.3,7,23.8-2.9,32.1c-1.9,1.6-3.4,3.6-5.3,5.3C615.2,360.6,610.4,362.3,603.3,362.3z M610.5,314.9
		c-10.7-0.1-19.4,8.5-19.6,19.3c-0.2,10.8,8.3,19.7,19,19.9c10.9,0.2,20-8.4,20.1-19C630.2,323.7,621.8,315.1,610.5,314.9z"/>
	<path class="st4" d="M514.3,176c-0.2,7.6-2.9,13.4-8.3,17.9c-2,1.7-3.6,3.9-5.7,5.5c-9.4,7.5-23.6,6.1-30.8-2.9
		c-8-10.1-6.8-23.8,2.8-31.8c2-1.7,3.6-3.9,5.7-5.5c7.1-5.6,15-6.7,23.3-2.9C509.9,160.2,513.9,167.2,514.3,176z M486.5,162.4
		c-11.3,0-19.6,8.6-19.6,20.1c0,10.3,9.3,19.4,19.9,19.1c10.6-0.3,19.3-8.8,19.2-19.5C506,171,497.5,162.4,486.5,162.4z"/>
	<path class="st6" d="M282.2,546.9c0.2-7.6,2.9-13.3,8.4-17.8c2-1.7,3.6-3.9,5.7-5.5c9.2-7.4,23.5-6.1,30.7,2.8
		c8.2,10.1,6.9,24-2.7,32c-2,1.7-3.6,3.9-5.7,5.5c-7.2,5.6-15.2,6.6-23.5,2.7C286.5,562.6,282.5,555.6,282.2,546.9z M310,521.5
		c-10-0.6-19.5,8.9-19.6,19.3c-0.1,12,10.8,19.9,19.3,20c10.4,0.1,19.9-9.1,20-19.6C329.7,530.7,320.6,520.9,310,521.5z"/>
	<path class="st5" d="M894.7,66.6c0.2-7.7,2.9-13.3,8.2-17.9c2.2-1.9,3.9-4.3,6.2-6c13.6-10.3,32.7-2.5,35.5,14.3
		c1.4,8.7-1.7,15.7-8.3,21.2c-2,1.6-3.5,3.8-5.5,5.3c-7.3,5.6-15.4,6.4-23.6,2.3C898.8,81.9,895,74.9,894.7,66.6z M941.6,64.3
		c0-2.5,0-5.1,0-7.6c-0.7-5.4-3.5-9.4-8-12.3c-5.8-4.4-14.5-4.9-20.6-1c-5.2,2.9-8.7,7.2-9.5,13.3c0,2.5,0,5.1,0,7.6
		c0.1,0.7,0.1,1.5,0.3,2.2c3.3,10.6,15.2,16.5,25.5,12.5C935.9,76.3,940.4,71.7,941.6,64.3z"/>
	<path class="st2" d="M646.1,19.7c7.8,0.1,13.7,2.8,18.3,8.3c1.7,2,3.9,3.6,5.6,5.7c7.5,9.3,6.1,23.6-2.9,30.8
		c-10.1,8.1-23.9,6.8-31.9-2.9c-1.7-2.1-4-3.7-5.7-5.9c-5.6-7.3-6.4-15.3-2.4-23.6C631,24,637.9,20.1,646.1,19.7z M666.6,42.1
		c0.5-10.5-9.2-20-19.7-19.7c-10.7,0.3-19.4,8.7-19.4,19.3c0,11.3,8.4,19.9,19.5,19.9C658,61.6,666.5,53.1,666.6,42.1z"/>
	<path class="st4" d="M593.9,675.3c-9.5,0-17.8-5.8-21-14.7c-3.2-8.9-0.4-18.9,6.9-24.9c2.1-1.7,3.8-4,5.9-5.7
		c9.4-7.6,23.5-6,30.9,3.3c7.9,9.9,6.5,23.6-3.1,31.5c-2,1.7-3.7,3.8-5.7,5.5C603.9,673.8,599.2,675.3,593.9,675.3z M613.6,653.1
		c0.6-10.2-8.8-19.5-19-19.7c-11-0.3-20,9.1-20.2,19.1c-0.3,11.8,10,20,19.1,20.2C603.9,673,614,664,613.6,653.1z"/>
	<path class="st8" d="M57.5,172.3c-9.6,0-17.8-5.8-21.1-14.9c-3.1-8.8-0.3-18.6,6.9-24.7c2.3-1.9,4.1-4.4,6.4-6.2
		c9.6-7.4,23.7-5.1,31.3,4.9c6.9,9,5,23.1-4,30.4c-2.1,1.7-3.8,3.9-5.9,5.7C67.3,170.8,62.7,172.2,57.5,172.3z M67.1,125.4
		c-2.7,0-5.5,0-8.2,0c-0.6,0.1-1.3,0.1-1.9,0.3c-9.3,3-15,12.3-13.4,22c1.2,7.8,8.3,15.1,15.4,15.8c2.7,0,5.5,0,8.2,0
		c0.6-0.1,1.2-0.1,1.7-0.3c9.4-2.9,15.3-12.5,13.6-22.1C81.1,133.3,74.3,126.4,67.1,125.4z"/>
	<path class="st5" d="M891.4,860.7c-3.3-1-6.7-1.8-9.8-3.1c-3.8-1.6-7.8-3.3-11.1-5.8c-7.3-5.3-10-15.6-7-24.5
		c2.9-8.6,11.2-14.6,20.1-14.9c4.5-0.2,8.7,0.9,12.6,3.1c3.1,1.7,6.6,2.8,9.3,4.9c7.7,5.8,10.5,15.9,7.2,25
		c-3.2,9-11.5,14.7-21.2,14.7C891.6,860.3,891.5,860.5,891.4,860.7z M887.6,815.4c-1.9,0-3.7,0-5.6,0c-7.9,1.1-13.2,5.7-15.8,13
		c-2.7,7.6-1,14.6,4.7,20.2c5.6,5.6,12.5,7.3,20.2,4.8c8.5-2.8,14.3-11.6,13.4-20C903.4,823.7,896.5,816.3,887.6,815.4z"/>
	<path class="st10" d="M277.5,333.1c0,0.9,0,1.6,0,2.2c-9.4,9.6-18.7,19.1-28.3,28.8c-9.9-9.7-19.4-19-29.2-28.6
		c0.3-0.8,0.4-1.9,1.1-2.6c8.7-9,17.5-18,26.3-27c0.3-0.3,0.7-0.4,1.5-0.9C258.4,314.4,267.9,323.7,277.5,333.1z M248.7,308.8
		c-2.3,2.4-4.1,4.2-5.9,6.1c-5.8,5.9-11.7,11.8-17.5,17.8c-0.7,0.8-1.1,1.9-1.5,2.7c8.7,8.5,17,16.7,24.6,24.1
		c9.1-8.4,17.9-16.5,26.8-24.8C266,325.7,257.5,317.4,248.7,308.8z"/>
	<path class="st10" d="M823.4,426.3c15.6,6.2,30.4,12.2,45.3,18.1c0.1,0.4,0.1,0.7,0.2,1.1c-12.4,10.1-25.1,19.8-38.3,30.3
		c-0.6-2.3-1.1-3.9-1.4-5.6c-2-13.6-3.8-27.1-5.7-40.7C823.3,428.7,823.4,428,823.4,426.3z M864.4,445.7
		c-12.7-5.1-25.1-10.1-38.2-15.3c2,13.7,3.9,26.9,5.9,40.5C843.1,462.3,853.6,454.1,864.4,445.7z"/>
	<path class="st11" d="M78.6,479.5c-12.3-10.1-24.6-20.3-37.4-30.8c1.3-0.8,2-1.5,2.8-1.8c13.5-5.1,27-10.1,40.5-15.1
		c0.8-0.3,1.8-0.3,3.3-0.5c-2.8,16.3-5.4,32.1-8.1,47.9C79.4,479.2,79,479.3,78.6,479.5z M77.7,475.3c2.3-13.7,4.5-27,6.9-40.7
		c-13.1,4.9-25.6,9.5-38.7,14.4C56.6,457.8,66.9,466.4,77.7,475.3z"/>
	<path class="st12" d="M769.1,334.7c-7.5,14.5-15.5,28.5-23.2,42.6c-0.4,0-0.8,0.1-1.1,0.1c-8.3-13.7-16.6-27.5-24.9-41.2
		C721.9,334.7,764.7,333.4,769.1,334.7z M745.2,372.9c6.8-12.3,13.3-24.1,19.9-36.2c-13.8,0.3-27.3,0.6-41.3,0.9
		C731,349.4,737.9,360.9,745.2,372.9z"/>
	<path class="st12" d="M218.1,225.5c-0.4-1.2-0.9-2-1.1-2.9c-2-13.6-4-27.1-5.9-40.7c-0.2-1.6-0.2-3.2-0.3-4.7
		c0.2-0.2,0.5-0.4,0.7-0.6c14.9,5.9,29.7,11.9,45.1,18c-1,1.2-1.5,2.1-2.2,2.6c-11.4,9-22.8,18-34.3,26.9
		C219.7,224.5,219.2,224.8,218.1,225.5z M219.5,221.2c11-8.6,21.5-17,32.5-25.6c-13-5.2-25.4-10.2-38.3-15.3
		C215.7,194.2,217.5,207.4,219.5,221.2z"/>
	<path class="st10" d="M289,94.8c-12.1,0.1-22.2-9.7-22.3-21.7c-0.1-12.6,9.5-22.8,21.6-22.8c13,0,22.9,9.5,22.9,22.1
		C311.3,84.9,301.6,94.7,289,94.8z M269.5,72.5c-0.3,9.9,7.9,19.9,20.5,19.5c10.4-0.3,18.1-8.6,18.5-18.7c0.4-11.1-8-20-18.5-20.3
		C277.7,52.7,269.2,62.3,269.5,72.5z"/>
	<path class="st13" d="M77.8,926.2c-0.1,2.1-0.1,4.2-0.4,6.4c-1.5,12.9-2.9,25.7-4.5,38.6c-0.1,1.1-0.6,2.2-1.1,3.9
		c-13.4-9.9-26.4-19.3-39.1-29.2c0.1-0.4,0.1-0.7,0.2-1.1c14.6-6.3,29.2-12.7,43.8-19C77.1,925.9,77.4,926.1,77.8,926.2z M37,945.9
		c11.3,8.4,22.2,16.4,33.2,24.7c1.6-13.9,3.2-27.4,4.7-41.1C62.4,934.9,49.9,940.3,37,945.9z"/>
	<path class="st13" d="M844.7,276.7c0-12.1,10-22,22.3-22c12.5,0,22.2,9.8,22.3,22.5c0,12.4-10,22.1-22.7,22.1
		C854.4,299.2,844.7,289.3,844.7,276.7z M886.6,277.1c0-11-8.5-19.4-19.1-19.7c-10.9-0.3-20.2,9.1-20.1,19.9
		c0.1,10.8,9.6,19.7,20.1,19.4C878,296.3,886.6,287.8,886.6,277.1z"/>
	<path class="st7" d="M947.5,253.7c-2-3.3-3.9-6.2-5.8-9.4c3.3-2,6.1-3.8,9.3-5.8c2,3.1,3.8,6,5.9,9.3
		C953.8,249.8,950.9,251.6,947.5,253.7z"/>
	<path class="st14" d="M594.7,792.4c3.4-2.1,6.2-3.9,9.4-5.8c2,3.1,3.8,6.1,5.8,9.3c-3.1,2-5.9,3.7-9.3,5.9
		C598.7,798.7,596.8,795.7,594.7,792.4z"/>
	<path class="st14" d="M660.4,435.4c3.4-2,6.4-3.7,9.4-5.5c2,3.3,3.7,6.1,5.7,9.2c-3.1,2-6,3.8-9.3,5.8
		C664.2,441.7,662.4,438.7,660.4,435.4z"/>
	<path class="st14" d="M982,890.6c-3.1,2-6,3.8-9.3,5.8c-2-3.1-3.9-6.1-5.9-9.4c3.4-2.1,6.2-3.8,9.3-5.7
		C978.1,884.5,979.9,887.3,982,890.6z"/>
	<path class="st7" d="M48.4,717.9c3.4-2.1,6.2-3.8,9.4-5.8c2,3.2,3.8,6.2,5.8,9.4c-3.3,2-6.1,3.8-9.3,5.7
		C52.2,723.9,50.4,721,48.4,717.9z"/>
	<path class="st14" d="M678.3,121.5c2,3.3,3.9,6.3,5.8,9.4c-3.3,2-6,3.7-9.3,5.7c-2-3.1-3.8-6-5.9-9.3
		C672.2,125.3,675.1,123.5,678.3,121.5z"/>
	<path class="st14" d="M409,945.9c-2.9,1.8-5.5,3.5-8.2,5c-0.4,0.2-1.5,0-1.8-0.3c-1.7-2.6-3.3-5.2-5.2-8.2c3.2-2,6-3.8,9.3-5.8
		C405,939.7,406.9,942.6,409,945.9z"/>
	<path class="st14" d="M811.1,764.2c0,3.5-2.4,5.9-5.9,5.9c-3.4,0-6-2.5-6.1-5.8c-0.1-3.3,2.9-6.3,6.2-6.2
		C808.6,758.2,811.1,760.7,811.1,764.2z"/>
	<path class="st14" d="M426.6,611.1c0,3.5-2.4,6-5.8,6c-3.5,0-6.3-2.7-6.2-6c0.1-3.3,2.9-6,6.1-5.9
		C424,605.1,426.6,607.7,426.6,611.1z"/>
	<path class="st14" d="M924.8,545.1c-3.5,0-6.3-2.7-6.2-6c0.1-3.3,2.8-6,6.1-6c3.4,0,5.9,2.6,5.9,6
		C930.6,542.6,928.2,545,924.8,545.1z"/>
	<path class="st7" d="M402.6,144.7c0,3.5-2.4,5.9-5.9,5.9c-3.4,0-6-2.6-6.1-5.9c0-3.2,2.8-6.1,6-6.1
		C399.9,138.5,402.6,141.2,402.6,144.7z"/>
	<path class="st7" d="M135.3,934.6c-3.2-0.1-5.8-2.8-5.8-5.9c0-3.3,3-6.2,6.3-6.1c3.4,0.1,5.9,2.9,5.7,6.4
		C141.4,932.4,138.9,934.7,135.3,934.6z"/>
	<path class="st14" d="M151.5,432.6c0,3.5-2.3,5.9-5.8,5.9c-3.5,0-6.2-2.6-6.1-6.1c0.1-3.2,3-6,6.1-6
		C149,426.6,151.5,429.2,151.5,432.6z"/>
	<path class="st14" d="M862.1,113.1c0,3.5-2.3,6-5.8,6c-3.6,0-6.3-2.6-6.2-6c0-3.3,2.8-6,6.1-6C859.5,107.1,862,109.7,862.1,113.1z"
		/>
	<path class="st14" d="M279.7,778.1c-3.4,0-6-2.5-6.1-5.8c-0.1-3.2,2.9-6.2,6.2-6.2c3.2,0,5.8,2.6,5.8,5.9
		C285.6,775.6,283.3,778,279.7,778.1z"/>
	<path class="st14" d="M259.6,29.2c0,3.5-2.4,5.9-5.9,5.9c-3.4,0-6-2.5-6.1-5.8c-0.1-3.2,2.7-6.1,6-6.1
		C256.9,23,259.6,25.6,259.6,29.2z"/>
	<path class="st14" d="M139.1,235.8c0,3.4-2.5,5.8-6,5.8c-3.4,0-6-2.6-6-5.9c0-3.3,3-6.2,6.3-6.1
		C136.7,229.7,139.1,232.3,139.1,235.8z"/>
	<path class="st14" d="M492.6,316.2c0,3.5-2.4,5.8-6,5.8c-3.4,0-6-2.6-6.1-5.9c-0.1-3.3,2.9-6.2,6.2-6.1
		C490.1,310.2,492.6,312.8,492.6,316.2z"/>
	<path class="st14" d="M734.7,267.6c-3.4,0-6-2.5-6.1-5.8c-0.1-3.2,2.9-6.3,6.2-6.2c3.3,0.1,5.9,2.7,5.9,6.1
		C740.6,265.1,738.1,267.5,734.7,267.6z"/>
	<path class="st15" d="M382.5,704.6c-20.8-22.3-41.6-44.6-62.3-66.6c2.6-2.9,5-5.7,7.5-8.5c39.5,42.3,78.6,84,117.9,126
		c-2.7,2.5-5.3,5-8.2,7.7c-3.8-4-7.3-7.7-10.9-11.5c-9-9.7-18.1-19.3-27.1-29c-5-5.4-10-10.8-15.1-16.1c-0.3-0.3-0.6-0.6-0.9-0.8
		c0,0-0.1-0.1-0.1-0.1C383,705.3,382.8,704.9,382.5,704.6z"/>
	<path class="st16" d="M382.5,704.6c0.3,0.3,0.5,0.7,0.8,1C383,705.3,382.8,704.9,382.5,704.6z"/>
	<path class="st16" d="M383.4,705.7c0.3,0.3,0.6,0.6,0.9,0.8C384,706.3,383.7,706,383.4,705.7z"/>
	<path class="st17" d="M773.7,687.1c0.9-3.8,1.7-7.2,2.6-11c56,13.2,111.7,26.3,167.7,39.5c-0.9,3.7-1.7,7.2-2.6,11
		C885.5,713.5,829.7,700.3,773.7,687.1z"/>
	<path class="st15" d="M394.6,308.2c-2.1-3.5-3.9-6.5-5.8-9.7c49.2-29.9,98-59.7,147.1-89.6c2,3.3,3.9,6.5,5.9,9.7
		C492.6,248.5,443.8,278.3,394.6,308.2z"/>
	<path class="st18" d="M209.7,902.7c-2.2,3.2-4.3,6.2-6.4,9.3c-47.3-32.5-94.5-65-141.9-97.7c2.1-3.1,4.2-6.1,6.4-9.4
		C115,837.5,162.2,870,209.7,902.7z"/>
	<path class="st19" d="M510.8,494.3c6.3-12,12.5-23.8,18.9-36c25.9,13.6,51.8,27.2,77.8,40.9c-6.3,12-12.5,23.9-18.9,36
		C562.7,521.5,536.8,507.9,510.8,494.3z"/>
	<path class="st17" d="M653.5,931.9c-1.4,3.7-2.7,7-4.1,10.6c-32.7-12.8-65.3-25.6-98.1-38.5c1.4-3.6,2.7-7,4.1-10.6
		C588,906.2,620.6,919,653.5,931.9z"/>
	<path class="st20" d="M858,348.4c33.9-9.5,67.6-18.9,101.6-28.4c1,3.6,2,7.1,3.1,10.9c-33.8,9.5-67.6,18.9-101.6,28.4
		C860.1,355.8,859.1,352.3,858,348.4z"/>
	<path class="st21" d="M139.6,131.5c-2.5-2.9-4.9-5.6-7.4-8.6c26.6-23.1,52.9-46.1,79.5-69.2c2.5,2.9,4.9,5.6,7.4,8.5
		C192.6,85.4,166.2,108.3,139.6,131.5z"/>
	<path class="st22" d="M786.5,168.3c-3.8,0.4-7.4,0.9-11.3,1.3c-3.8-35-7.6-69.9-11.4-104.8c3.9-0.5,7.4-0.9,11.2-1.4
		C778.9,98.5,782.7,133.3,786.5,168.3z"/>
	<path class="st23" d="M186.3,654.5c11-6.6,21.9-13.2,33-19.9c5.5,9.2,10.9,18.2,16.5,27.5c-20.1,12.1-39.9,24-60,36.1
		c-5.5-9.1-10.9-18.1-16.5-27.4c7.9-4.8,15.5-9.5,23.2-14.2C183.8,655.8,185.1,655.1,186.3,654.5z"/>
	<path class="st16" d="M186.3,654.5c-1.2,0.7-2.5,1.3-3.7,2C183.8,655.8,185.1,655.1,186.3,654.5z"/>
	<path class="st24" d="M122,349c-20.5-11.5-40.7-22.9-61-34.4c5.3-9.4,10.5-18.6,15.8-28c20.4,11.5,40.6,22.9,61,34.4
		C132.4,330.5,127.2,339.8,122,349z"/>
	<path class="st25" d="M743.6,808.8c4.1,9.6,8.1,18.9,12.2,28.5c-20.8,8.9-41.4,17.7-62.3,26.6c-4.1-9.5-8.1-18.9-12.2-28.5
		C702.1,826.6,722.7,817.8,743.6,808.8z"/>
	<path class="st24" d="M412.5,440.4c-10.8,2.2-21.6,4.4-32.7,6.6c-2.4-12-4.8-23.9-7.2-35.9c11.9-2.4,23.8-4.8,35.9-7.2
		c1.3,7.1,2.7,14.1,4,21.1c0.4,1.5-1,3.4,0.9,4.6c0.1,0.1,0.1,0.3,0.1,0.4c0.2,2.7,0.5,5.4,0.7,8.1
		C413.7,438.8,413.1,439.6,412.5,440.4z"/>
	<path class="st20" d="M412.5,440.4c0.6-0.8,1.2-1.6,1.7-2.3c-0.2-2.7-0.5-5.4-0.7-8.1c0.7,3.2,1.5,6.4,2.2,9.8
		C414.5,440,413.5,440.2,412.5,440.4z"/>
	<path class="st20" d="M413.5,429.5c-1.9-1.2-0.6-3.1-0.9-4.6C412.8,426.5,413.2,428,413.5,429.5z"/>
	<path class="st24" d="M361.4,860.5c-11.7-3.4-23.3-6.7-35.2-10.1c3.3-11.7,6.6-23.3,10-35.2c11.7,3.3,23.3,6.7,35.2,10.1
		C368.1,837.1,364.7,848.7,361.4,860.5z"/>
	<path class="st20" d="M441.7,30.8c11,8.5,21.8,16.8,32.8,25.3c-12.8,5.3-25.3,10.4-38.3,15.7C438,58,439.8,44.7,441.7,30.8z"/>
	<path class="st23" d="M610.5,314.9c11.2,0.1,19.7,8.8,19.6,20.1c-0.1,10.6-9.2,19.3-20.1,19c-10.7-0.2-19.2-9.1-19-19.9
		C591.1,323.4,599.8,314.8,610.5,314.9z"/>
	<path class="st26" d="M486.5,162.4c11,0,19.5,8.5,19.5,19.7c0,10.7-8.6,19.2-19.2,19.5c-10.7,0.3-19.9-8.8-19.9-19.1
		C466.9,171,475.3,162.5,486.5,162.4z"/>
	<path class="st27" d="M310,521.5c10.6-0.5,19.8,9.3,19.7,19.7c0,10.5-9.6,19.6-20,19.6c-8.6-0.1-19.4-8-19.3-20
		C290.4,530.4,300,520.8,310,521.5z"/>
	<path class="st24" d="M903.4,56.7c0.8-6.1,4.3-10.3,9.5-13.3c2.5-0.4,4.9-1,7.4-1.3c1.9-0.2,4-0.3,5.8,0.1c2.5,0.5,4.9,1.4,7.4,2.2
		c4.5,2.9,7.3,6.9,8,12.3c0,2.5,0,5.1,0,7.6c-1.1,7.4-5.6,12-12.2,14.6c-10.4,4-22.2-1.8-25.5-12.5c-0.2-0.7-0.2-1.5-0.3-2.2
		C903.4,61.8,903.4,59.2,903.4,56.7z"/>
	<path class="st20" d="M933.6,44.5c-2.5-0.8-4.9-1.7-7.4-2.2c-1.9-0.4-3.9-0.3-5.8-0.1c-2.5,0.3-4.9,0.8-7.4,1.3
		C919,39.6,927.8,40,933.6,44.5z"/>
	<path class="st20" d="M941.6,64.3c0-2.5,0-5.1,0-7.6C941.6,59.2,941.6,61.8,941.6,64.3z"/>
	<path class="st20" d="M903.4,56.7c0,2.5,0,5.1,0,7.6C903.5,61.8,903.4,59.2,903.4,56.7z"/>
	<path class="st27" d="M666.6,42.1c0,11-8.6,19.5-19.6,19.5c-11.1,0-19.5-8.6-19.5-19.9c0-10.6,8.7-19,19.4-19.3
		C657.4,22.1,667.1,31.5,666.6,42.1z"/>
	<path class="st26" d="M613.6,653.1c0.4,10.9-9.7,19.9-20.1,19.6c-9.1-0.2-19.4-8.4-19.1-20.2c0.2-10,9.2-19.4,20.2-19.1
		C604.8,633.6,614.1,642.9,613.6,653.1z"/>
	<path class="st24" d="M58.9,163.5c-7.1-0.8-14.2-8-15.4-15.8c-1.5-9.7,4.2-18.9,13.4-22c0.6-0.2,1.3-0.2,1.9-0.3c2.7,0,5.5,0,8.2,0
		c7.2,0.9,14,7.9,15.3,15.7c1.6,9.7-4.3,19.3-13.6,22.1c-0.5,0.2-1.1,0.2-1.7,0.3C64.4,163.6,61.7,163.6,58.9,163.5z"/>
	<path class="st20" d="M58.9,163.5c2.7,0,5.5,0,8.2,0C64.4,163.6,61.7,163.6,58.9,163.5z"/>
	<path class="st20" d="M67.1,125.4c-2.7,0-5.5,0-8.2,0C61.7,125.4,64.4,125.4,67.1,125.4z"/>
	<path class="st24" d="M887.6,815.4c8.9,1,15.8,8.4,16.8,18c0.9,8.4-4.9,17.2-13.4,20c-7.6,2.5-14.5,0.9-20.2-4.8
		c-5.7-5.7-7.3-12.6-4.7-20.2c2.6-7.4,7.9-11.9,15.8-13C883.8,815.3,885.7,815.3,887.6,815.4z"/>
	<path class="st25" d="M887.6,815.4c-1.9,0-3.7,0-5.6,0C883.8,815.3,885.7,815.3,887.6,815.4z"/>
	<path class="st16" d="M248.7,308.8c8.8,8.6,17.3,16.9,26.5,25.9c-9,8.3-17.7,16.4-26.8,24.8c-7.6-7.4-15.9-15.6-24.6-24.1
		c0.5-0.8,0.8-2,1.5-2.7c5.8-6,11.7-11.8,17.5-17.8C244.6,313,246.4,311.2,248.7,308.8z"/>
	<path class="st16" d="M864.4,445.7c-10.8,8.5-21.3,16.6-32.3,25.3c-2-13.6-3.9-26.8-5.9-40.5C839.2,435.6,851.7,440.6,864.4,445.7z
		"/>
	<path class="st22" d="M77.7,475.3c-10.8-8.9-21.1-17.5-31.8-26.3c13.1-4.9,25.6-9.5,38.7-14.4C82.3,448.3,80,461.6,77.7,475.3z"/>
	<path class="st17" d="M745.2,372.9c-7.2-11.9-14.2-23.5-21.4-35.3c14-0.3,27.4-0.6,41.3-0.9C758.4,348.7,751.9,360.6,745.2,372.9z"
		/>
	<path class="st17" d="M219.5,221.2c-2-13.8-3.9-27.1-5.8-40.9c12.9,5.2,25.4,10.2,38.3,15.3C241,204.3,230.5,212.6,219.5,221.2z"/>
	<path class="st16" d="M269.5,72.5c-0.3-10.2,8.2-19.8,20.5-19.5c10.5,0.3,18.9,9.2,18.5,20.3c-0.4,10.1-8.1,18.4-18.5,18.7
		C277.4,92.4,269.2,82.4,269.5,72.5z"/>
	<path class="st20" d="M37,945.9c12.9-5.6,25.3-11,38-16.4c-1.6,13.7-3.1,27.2-4.7,41.1C59.2,962.4,48.3,954.3,37,945.9z"/>
	<path class="st25" d="M886.6,277.1c0,10.7-8.6,19.1-19.1,19.5c-10.4,0.4-19.9-8.6-20.1-19.4c-0.1-10.7,9.1-20.2,20.1-19.9
		C878.1,257.7,886.5,266.1,886.6,277.1z"/>
</g>
</svg>
