<?xml version="1.0" standalone="no"?>
<!DOCTYPE svg PUBLIC "-//W3C//DTD SVG 20010904//EN"
 "http://www.w3.org/TR/2001/REC-SVG-20010904/DTD/svg10.dtd">
<svg version="1.0" xmlns="http://www.w3.org/2000/svg"
 width="2549.000000pt" height="2549.000000pt" viewBox="0 0 2549.000000 2549.000000"
 preserveAspectRatio="xMidYMid meet">
<metadata>
Created by potrace 1.14, written by Peter Selinger 2001-2017
</metadata>
<g transform="translate(0.000000,2549.000000) scale(0.100000,-0.100000)"
fill="#000000" stroke="none">
<path d="M11294 24715 c-42 -17 -71 -50 -99 -110 -12 -27 -46 -99 -75 -160
-29 -60 -65 -137 -80 -170 -15 -33 -49 -105 -75 -160 -26 -55 -64 -136 -85
-180 -21 -44 -63 -133 -94 -199 -31 -65 -56 -119 -56 -121 0 -2 -40 -87 -90
-189 -49 -103 -90 -189 -90 -190 0 -2 -36 -79 -80 -171 -44 -92 -80 -168 -80
-170 0 -2 -27 -59 -59 -127 -32 -67 -75 -157 -94 -198 -74 -160 -119 -254
-166 -353 -27 -56 -76 -160 -110 -232 -34 -71 -74 -155 -89 -187 l-27 -56
-200 143 c-110 79 -222 159 -248 177 -26 18 -53 38 -60 43 -7 6 -106 77 -222
159 -115 82 -248 177 -295 211 -47 34 -132 95 -190 136 -58 40 -109 77 -115
82 -32 25 -175 126 -205 144 -26 16 -49 21 -90 20 -90 -3 -133 -46 -173 -172
-25 -79 -137 -429 -142 -442 -3 -8 -50 17 -127 67 -104 68 -199 128 -313 200
-13 8 -145 94 -294 190 -149 96 -335 216 -413 267 -225 145 -244 156 -292 155
-55 -1 -85 -13 -120 -48 -33 -34 -43 -57 -52 -121 -3 -27 -7 -55 -9 -63 -1 -8
-6 -35 -9 -60 -4 -25 -13 -85 -21 -135 -8 -49 -17 -110 -20 -135 -3 -25 -8
-52 -10 -60 -2 -8 -6 -37 -10 -65 -6 -53 -13 -95 -20 -135 -3 -14 -7 -47 -10
-75 -4 -27 -8 -57 -10 -65 -2 -8 -7 -35 -10 -60 -3 -25 -15 -99 -25 -165 -24
-154 -30 -192 -36 -234 -2 -19 -6 -46 -9 -60 -2 -14 -6 -44 -10 -66 -3 -23 -7
-50 -9 -61 -2 -12 -7 -45 -11 -75 -4 -30 -8 -56 -10 -59 -2 -3 -6 -30 -9 -60
-3 -30 -8 -66 -11 -80 -3 -13 -7 -41 -10 -62 -15 -108 -17 -123 -20 -128 -1
-3 -6 -30 -9 -61 -4 -31 -8 -66 -11 -77 -2 -11 -7 -42 -11 -69 -3 -26 -8 -55
-9 -63 -2 -8 -6 -35 -9 -60 -4 -25 -11 -72 -16 -105 -6 -33 -21 -134 -35 -225
-14 -91 -27 -176 -29 -190 -3 -14 -5 -28 -5 -31 -1 -7 -31 -6 -181 6 -79 6
-152 10 -310 20 -52 3 -131 8 -175 11 -85 6 -134 9 -285 18 -52 3 -129 8 -170
11 -80 6 -198 13 -320 20 -70 4 -166 10 -300 20 -225 17 -267 17 -305 0 -22
-8 -48 -23 -58 -33 -21 -19 -47 -75 -49 -106 -1 -20 10 -129 17 -164 1 -9 6
-53 10 -96 4 -43 8 -87 10 -97 2 -10 7 -49 10 -86 4 -37 8 -79 10 -93 2 -14 6
-54 10 -90 4 -36 8 -76 10 -90 2 -14 7 -54 10 -90 3 -36 8 -76 10 -90 2 -14 7
-52 10 -85 3 -33 8 -74 10 -91 2 -18 7 -63 10 -100 4 -37 8 -75 10 -84 2 -8 6
-49 10 -90 4 -41 9 -82 10 -91 2 -8 6 -47 10 -85 3 -38 8 -82 10 -99 3 -29 15
-128 19 -170 3 -19 -3 -21 -68 -22 -116 -2 -668 -14 -846 -18 -91 -2 -298 -7
-460 -10 -320 -7 -492 -10 -930 -20 -157 -4 -364 -8 -460 -10 -598 -13 -769
-17 -885 -19 -97 -3 -139 -8 -165 -21 -80 -38 -112 -144 -69 -229 12 -25 26
-46 31 -46 4 0 8 -4 8 -9 0 -5 242 -373 538 -818 1014 -1522 1105 -1661 1102
-1669 -2 -5 -143 -66 -314 -136 -171 -71 -320 -132 -331 -137 -11 -6 -54 -24
-95 -41 -41 -17 -85 -39 -96 -48 -49 -41 -67 -121 -43 -189 9 -26 143 -161
349 -353 19 -18 111 -105 204 -194 93 -88 187 -178 210 -200 23 -21 79 -75
126 -120 290 -275 411 -390 460 -436 30 -29 120 -114 200 -190 80 -76 170
-162 200 -190 88 -83 344 -326 458 -436 l105 -101 -209 -306 c-115 -169 -257
-378 -316 -465 -59 -86 -112 -164 -118 -172 -26 -38 -256 -375 -312 -457 -35
-51 -88 -129 -118 -172 -30 -44 -93 -137 -140 -206 -47 -69 -129 -190 -182
-268 -54 -78 -120 -176 -148 -217 -28 -41 -96 -140 -151 -220 -54 -80 -105
-153 -111 -164 -7 -10 -25 -35 -39 -55 -14 -20 -77 -112 -140 -206 -64 -93
-164 -241 -223 -327 -114 -167 -131 -211 -112 -276 16 -55 66 -96 138 -115 58
-14 133 -32 183 -41 11 -3 40 -9 65 -15 25 -5 56 -12 70 -15 31 -6 183 -38
310 -66 52 -11 104 -22 115 -24 21 -5 157 -34 190 -42 11 -3 40 -9 65 -14 25
-5 88 -19 140 -30 52 -11 107 -24 123 -27 15 -3 27 -11 27 -17 0 -14 -48 -166
-59 -186 -5 -9 -12 -31 -16 -50 -4 -19 -11 -41 -16 -50 -5 -8 -43 -121 -84
-250 -42 -129 -80 -244 -85 -255 -5 -11 -41 -119 -80 -240 -39 -121 -75 -227
-80 -236 -21 -39 -22 -106 -2 -150 23 -53 45 -74 98 -93 46 -16 61 -14 249 34
66 17 131 33 145 36 14 3 48 12 76 20 51 14 75 20 124 30 14 3 34 8 45 11 11
4 25 8 31 9 5 1 48 12 95 24 46 12 91 23 99 25 8 2 269 67 580 145 311 78 712
179 892 224 l327 83 -24 -61 c-68 -177 -133 -346 -220 -571 -53 -137 -119
-308 -147 -380 -27 -71 -55 -143 -63 -160 -7 -16 -20 -50 -28 -75 -9 -25 -37
-97 -62 -160 -26 -63 -48 -119 -49 -125 -2 -5 -8 -23 -15 -40 -6 -16 -37 -95
-67 -175 -31 -80 -60 -154 -65 -165 -5 -11 -43 -110 -84 -220 -42 -110 -86
-225 -99 -255 -13 -30 -28 -68 -34 -85 -19 -52 -122 -319 -132 -340 -5 -11
-12 -31 -16 -44 -3 -13 -13 -40 -22 -60 -9 -20 -16 -38 -17 -41 0 -5 -18 -51
-40 -105 -7 -16 -22 -55 -34 -85 -11 -30 -26 -68 -32 -85 -7 -16 -13 -32 -13
-35 -2 -9 -78 -204 -92 -235 -28 -65 -43 -124 -39 -158 7 -83 79 -147 165
-147 46 0 78 16 455 231 28 16 111 63 185 105 74 41 151 85 170 96 19 11 127
72 240 136 113 63 259 146 324 184 66 37 123 68 127 68 3 0 12 7 19 15 7 8 16
13 20 10 5 -3 11 -1 14 4 12 18 116 69 117 58 3 -21 6 -70 13 -172 7 -110 13
-202 21 -315 3 -41 7 -109 10 -150 3 -41 7 -106 10 -145 26 -373 33 -478 40
-605 6 -96 14 -209 20 -290 2 -30 7 -100 10 -155 10 -163 16 -188 54 -228 51
-55 130 -69 196 -34 17 8 98 86 180 172 83 87 187 196 233 244 46 47 115 120
154 161 39 41 151 158 248 260 98 102 199 208 225 235 26 28 116 122 200 210
84 88 188 198 232 244 l81 85 15 -65 c23 -99 246 -978 263 -1035 8 -28 16 -60
18 -70 2 -11 30 -120 61 -244 31 -124 65 -258 75 -297 24 -96 46 -132 100
-161 84 -44 83 -45 608 257 261 149 476 271 480 271 3 0 13 6 21 14 9 7 48 30
86 51 39 21 86 48 105 60 19 12 55 33 80 47 121 68 285 161 379 216 l105 60
75 -65 c42 -36 101 -87 131 -114 30 -26 66 -57 80 -69 14 -12 36 -31 50 -43
14 -12 75 -65 135 -117 61 -52 112 -97 115 -100 3 -3 73 -64 155 -135 83 -71
164 -141 180 -156 17 -15 104 -91 195 -169 91 -78 179 -154 195 -169 17 -14
62 -53 100 -86 39 -33 72 -63 75 -66 3 -3 59 -52 125 -109 66 -57 122 -106
125 -109 3 -3 34 -30 70 -60 36 -30 72 -61 80 -70 9 -9 58 -52 110 -96 52 -44
97 -82 100 -85 5 -5 336 -294 464 -404 63 -53 143 -124 186 -162 21 -18 275
-239 374 -324 16 -14 50 -44 75 -67 101 -93 191 -103 268 -30 39 37 53 78 98
300 2 10 6 26 9 35 3 9 7 28 10 42 2 14 11 54 20 90 13 53 44 190 61 270 11
53 67 285 69 287 1 2 65 -60 142 -136 110 -110 148 -142 181 -151 85 -26 159
12 208 105 18 33 77 148 132 255 242 470 288 560 333 645 26 50 98 189 160
310 126 245 200 388 206 394 2 3 17 -4 32 -16 124 -91 165 -115 205 -117 90
-7 93 -4 287 203 63 68 133 143 155 166 22 24 90 96 150 160 61 65 126 135
145 155 19 20 89 95 155 165 66 71 154 165 196 209 42 45 88 94 102 110 l26
28 123 -102 c68 -56 132 -109 143 -118 42 -35 130 -108 148 -122 10 -8 27 -22
37 -30 9 -8 37 -31 60 -50 23 -19 59 -49 79 -66 20 -17 104 -86 186 -153 83
-68 168 -138 190 -156 22 -18 74 -61 115 -95 41 -34 86 -71 100 -83 14 -12 41
-35 60 -50 19 -15 53 -43 75 -62 200 -167 298 -244 314 -250 102 -32 213 28
226 122 2 16 6 42 8 58 3 17 11 64 17 105 6 41 13 86 15 99 3 13 7 45 11 70 3
25 8 57 10 71 4 21 25 166 39 265 3 17 7 41 10 55 3 14 7 50 10 80 4 30 8 62
10 70 2 8 7 35 10 60 3 25 12 83 20 130 7 47 17 112 21 145 3 33 8 62 9 65 2
3 7 33 10 65 4 33 9 62 10 65 2 3 6 30 10 60 4 30 8 57 10 60 2 3 6 34 10 70
3 36 8 72 10 80 2 8 7 35 10 60 10 74 24 167 30 200 2 8 8 51 15 95 6 44 13
91 15 105 2 14 7 45 10 70 8 60 14 100 20 130 3 14 7 45 10 70 3 25 9 70 15
100 5 30 12 73 15 95 11 79 36 240 40 265 4 27 13 87 20 141 3 19 6 43 9 54 2
11 7 45 11 75 4 30 9 64 11 75 2 10 6 37 9 60 15 115 16 115 38 111 12 -3 211
-62 442 -131 231 -70 463 -140 515 -155 100 -30 459 -138 570 -172 36 -11 124
-37 195 -58 243 -72 330 -98 430 -130 55 -17 108 -33 118 -35 10 -2 55 -15
100 -29 45 -14 152 -46 237 -71 85 -26 205 -62 265 -80 181 -55 419 -127 435
-131 8 -2 60 -17 115 -34 55 -17 136 -42 180 -55 44 -12 179 -53 300 -90 121
-37 227 -68 235 -70 8 -2 76 -22 150 -45 378 -116 355 -110 420 -97 66 14 120
85 120 159 0 25 -257 709 -310 823 -5 11 -29 72 -53 135 -25 63 -82 210 -127
325 -46 116 -116 296 -157 400 -132 336 -160 407 -226 575 -36 91 -93 237
-127 325 -34 88 -66 169 -71 180 -5 11 -121 308 -259 660 -138 352 -291 744
-341 870 -50 127 -118 300 -151 385 -33 85 -64 164 -69 175 -8 19 -55 140
-166 425 -24 63 -49 125 -55 137 -12 25 1 48 37 64 11 5 90 54 175 109 85 54
179 114 209 132 29 18 64 40 76 48 26 16 158 100 377 238 670 423 800 507 816
530 49 71 46 146 -9 215 -19 23 -106 127 -194 231 -88 104 -212 251 -275 326
-63 75 -159 189 -213 253 l-98 116 38 34 c21 19 56 49 78 68 22 19 46 40 54
47 7 7 59 52 115 100 55 48 106 92 111 98 9 10 116 102 179 155 16 13 43 37
60 53 17 16 51 45 75 65 25 20 54 45 65 56 12 11 50 45 85 75 35 30 69 60 75
65 6 6 67 59 136 119 69 59 152 132 185 161 33 29 132 115 220 191 88 76 165
143 171 149 6 6 35 31 64 56 55 46 71 60 136 119 22 19 68 60 104 90 36 30 72
61 81 70 9 8 43 38 75 66 432 375 559 486 614 534 36 31 124 108 195 170 72
62 157 136 190 165 33 29 96 84 140 121 43 38 86 76 95 84 9 8 58 51 109 95
51 44 101 95 113 113 40 64 18 169 -44 213 -25 18 -242 75 -353 93 -16 3 -59
12 -95 20 -36 8 -76 17 -90 20 -38 7 -339 74 -390 86 -25 6 -56 12 -70 15 -14
2 -54 11 -90 19 -58 13 -331 73 -370 81 -33 7 -168 36 -205 45 -22 5 -105 23
-185 40 -80 17 -172 37 -205 45 -33 8 -76 17 -95 20 -19 3 -58 12 -87 19 -28
8 -54 11 -57 9 -3 -3 -15 11 -26 30 -49 84 -113 96 -323 61 -27 -4 -62 2 -357
66 -236 52 -274 60 -295 65 -19 5 -87 19 -131 29 -12 2 -66 14 -120 25 -55 12
-126 28 -159 36 -33 8 -71 16 -85 19 -14 2 -194 41 -400 86 -206 45 -386 84
-400 86 -14 3 -33 7 -42 10 -9 3 -25 6 -35 8 -90 18 -394 84 -488 106 -22 5
-157 35 -300 66 -510 110 -618 134 -621 137 -1 1 -30 90 -64 197 -33 107 -67
213 -74 235 -8 22 -21 67 -31 100 -10 33 -28 92 -40 130 -13 39 -30 93 -38
120 -40 132 -110 356 -127 405 -10 30 -30 93 -44 140 -25 86 -60 199 -206 665
-45 143 -88 281 -96 307 -17 54 -56 105 -93 121 -15 6 -99 11 -199 12 -95 1
-176 6 -181 11 -4 5 -20 41 -35 79 -16 39 -35 85 -42 103 -8 17 -20 47 -28 65
-7 17 -23 55 -34 82 -12 28 -50 120 -85 205 -241 582 -348 841 -368 885 -5 11
-61 146 -124 300 -64 154 -120 289 -125 300 -13 28 -251 603 -316 761 -29 72
-63 155 -77 185 -13 30 -32 74 -42 99 -36 87 -98 130 -176 124 -19 -1 -245
-80 -504 -174 -258 -94 -492 -180 -520 -189 -27 -10 -189 -69 -358 -131 -170
-61 -311 -110 -313 -107 -7 7 -114 189 -114 193 0 3 -9 17 -19 32 -10 15 -99
162 -196 327 -293 495 -284 481 -328 505 -43 25 -112 29 -149 9 -13 -7 -52
-31 -88 -54 -145 -94 -268 -173 -328 -211 -34 -21 -115 -73 -180 -115 -64 -41
-214 -138 -332 -214 -118 -76 -231 -148 -251 -161 -43 -30 -50 -30 -73 -1 -11
12 -33 38 -50 57 -17 20 -51 60 -76 90 -25 29 -76 90 -114 134 -37 45 -87 104
-111 131 -23 28 -82 97 -131 155 -50 58 -191 224 -314 370 -123 146 -227 267
-230 270 -3 3 -25 30 -50 60 -25 30 -47 57 -50 60 -3 3 -44 50 -90 105 -169
201 -263 306 -288 323 -32 21 -107 24 -148 7z"/>
</g>
</svg>
