<?xml version="1.0" standalone="no"?>
<!DOCTYPE svg PUBLIC "-//W3C//DTD SVG 1.1//EN" "http://www.w3.org/Graphics/SVG/1.1/DTD/svg11.dtd" >
<svg xmlns="http://www.w3.org/2000/svg" xmlns:xlink="http://www.w3.org/1999/xlink" version="1.1">
<metadata>
Created by FontForge 20200427 at Thu Feb 13 21:06:32 2014
 By www
Copyright (c) Pink Broccoli Types, 2008. All rights reserved.
</metadata>
<defs>
<font id="HipHopperW01-Regular" horiz-adv-x="400" >
  <font-face 
    font-family="HipHopperW01-Regular"
    font-weight="400"
    font-stretch="normal"
    units-per-em="1000"
    panose-1="2 11 8 6 4 2 0 2 2 1"
    ascent="800"
    descent="-200"
    x-height="684"
    cap-height="730"
    bbox="-71 -249 1000 1011"
    underline-thickness="50"
    underline-position="-183"
    unicode-range="U+0002-2122"
  />
<missing-glyph horiz-adv-x="230" 
 />
    <glyph glyph-name=".notdef" horiz-adv-x="230" 
 />
    <glyph glyph-name=".null" horiz-adv-x="0" 
 />
    <glyph glyph-name="uni000D" unicode="&#xd;" horiz-adv-x="230" 
 />
    <glyph glyph-name="uni0002" horiz-adv-x="0" 
 />
    <glyph glyph-name="uni0009" unicode="&#x9;" horiz-adv-x="230" 
 />
    <glyph glyph-name="uni000A" unicode="&#xa;" horiz-adv-x="0" 
 />
    <glyph glyph-name="space" unicode=" " horiz-adv-x="230" 
 />
    <glyph glyph-name="exclam" unicode="!" horiz-adv-x="216" 
d="M153 193l-113 9l-17 484l173 14zM196 73q0 -21 -9 -37.5t-24 -28.5t-34 -18.5t-38 -6.5q-30 0 -50.5 19t-20.5 50q0 20 9 36.5t23.5 28t33 18t37.5 6.5q29 0 51 -18.5t22 -48.5z" />
    <glyph glyph-name="quotedbl" unicode="&#x22;" horiz-adv-x="337" 
d="M129 489l-89 -6l-20 236l132 3zM284 484l-89 9l-10 226l132 3z" />
    <glyph glyph-name="numbersign" unicode="#" horiz-adv-x="488" 
d="M383 386l-11 -84h75l-15 -107l-73 -1l-12 -99h-118l13 99h-37l-13 -101l-114 -2l14 102h-82l22 106h74l12 86l-77 -1l22 106l69 1l14 105l113 1l-14 -105h35l14 106l115 2l-13 -107l82 1l-20 -108h-75zM219 300l36 1l11 84h-35z" />
    <glyph glyph-name="dollar" unicode="$" horiz-adv-x="348" 
d="M230 451q-1 12 -4.5 25t-10 23.5t-16.5 17.5t-25 7q-17 0 -29.5 -11.5t-12.5 -28.5t13.5 -32.5t33.5 -32t44 -34.5t44 -39t33.5 -46t13.5 -55q0 -26 -9 -49t-24.5 -41t-36.5 -30t-46 -16l12 -175h-106l24 179q-23 7 -41.5 20.5t-33 31.5t-25.5 38.5t-18 42.5l109 39
q1 -10 3 -21t7 -20.5t13.5 -15.5t20.5 -6q15 0 26 10t11 25q0 18 -14 32.5t-34.5 29t-45 30.5t-45 36t-34.5 46.5t-14 61.5q0 28 10.5 52t28.5 42.5t42 30.5t51 16l-13 141l101 3l-16 -147q22 -7 42 -21t35.5 -32.5t27 -40.5t16.5 -44z" />
    <glyph glyph-name="percent" unicode="%" horiz-adv-x="628" 
d="M111 257q-29 0 -48.5 21t-31 50t-16.5 60t-5 51q0 30 8 74.5t25.5 86.5t46 72t69.5 30q34 0 56 -20.5t34.5 -50.5t17.5 -63t5 -57q0 -35 -7.5 -79t-26 -83t-49.5 -65.5t-78 -26.5zM153 603q-17 0 -28 -17.5t-18 -40.5t-9.5 -47t-2.5 -36q0 -10 1.5 -24.5t5.5 -28
t12 -23.5t21 -10q17 0 27.5 15t16 35t7.5 41.5t2 33.5q0 9 -0.5 26.5t-3.5 34t-10.5 29t-20.5 12.5zM250 1l-85 30l248 672l93 -29zM469 -10q-27 0 -44 19t-27 45t-13.5 54t-3.5 46q0 20 2.5 48t9 58.5t17 60.5t26.5 54t37.5 39t50.5 15q30 0 48.5 -20t28.5 -47.5
t13.5 -57.5t3.5 -50q0 -19 -3.5 -46t-11 -56.5t-19.5 -58.5t-28.5 -52t-38 -37t-48.5 -14zM517 329q-20 0 -32 -20t-18 -46.5t-8 -53.5t-2 -42q0 -8 0.5 -19.5t3 -21.5t8.5 -17t17 -7q15 0 26.5 17.5t19 41.5t11.5 49t4 40q0 8 -0.5 21.5t-3.5 26t-9 22t-17 9.5z" />
    <glyph glyph-name="ampersand" unicode="&#x26;" horiz-adv-x="502" 
d="M418 70q-14 12 -28.5 23.5t-28.5 23.5q-16 -21 -37 -41.5t-45 -36.5t-51.5 -26t-55.5 -10q-32 0 -61.5 11.5t-52 31.5t-35.5 48.5t-13 61.5q0 28 7.5 55t20.5 52.5t29 49t34 43.5q-32 35 -56.5 78t-24.5 92q0 33 13 63t34.5 53.5t51 37.5t62.5 14q30 0 58 -14t49.5 -36.5
t34 -51t12.5 -58.5q0 -24 -6.5 -46t-17.5 -42.5t-24.5 -40t-27.5 -38.5q17 -14 32.5 -27t32.5 -27q5 14 10 29t9 30l113 -23q-5 -29 -13.5 -59t-19.5 -58q17 -14 34.5 -27.5t34.5 -27.5zM209 530q0 38 -36 38q-18 0 -29.5 -10t-11.5 -29q0 -23 14.5 -45.5t28.5 -38.5
q11 17 22.5 40.5t11.5 44.5zM263 202q-19 17 -37.5 34t-37.5 34q-12 -17 -27 -42.5t-15 -47.5q0 -16 11 -27t27 -11q11 0 22.5 6.5t22 15.5t19.5 19.5t15 18.5z" />
    <glyph glyph-name="quotesingle" unicode="'" horiz-adv-x="172" 
d="M129 489l-89 -6l-20 236l132 3z" />
    <glyph glyph-name="parenleft" unicode="(" horiz-adv-x="293" 
d="M293 734q-33 -33 -59.5 -77t-45 -93t-28 -99.5t-9.5 -97.5q0 -44 4.5 -95t13.5 -102t23.5 -99t34.5 -87l-94 -52q-30 42 -51.5 97t-35 115t-20 120t-6.5 111q0 58 13.5 119t39 118t62.5 106.5t84 84.5z" />
    <glyph glyph-name="parenright" unicode=")" horiz-adv-x="293" 
d="M273 360q0 -58 -13.5 -119t-39 -118t-63 -106.5t-84.5 -84.5l-73 69q33 33 59.5 77t44.5 92.5t28 99.5t10 98q0 44 -4.5 95t-13.5 102t-23.5 99t-34.5 87l93 52q30 -42 51.5 -97t35.5 -115t20.5 -120t6.5 -111z" />
    <glyph glyph-name="asterisk" unicode="*" horiz-adv-x="401" 
d="M264 474l82 -93l-136 -59l-25 136l-80 -118l-81 107l118 55l-122 31l70 124l83 -87l-3 128l130 -38l-43 -107l118 40l6 -133z" />
    <glyph glyph-name="plus" unicode="+" horiz-adv-x="351" 
d="M243 302l2 -88l-132 -4v92l-91 1l-2 120h93v99l126 3l2 -101h88l2 -122h-88z" />
    <glyph glyph-name="comma" unicode="," horiz-adv-x="187" 
d="M167 71q0 -16 -5 -28t-14 -24l-84 -109l-64 32l26 147q5 25 24.5 41.5t45.5 16.5q15 0 28 -6.5t22.5 -17t15 -24t5.5 -28.5z" />
    <glyph glyph-name="hyphen" unicode="-" horiz-adv-x="334" 
d="M313 296l-293 6v121l294 -5z" />
    <glyph glyph-name="period" unicode="." horiz-adv-x="196" 
d="M176 72q0 -32 -23.5 -53t-54.5 -21t-54.5 21t-23.5 53t23.5 53.5t54.5 21.5t54.5 -21.5t23.5 -53.5z" />
    <glyph glyph-name="slash" unicode="/" horiz-adv-x="377" 
d="M108 2l-108 50l254 692l123 -49z" />
    <glyph glyph-name="zero" unicode="0" horiz-adv-x="440" 
d="M430 402q0 -39 -5.5 -85t-18 -92.5t-32 -89.5t-48.5 -76t-68 -53t-89 -20q-30 0 -53.5 15.5t-41 40.5t-30 57t-20 65t-11 63.5t-3.5 53.5q0 33 5.5 78t18 93t31.5 94.5t45.5 83.5t61 59.5t78.5 22.5q36 0 63 -15.5t47 -40.5t33.5 -57.5t21.5 -67t11.5 -68.5t3.5 -61z
M307 385q0 16 -1.5 46t-8 59t-19.5 51t-37 22q-20 0 -35.5 -14t-27 -36t-20 -49.5t-13.5 -55t-7.5 -51t-2.5 -38.5q0 -17 3 -42.5t11 -49.5t23 -41t38 -17q29 0 48 25.5t30 61t15 72t4 57.5z" />
    <glyph glyph-name="one" unicode="1" horiz-adv-x="231" 
d="M68 0l12 554l-77 -15l-3 142l211 22l-13 -698z" />
    <glyph glyph-name="two" unicode="2" 
d="M373 147l-3 -129l-374 -4v3q0 60 19.5 113.5t49 99.5t64 85t64 71.5t49 57.5t19.5 43q0 32 -21.5 53.5t-53.5 21.5q-13 0 -26.5 -6.5t-26.5 -17t-25.5 -24t-22.5 -26.5l-74 99q39 51 88.5 81t108.5 30q43 0 77 -16.5t57.5 -44.5t35.5 -65.5t12 -78.5q0 -29 -14 -58
t-36.5 -57.5t-49.5 -57.5t-53 -58t-48 -58.5t-33 -58.5z" />
    <glyph glyph-name="three" unicode="3" horiz-adv-x="381" 
d="M361 200q0 -44 -16 -81t-44 -63.5t-65 -41t-79 -14.5t-83.5 12.5t-76.5 37.5l72 105q37 -20 77 -20q33 0 58 21t25 56q0 25 -13.5 42t-35 27t-48.5 14t-55 4l-5 108q65 0 104 26t39 76q0 33 -24 46t-52 13q-25 0 -48 -11t-40 -28l-71 101q35 37 84 56.5t100 19.5
q39 0 72 -13.5t56.5 -37.5t36.5 -57t13 -72q0 -53 -24.5 -95.5t-71.5 -64.5q56 -14 85.5 -55.5t29.5 -110.5z" />
    <glyph glyph-name="four" unicode="4" horiz-adv-x="387" 
d="M230 -3l-1 281l-214 2l8 410h125l-3 -297l83 4v296l125 4l4 -694z" />
    <glyph glyph-name="five" unicode="5" horiz-adv-x="407" 
d="M46 188q21 -20 50.5 -39t59.5 -19q42 0 69 28.5t27 69.5q0 23 -14 42t-34.5 32.5t-44 21t-43.5 7.5q-24 0 -48.5 -2.5t-47.5 -10.5l7 371l334 2v-134l-223 -3l1 -102q9 1 18 1.5t18 0.5q50 0 89.5 -17.5t66.5 -48t41.5 -72t14.5 -89.5q0 -51 -14 -95t-42 -76.5t-69 -50.5
t-95 -18q-44 0 -89.5 16t-77.5 47z" />
    <glyph glyph-name="six" unicode="6" horiz-adv-x="468" 
d="M381 521q-20 26 -51 38t-63 12q-36 0 -59 -20t-36.5 -50t-20 -64t-8.5 -61q51 46 116 46q96 0 145 -53.5t49 -147.5q0 -45 -13 -86t-38 -71.5t-62.5 -48.5t-85.5 -18q-70 0 -116 33t-73.5 83.5t-38.5 112t-11 118.5q0 60 12 123.5t41 115.5t77 85.5t121 33.5
q53 0 101.5 -19t85.5 -57zM162 198q10 -26 28.5 -46.5t48.5 -20.5q33 0 56.5 21.5t23.5 55.5q0 16 -6 31t-16.5 26t-25 18t-30.5 7q-20 0 -34.5 -8t-24 -20.5t-14.5 -29t-6 -34.5z" />
    <glyph glyph-name="seven" unicode="7" horiz-adv-x="328" 
d="M323 541q0 -1 -5.5 -19t-12 -39.5t-12.5 -40.5t-7 -22l-124 -412h-134l171 539l-190 -2l-4 145l317 1q0 -38 0.5 -75t0.5 -75z" />
    <glyph glyph-name="eight" unicode="8" horiz-adv-x="430" 
d="M412 180q0 -45 -20 -80.5t-52.5 -59.5t-73 -37t-80.5 -13q-87 0 -133 53t-46 137q0 25 5.5 51.5t16.5 50t29 42.5t43 30q-39 27 -59.5 73t-20.5 92q0 41 15 74.5t41.5 57.5t61.5 37t74 13q37 0 69.5 -16t56.5 -42.5t38 -61t14 -70.5q0 -49 -30 -89.5t-73 -60.5
q31 -8 54 -26t38.5 -42.5t23.5 -53.5t8 -59zM265 504q0 23 -16.5 43t-41.5 20q-26 0 -41 -17.5t-15 -43.5q0 -25 15.5 -46.5t35.5 -35.5q26 9 44.5 30t18.5 50zM279 198q0 15 -5 30.5t-14.5 28.5t-23 21t-30.5 8q-32 0 -49.5 -20t-17.5 -51q0 -16 4.5 -32t13 -29t21.5 -21.5
t31 -8.5q14 0 27 6.5t22.5 17t15 23.5t5.5 27z" />
    <glyph glyph-name="nine" unicode="9" horiz-adv-x="427" 
d="M406 358q0 -33 -4 -72t-14 -78.5t-26 -76.5t-40 -65.5t-56.5 -46t-74.5 -17.5q-60 0 -107.5 30t-79.5 80l93 93q13 -23 34 -44t50 -21q26 0 42.5 15.5t26 38.5t13.5 48.5t6 45.5q-18 -14 -39.5 -19.5t-44.5 -5.5q-48 0 -81.5 18t-53.5 48t-29 69t-9 81q0 46 11.5 88
t35.5 74t60.5 51.5t87.5 19.5q39 0 69 -18t52 -47t37 -67t24 -77t13 -77t4 -68zM265 451q0 14 -3.5 34.5t-11.5 39.5t-21 32.5t-32 13.5q-16 0 -27 -7t-18 -18.5t-10.5 -25.5t-3.5 -28t2.5 -31.5t9 -33.5t18.5 -26.5t30 -10.5q26 0 46.5 16t20.5 45z" />
    <glyph glyph-name="colon" unicode=":" horiz-adv-x="196" 
d="M176 72q0 -32 -23.5 -53t-54.5 -21t-54.5 21t-23.5 53t23.5 53.5t54.5 21.5t54.5 -21.5t23.5 -53.5zM176 417q0 -32 -23.5 -53t-54.5 -21t-54.5 21t-23.5 53t23.5 53.5t54.5 21.5t54.5 -21.5t23.5 -53.5z" />
    <glyph glyph-name="semicolon" unicode=";" horiz-adv-x="191" 
d="M167 71q0 -16 -5 -28t-14 -24l-84 -109l-64 32l26 147q5 25 24.5 41.5t45.5 16.5q15 0 28 -6.5t22.5 -17t15 -24t5.5 -28.5zM171 417q0 -32 -23.5 -53t-54.5 -21t-54.5 21t-23.5 53t23.5 53.5t54.5 21.5t54.5 -21.5t23.5 -53.5z" />
    <glyph glyph-name="less" unicode="&#x3c;" horiz-adv-x="310" 
d="M272 45l-247 239l-5 145l234 208l34 -133l-157 -153l179 -161z" />
    <glyph glyph-name="equal" unicode="=" horiz-adv-x="334" 
d="M313 396l-293 1v121h294zM313 196l-293 1v121h294z" />
    <glyph glyph-name="greater" unicode="&#x3e;" horiz-adv-x="310" 
d="M56 45l-34 133l157 153l-179 161l38 145l247 -239l5 -145z" />
    <glyph glyph-name="question" unicode="?" horiz-adv-x="423" 
d="M413 520q0 -55 -15 -88t-37 -54t-48 -35.5t-47 -33t-34 -46.5t-10 -76h-115q-1 8 -1.5 15t-0.5 15q0 45 13 76.5t32 54t41.5 38.5t41.5 32t32 34t13 43q0 30 -22 51t-53 21q-20 0 -34.5 -11.5t-24 -28t-14 -36.5t-4.5 -36l-121 102q11 34 31 63.5t47.5 51t60.5 33.5
t70 12q93 0 146 -52.5t53 -144.5zM269 70q0 -20 -9.5 -36t-24 -27.5t-33 -18t-36.5 -6.5q-14 0 -28.5 4.5t-26.5 13t-19.5 20.5t-7.5 28q0 21 8.5 39t23 30.5t33.5 20t39 7.5q33 0 57 -20t24 -55z" />
    <glyph glyph-name="at" unicode="@" horiz-adv-x="700" 
d="M690 375q0 -34 -10.5 -70.5t-31.5 -67t-51 -50t-69 -19.5q-37 0 -68.5 14t-45.5 52q-38 -25 -83 -25q-60 0 -93 33t-33 94t36.5 99t98.5 38q35 0 69 -14l2 32l106 -1q-5 -36 -8.5 -73.5t-3.5 -73.5q0 -7 0.5 -18.5t3 -23t8 -19.5t16.5 -8q15 0 24 10.5t14.5 25.5t7.5 31
t2 26q0 48 -16 86t-44.5 64.5t-67.5 40.5t-86 14h-4q-48 0 -92 -17.5t-77 -48.5t-52.5 -73.5t-19.5 -93.5q0 -39 11 -75.5t32.5 -64.5t54 -45t76.5 -17q5 0 9 0.5t9 0.5l-5 -119l-7 -1q-69 0 -123.5 26t-92 70.5t-57 103t-19.5 121.5q0 75 31 137t82.5 107t118 70t137.5 25
q69 0 126 -21.5t98.5 -61t64 -95.5t22.5 -125zM405 367q-9 5 -19 9t-21 4q-7 0 -15.5 -1.5t-16 -4.5t-13 -9t-5.5 -15q0 -18 12 -29t30 -11q23 0 47 13v22t1 22z" />
    <glyph glyph-name="A" unicode="A" horiz-adv-x="399" 
d="M258 -5q-2 38 -4 83t-5 83q-10 1 -19 1h-19q-17 0 -34.5 -0.5t-34.5 -1.5q-3 -35 -5 -76.5t-4 -76.5l-148 2q11 84 25 172.5t30.5 177.5t35.5 177t41 169l182 -3q15 -82 28.5 -170t25.5 -177.5t22 -178t19 -171.5zM239 268q-7 75 -16.5 159t-22.5 159q-15 -75 -26.5 -159
t-20.5 -159q44 2 86 0z" />
    <glyph glyph-name="B" unicode="B" horiz-adv-x="429" 
d="M419 208q0 -67 -32.5 -109.5t-82 -67t-109 -33.5t-112.5 -9q-13 0 -26 1t-26 3q-7 174 -10.5 346t-5.5 346q38 8 76.5 9.5t77.5 1.5q40 0 79.5 -11.5t71 -34t51.5 -56.5t20 -78q0 -51 -27.5 -95t-74.5 -63q28 -5 51.5 -18.5t41 -33t27.5 -45t10 -53.5zM266 491
q0 22 -12 35.5t-30 20.5t-38.5 9.5t-36.5 2.5l3 -163q18 4 38 11.5t37 18.5t28 27t11 38zM283 215q0 19 -10.5 31t-26 18.5t-33.5 8.5t-33 2q-7 0 -13.5 -0.5t-12.5 -0.5l3 -159q19 3 41.5 10t41 19t31 29.5t12.5 41.5z" />
    <glyph glyph-name="C" unicode="C" horiz-adv-x="411" 
d="M290 479v16q0 11 -3 24.5t-9 25t-15.5 19.5t-23.5 8q-18 0 -33 -19.5t-27 -50.5t-21 -69.5t-15 -75.5t-9 -69t-3 -50q0 -10 1 -23t5.5 -25t12 -20.5t21.5 -8.5q16 0 29.5 10.5t23.5 26t16.5 32.5t10.5 30l119 -36q-12 -36 -30.5 -78t-45.5 -77.5t-62 -59.5t-79 -24
t-72 32.5t-44 78t-21.5 94t-5.5 81.5q0 35 5 82.5t17 97.5t31 98.5t46.5 87t64 62t83.5 23.5q39 0 65.5 -23t43.5 -56.5t25 -72t10 -69.5z" />
    <glyph glyph-name="D" unicode="D" horiz-adv-x="415" 
d="M405 385q0 -83 -30.5 -150t-83 -117t-121.5 -81.5t-146 -42.5l-6 713q17 2 34.5 3t34.5 1q75 0 134 -23.5t100 -66t62.5 -103t21.5 -133.5zM279 392q0 31 -8.5 60.5t-25.5 53.5t-42 40.5t-57 21.5l6 -400q29 16 52.5 41t40 54.5t25.5 62.5t9 66z" />
    <glyph glyph-name="E" unicode="E" horiz-adv-x="390" 
d="M380 299q0 -19 -3 -35l-243 -9v-12q0 -20 3.5 -38t12.5 -32.5t23.5 -23t36.5 -8.5q31 0 60 11.5t50 34.5l21 -157q-32 -27 -73.5 -41t-83.5 -14q-35 0 -61.5 17t-46 44.5t-32.5 62.5t-20.5 71.5t-10.5 71.5t-3 61q0 31 4 74t13.5 89.5t25.5 92t39.5 81.5t55 58t73.5 22
q48 0 78 -31t47 -75t23.5 -92.5t7.5 -84.5q1 -35 2 -69t1 -69zM252 400v41.5t-3.5 60t-12 53.5t-25.5 23q-23 0 -37 -28.5t-22 -66t-11.5 -74.5t-5.5 -55l116 11q1 8 1 17v18z" />
    <glyph glyph-name="F" unicode="F" horiz-adv-x="348" 
d="M342 550l-195 -5v-127l133 3l-4 -125l-128 -7l8 -291l-138 -1q0 174 1.5 344.5t6.5 344.5q35 1 84 3t93 3q52 1 106 2l39 -1z" />
    <glyph glyph-name="G" unicode="G" horiz-adv-x="408" 
d="M277 452v11q0 14 -1.5 31.5t-6.5 32.5t-16 25.5t-30 10.5q-15 0 -27 -13t-21 -33t-15.5 -44.5t-10.5 -48.5t-6 -44t-2 -31v-17q0 -15 0.5 -42t6 -54t17 -47t33.5 -20q17 0 28.5 11.5t18.5 27.5t11 33.5t7 30.5l-59 3l6 108l183 -5q-1 -28 -5 -66t-12.5 -79.5t-22.5 -82
t-34.5 -72t-49 -51.5t-65.5 -20q-58 0 -94.5 32t-57.5 79.5t-29 101.5t-8 99q0 30 4 70.5t14 83.5t25.5 85t38 75t53.5 53.5t70 20.5q47 0 79.5 -23.5t53 -59.5t30 -78.5t10.5 -81.5z" />
    <glyph glyph-name="H" unicode="H" horiz-adv-x="378" 
d="M237 -8q-4 139 -6 280l-76 -4q0 -68 -0.5 -135.5t-0.5 -135.5l-137 -7v96q0 150 1.5 298.5t6.5 298.5l135 10l-3 -303h74q0 78 0.5 154t2.5 154h123q-1 -57 -1.5 -114t-0.5 -114q0 -239 6 -477z" />
    <glyph glyph-name="I" unicode="I" horiz-adv-x="183" 
d="M195 653q0 -27 -13 -44t-32.5 -27.5t-43.5 -14.5t-46 -4q-15 0 -30.5 3t-29 10t-22 19t-8.5 30q0 23 17 42.5t41.5 33.5t51.5 21.5t46 7.5q36 0 52.5 -21t16.5 -56zM30 -10l-16 516l144 16l6 -523z" />
    <glyph glyph-name="J" unicode="J" horiz-adv-x="422" 
d="M407 336q0 -59 -6 -122.5t-28 -117t-66.5 -88t-120.5 -34.5q-43 0 -76 20.5t-56 52t-36.5 70.5t-17.5 76l142 37q0 -12 2.5 -30.5t8.5 -36t16 -29.5t27 -12q22 0 36 19.5t22 46t10.5 54t2.5 42.5q0 99 -8 196.5t-16 195.5l152 11q5 -88 8.5 -175.5t3.5 -175.5z" />
    <glyph glyph-name="K" unicode="K" horiz-adv-x="386" 
d="M253 -2l-94 301q0 -72 1.5 -142.5t3.5 -142.5l-148 -4v94q0 145 3 288.5t11 287.5l132 9q-1 -35 -1.5 -66.5t-1 -62.5t-1 -62.5t-0.5 -66.5l101 258l135 -22l-130 -300l132 -323z" />
    <glyph glyph-name="L" unicode="L" horiz-adv-x="344" 
d="M330 8q-17 -1 -32.5 -1h-31.5q-60 0 -119 2.5t-119 6.5q-4 154 -6 306t-2 306v56l148 -1q-5 -112 -7.5 -223t-2.5 -223q0 -20 0.5 -40.5t0.5 -40.5l175 -5z" />
    <glyph glyph-name="M" unicode="M" horiz-adv-x="512" 
d="M363 10l4 400l-69 -338l-81 -6l-67 308v-357l-132 -6l6 654h156l74 -317l83 322l152 5l5 -654z" />
    <glyph glyph-name="N" unicode="N" horiz-adv-x="434" 
d="M404 15l-138 -8l-123 368l8 -360l-134 -7l9 678h138l120 -387v395l137 4z" />
    <glyph glyph-name="O" unicode="O" horiz-adv-x="409" 
d="M399 490q0 -33 -4.5 -83.5t-15.5 -107t-28 -114t-42.5 -103.5t-59.5 -75t-78 -29q-31 0 -55 16t-41.5 42t-30 59t-20 67t-11 65.5t-3.5 54.5q0 33 7 78.5t21.5 94t36 96t50 85t63.5 60.5t77 23t68 -24t41 -59t20 -74.5t5 -71.5zM282 460q0 10 -1 27t-5 34t-12.5 29.5
t-22.5 12.5q-20 0 -36 -16t-27.5 -41.5t-19.5 -57t-13.5 -62t-7.5 -56.5t-2 -41q0 -11 0.5 -31.5t4.5 -40.5t12.5 -35t25.5 -15q21 0 36.5 17.5t27 45t19.5 61.5t12.5 66.5t6.5 60t2 42.5z" />
    <glyph glyph-name="P" unicode="P" horiz-adv-x="402" 
d="M392 511q0 -49 -21.5 -91t-56.5 -74.5t-79 -54t-90 -29.5l10 -253l-131 -4l-7 686q37 6 74.5 9.5t74.5 3.5q46 0 87.5 -11t72 -34t48.5 -59.5t18 -88.5zM258 506q0 16 -8.5 29.5t-22 23t-29 14.5t-28.5 5q-16 0 -32 -3l4 -195q23 5 44 16t37 27t25.5 37t9.5 46z" />
    <glyph glyph-name="Q" unicode="Q" horiz-adv-x="413" 
d="M403 450q0 -45 -7 -99.5t-22.5 -109t-39.5 -102.5t-58 -79q23 -28 48 -53t51 -49l-147 -87q-3 38 -10 75t-23 72q-8 -2 -17 -3t-18 -1q-46 0 -75 24t-45.5 59.5t-23 77.5t-6.5 78q0 38 5.5 85.5t18 97t32.5 96.5t48.5 84t66.5 59.5t86 22.5q39 0 65.5 -27.5t42 -66.5
t22 -81.5t6.5 -72.5zM283 419q0 12 -1 33t-6 42t-15 36t-27 15q-19 0 -34 -13.5t-27 -35.5t-20 -49t-13.5 -53t-8 -49.5t-2.5 -37.5q0 -12 1.5 -33.5t6.5 -42.5t15 -36.5t28 -15.5q31 0 51 29t31.5 68.5t16 79.5t4.5 63z" />
    <glyph glyph-name="R" unicode="R" horiz-adv-x="454" 
d="M444 498q0 -45 -13.5 -86.5t-38 -75.5t-60 -59t-79.5 -37l184 -73l-83 -163l-193 153l11 -175l-142 -3l-14 702q42 20 88.5 29t92.5 9q54 0 99 -13t78 -40.5t51.5 -69t18.5 -98.5zM310 474q0 32 -23 55.5t-54 23.5q-9 0 -21.5 -1.5t-24.5 -3.5q-14 -3 -29 -5l-1 -220
q23 8 49.5 22.5t49.5 34t38.5 43.5t15.5 51z" />
    <glyph glyph-name="S" unicode="S" horiz-adv-x="391" 
d="M372 207q0 -46 -15.5 -88t-43.5 -73.5t-65.5 -50.5t-81.5 -19q-24 0 -44 6.5t-38.5 16.5t-36.5 22.5t-37 25.5l42 153q11 -12 25 -25.5t29.5 -25t32 -19.5t32.5 -8q12 0 24 4.5t21.5 13t16 20.5t6.5 27q0 33 -16.5 56.5t-41.5 42.5t-54.5 38t-54.5 43t-41.5 57.5
t-16.5 81.5q0 50 15 88.5t42.5 65t65.5 40t83 13.5q25 0 46 -8t40.5 -21t37.5 -29t37 -32l-82 -125q-19 23 -43 40.5t-53 17.5q-48 0 -48 -55q0 -26 16 -44t40 -34t52.5 -33.5t52.5 -41.5t40 -58t16 -83z" />
    <glyph glyph-name="T" unicode="T" horiz-adv-x="352" 
d="M348 537l-114 5q0 -26 -0.5 -51t-0.5 -51q0 -110 3.5 -229.5t10.5 -229.5l-149 4q12 137 19 281.5t9 281.5l-120 6l-6 140h74q65 0 139 1.5t139 6.5z" />
    <glyph glyph-name="U" unicode="U" horiz-adv-x="429" 
d="M419 608q0 -41 -3 -102t-12.5 -128t-27 -134.5t-46.5 -121t-70.5 -87t-98.5 -33.5q-46 0 -75.5 27t-46 66.5t-23 84.5t-6.5 80q0 51 5.5 110.5t16 119t26.5 116t38 103.5l123 -26q-41 -94 -62 -193t-21 -201q0 -13 1 -31t5.5 -34.5t15 -28t28.5 -11.5q24 0 42.5 26.5
t32 68t22.5 91.5t14.5 97.5t7.5 86.5t2 57q0 23 -4 42l116 -7v-38z" />
    <glyph glyph-name="V" unicode="V" 
d="M410 704q-27 -175 -61.5 -346t-77.5 -342l-200 -12q-23 175 -43.5 347.5t-37.5 347.5l143 13q5 -138 15 -273t26 -272q25 134 47 267t39 269z" />
    <glyph glyph-name="W" unicode="W" horiz-adv-x="597" 
d="M602 704q-17 -174 -40.5 -345.5t-52.5 -345.5h-165l-39 343l-59 -346l-153 -11q-34 170 -58.5 339t-39.5 341l144 30q1 -26 3.5 -60t5.5 -71.5t7 -77t8 -76.5q9 -87 20 -181l57 364l125 -10l47 -354q17 118 28.5 235.5t19.5 236.5z" />
    <glyph glyph-name="X" unicode="X" horiz-adv-x="404" 
d="M394 681q-30 -82 -61 -163.5t-64 -162.5q32 -82 62 -164.5t59 -166.5l-135 -28q-14 46 -28 91t-29 90q-16 -45 -31.5 -89t-29.5 -89l-127 25q29 84 59.5 166.5t64.5 165.5q-32 83 -62.5 166t-59.5 168l130 20q14 -48 28 -96.5t33 -95.5q20 46 35.5 93.5t30.5 95.5z" />
    <glyph glyph-name="Y" unicode="Y" horiz-adv-x="379" 
d="M369 692q-2 -102 -4.5 -203t-6.5 -204q-2 -60 -8.5 -112.5t-28.5 -91.5t-64 -61.5t-114 -22.5q-37 0 -73 6t-70 20l8 174q29 -26 66.5 -45t77.5 -19h4q50 10 69 43.5t23 80.5q1 12 1.5 20t1.5 15.5t1.5 15.5t0.5 20q-5 -19 -20.5 -34t-35.5 -25t-42 -15.5t-41 -5.5
q-32 0 -51 18t-29 44.5t-13 57t-3 54.5q0 64 7 127t20 126l133 8q-17 -57 -26.5 -117.5t-9.5 -120.5q0 -8 0.5 -18t3.5 -20t9 -16.5t17 -6.5q26 0 40.5 22t21 52t8 60.5t1.5 48.5q0 29 -1 57.5t-3 57.5z" />
    <glyph glyph-name="Z" unicode="Z" horiz-adv-x="349" 
d="M334 559q-53 -103 -97.5 -207t-86.5 -212q12 -1 24 -1h24q34 0 65 1.5t66 3.5l-3 -130q-66 -4 -131.5 -6t-131.5 -2l-49 1l2 130q45 106 89 209.5t98 205.5h-8q-45 1 -83.5 -1t-82.5 -6l-1 144q40 2 80 3t80 1q73 0 145 -3z" />
    <glyph glyph-name="bracketleft" unicode="[" horiz-adv-x="245" 
d="M149 668l-9 -610h91l-2 -130h-219l21 862l211 12l3 -124z" />
    <glyph glyph-name="backslash" unicode="\" horiz-adv-x="377" 
d="M268 2l-268 693l122 49l255 -692z" />
    <glyph glyph-name="bracketright" unicode="]" horiz-adv-x="245" 
d="M214 -60l-211 -12l-3 123l96 10l9 610h-91l2 131l219 -1z" />
    <glyph glyph-name="asciicircum" unicode="^" horiz-adv-x="382" 
d="M240 352l-50 220l-54 -224l-121 14l95 330h175l82 -328z" />
    <glyph glyph-name="underscore" unicode="_" horiz-adv-x="294" 
d="M293 -179l-293 6v121l294 -5z" />
    <glyph glyph-name="grave" unicode="`" 
d="M200 479l-143 185l114 67l108 -210z" />
    <glyph glyph-name="a" unicode="a" 
d="M266 -7q-1 71 -6 142q-8 1 -16.5 1h-16.5q-36 0 -70 -3q-5 -33 -9 -65.5t-8 -65.5l-150 -1q27 174 61.5 345.5t77.5 342.5l200 11q23 -174 43.5 -347t37.5 -348zM254 244q-5 79 -12.5 157.5t-16.5 156.5q-14 -78 -27 -156.5t-25 -157.5q9 1 18 1h18h22.5t22.5 -1z" />
    <glyph glyph-name="b" unicode="b" horiz-adv-x="419" 
d="M409 218q0 -53 -27 -90.5t-68.5 -61.5t-90.5 -35.5t-93 -11.5q-28 0 -56.5 1.5t-54.5 9.5q-1 38 -1 76v76q0 246 6 491q29 11 60.5 16t61.5 5q48 0 91 -10.5t74.5 -34t50 -61t18.5 -90.5q0 -42 -22.5 -78.5t-60.5 -54.5q27 -3 48 -17t35.5 -34.5t21.5 -45.5t7 -50z
M263 488q0 22 -10.5 36.5t-26.5 22.5t-35.5 10.5t-37.5 2.5h-6l1 -177q19 5 39.5 13t37 21t27.5 30.5t11 40.5zM276 236q0 18 -9 29.5t-22.5 17.5t-29.5 8t-30 2q-9 0 -18 -0.5t-19 -1.5l1 -131q18 1 40 4.5t41.5 11.5t32.5 22.5t13 37.5z" />
    <glyph glyph-name="c" unicode="c" horiz-adv-x="393" 
d="M262 452v5q0 15 -2.5 33.5t-8 34.5t-14 27t-19.5 11q-22 0 -37.5 -25.5t-25.5 -60.5t-14.5 -71t-4.5 -57q0 -17 0.5 -47t5.5 -59.5t16.5 -51.5t34.5 -22q15 0 26 10t18.5 24t11.5 30t6 28l118 -25q-5 -31 -19 -70.5t-35.5 -75t-51.5 -59.5t-68 -24q-58 0 -94.5 32
t-57.5 79.5t-29 101.5t-8 99q0 31 4.5 72t14 84t25.5 84.5t38.5 74.5t53 53t69.5 20q47 0 79.5 -23.5t53 -59t30 -78.5t10.5 -82z" />
    <glyph glyph-name="d" unicode="d" horiz-adv-x="411" 
d="M401 409q0 -75 -26.5 -146.5t-74 -127t-114 -89.5t-146.5 -34q-5 0 -11 0.5t-11 1.5l4 665q27 9 56.5 15.5t58.5 6.5q59 0 107.5 -24.5t83.5 -65.5t54 -93.5t19 -108.5zM273 396q0 28 -7 59t-22 55.5t-39.5 38.5t-59.5 10l4 -385q32 12 55.5 36t38.5 54.5t22.5 65
t7.5 66.5z" />
    <glyph glyph-name="e" unicode="e" horiz-adv-x="418" 
d="M408 347v-25.5t-2 -25.5l-256 -27q0 -23 2 -45.5t9.5 -40.5t22 -29t40.5 -11q39 0 74 17.5t64 43.5l17 -187q-32 -20 -67 -30t-73 -10q-66 0 -110 24.5t-70.5 65.5t-37.5 95.5t-11 113.5q0 49 6 102t18.5 103.5t31 95.5t44 78.5t58 53.5t71.5 20q36 0 63 -20.5t45.5 -54
t30.5 -75t18.5 -84t9 -81.5t2.5 -67zM278 393q0 13 -1 43t-6 61t-15.5 54.5t-30.5 23.5q-12 0 -21 -12.5t-16 -32t-12 -43.5t-8.5 -46.5t-5.5 -41t-4 -27.5l120 15v6z" />
    <glyph glyph-name="f" unicode="f" horiz-adv-x="349" 
d="M341 555l-176 -5v-78t-1 -78h126l-10 -134l-118 -2q-3 -133 -9 -262l-143 8q9 173 14 343.5t6 343.5q75 4 143 6t143 1h33z" />
    <glyph glyph-name="g" unicode="g" horiz-adv-x="411" 
d="M290 479v16q0 10 -2 23.5t-7 25.5t-14 20t-23 8q-22 0 -39 -17.5t-29 -45t-20 -61t-12.5 -66.5t-6.5 -61.5t-2 -44.5q0 -12 0.5 -31.5t5 -38t14 -32t26.5 -13.5q18 0 31 13t21.5 31t13.5 37.5t7 33.5l-67 -3l11 108l198 3v-7q0 -32 -7 -73.5t-21 -85t-34.5 -85.5
t-47.5 -75t-60.5 -53t-72.5 -20q-50 0 -79 31t-43 76t-17.5 94t-3.5 85t5 83.5t16.5 97.5t30 98.5t46 86.5t64.5 61.5t85 23.5q39 0 65.5 -23t43.5 -56.5t25 -72t10 -69.5z" />
    <glyph glyph-name="h" unicode="h" horiz-adv-x="428" 
d="M418 701q-7 -137 -10 -273t-3 -273v-81t1 -80l-144 1q0 135 3 270q-12 1 -24 1h-24q-15 0 -30.5 -0.5t-30.5 -1.5q-4 -129 -6 -259l-135 -3v39q0 164 3 325.5t10 325.5l146 8q-9 -159 -15 -313q28 2 55 2.5t54 -1.5q4 156 15 314z" />
    <glyph glyph-name="i" unicode="i" horiz-adv-x="187" 
d="M204 633q0 -23 -11 -39.5t-28 -27t-38 -15.5t-41 -5q-46 0 -71 21.5t-25 69.5q0 23 9.5 39.5t25.5 26.5t36 14.5t40 4.5t38.5 -6t33 -17t23 -27.5t8.5 -38.5zM165 5l-142 -5l-4 511l149 6z" />
    <glyph glyph-name="j" unicode="j" horiz-adv-x="420" 
d="M410 243q0 -51 -11.5 -102.5t-37.5 -93t-67.5 -67.5t-101.5 -26q-57 0 -106.5 24.5t-85.5 67.5l88 138q17 -24 42.5 -43t56.5 -19q29 0 44.5 20.5t22.5 49t8 58.5t1 50q0 99 -15 198.5t-29 196.5l146 22q7 -51 15 -112t15 -124t11 -124.5t4 -113.5z" />
    <glyph glyph-name="k" unicode="k" horiz-adv-x="417" 
d="M281 356l138 -322l-133 -47l-122 292l-4 -285l-144 -2l12 698l143 2l-5 -285l131 305l130 -25z" />
    <glyph glyph-name="l" unicode="l" horiz-adv-x="346" 
d="M331 2h-58q-63 0 -124 2t-124 5v299q0 96 -1.5 190.5t-6.5 189.5l154 2q0 -136 -1.5 -270t-2.5 -270l169 -5z" />
    <glyph glyph-name="m" unicode="m" horiz-adv-x="565" 
d="M539 -8l-133 -4l4 477l-80 -457l-101 2l-68 450l-2 -463h-143l10 699l206 -9l46 -357l80 372l191 4z" />
    <glyph glyph-name="n" unicode="n" horiz-adv-x="443" 
d="M410 -1l-136 -4l-124 392l5 -374l-136 -6l6 685l143 5l126 -395l-4 401l138 4z" />
    <glyph glyph-name="o" unicode="o" horiz-adv-x="425" 
d="M415 443q0 -33 -5 -79t-16.5 -97t-29.5 -101t-44 -90t-61 -64.5t-80 -24.5q-46 0 -78 29.5t-52.5 72t-29.5 90t-9 83.5q0 33 5.5 79t18 95.5t32 98.5t46.5 87.5t62.5 62.5t79.5 24q48 0 79 -28t49 -69t25.5 -87t7.5 -82zM302 394q0 15 -2.5 37.5t-9.5 43.5t-20 36t-34 15
q-29 0 -48 -23.5t-30.5 -55.5t-16.5 -66t-5 -55q0 -13 2.5 -36t9 -45.5t18.5 -39t31 -16.5q31 0 51 23.5t32 56.5t17 68t5 57z" />
    <glyph glyph-name="p" unicode="p" horiz-adv-x="383" 
d="M373 493q0 -49 -18.5 -91t-49.5 -75t-72.5 -56t-86.5 -33l6 -219l-135 -8l9 665q32 8 67.5 15.5t70.5 7.5q98 0 153.5 -51.5t55.5 -154.5zM253 490q0 38 -18 58t-58 20q-11 0 -20.5 -2t-19.5 -5l7 -201q109 21 109 130z" />
    <glyph glyph-name="q" unicode="q" horiz-adv-x="395" 
d="M298 -95l-62 112q-16 -12 -35.5 -19.5t-39.5 -7.5q-44 0 -73 30.5t-46.5 73.5t-24.5 90.5t-7 80.5t4.5 78.5t15.5 94.5t28 97.5t42.5 87t59 62t77.5 23.5q48 0 76.5 -30t44 -73t20.5 -91t5 -83q0 -43 -3 -86.5t-11.5 -86.5t-23 -84t-37.5 -78l102 -87zM285 408
q0 15 -2 33.5t-8.5 34.5t-18.5 27t-32 11q-28 0 -47 -26t-30 -61.5t-16 -72t-5 -57.5q0 -13 2.5 -33t8.5 -39t17.5 -32.5t29.5 -13.5q30 0 49.5 27.5t31 65t16 76t4.5 60.5z" />
    <glyph glyph-name="r" unicode="r" horiz-adv-x="427" 
d="M335 16l-182 154l3 -162l-136 -8l2 663q34 18 77 27t82 9q107 0 169.5 -56.5t62.5 -166.5q0 -85 -42.5 -144.5t-115.5 -96.5l162 -69zM186 564h-17.5t-17.5 -1l3 -243q27 7 51.5 21t42.5 34t29 44.5t11 52.5q0 44 -30 68t-72 24z" />
    <glyph glyph-name="s" unicode="s" horiz-adv-x="378" 
d="M290 500q-6 9 -17 20.5t-24 22.5t-26.5 18.5t-24.5 7.5q-18 0 -30 -12.5t-12 -29.5q0 -26 15.5 -50.5t39 -49.5t50.5 -51.5t50.5 -56.5t39 -63.5t15.5 -72.5q0 -42 -15.5 -78.5t-42.5 -64t-63.5 -43t-78.5 -15.5q-31 0 -56 9t-47 23t-42 32.5t-41 38.5l79 113
q10 -13 23.5 -27t29 -26t32.5 -19.5t35 -7.5q26 0 41 15t15 41q0 24 -16.5 49t-41 51.5t-53 56t-53 62.5t-41 70.5t-16.5 81.5q0 40 13 72.5t36.5 56t56 36t72.5 12.5q33 0 59 -10t48 -27t41 -39t38 -45z" />
    <glyph glyph-name="t" unicode="t" horiz-adv-x="340" 
d="M222 546q3 -134 8 -274.5t13 -274.5l-140 -1q7 112 10.5 231t2.5 231v92l-113 5l-3 140q23 -1 54 -1.5t54 -0.5q24 0 53.5 0.5t59.5 1t59.5 1.5t53.5 3l6 -157z" />
    <glyph glyph-name="u" unicode="u" horiz-adv-x="443" 
d="M433 398q0 -36 -4.5 -78.5t-15 -85.5t-28 -83t-43.5 -70.5t-61.5 -49t-81.5 -18.5q-59 0 -95.5 31t-57.5 77.5t-28.5 100.5t-7.5 99q0 44 6.5 90.5t16.5 93.5t23 92.5t27 87.5l131 -28q-14 -35 -27 -76t-23 -83.5t-16 -85t-6 -79.5q0 -20 1 -46t8 -49t21.5 -39t40.5 -16
q30 0 47 19.5t25.5 47.5t11 59t2.5 53q0 73 -3 144.5t-16 143.5l127 22q17 -67 21.5 -136t4.5 -138z" />
    <glyph glyph-name="v" unicode="v" horiz-adv-x="389" 
d="M399 673q-22 -168 -55.5 -332.5t-77.5 -328.5l-182 3q-30 165 -53.5 329.5t-40.5 332.5l135 10q7 -136 21.5 -268.5t36.5 -266.5q26 130 43.5 260.5t24.5 263.5z" />
    <glyph glyph-name="w" unicode="w" horiz-adv-x="537" 
d="M542 679q-9 -167 -22.5 -331t-34.5 -329l-137 -3l-73 335l-80 -337l-124 -7q-25 165 -44.5 328.5t-31.5 329.5l129 14q5 -108 14 -215t23 -214l59 294q20 3 41 4t42 1h24l60 -274q11 102 14.5 204t5.5 205z" />
    <glyph glyph-name="x" unicode="x" horiz-adv-x="437" 
d="M290 4q-16 51 -33 106.5t-36 106.5q-20 -49 -38.5 -103t-36.5 -104l-136 26q34 88 72 173.5t75 172.5q-31 75 -67 148l-72 146l138 23q18 -38 35.5 -81.5t34.5 -81.5q19 41 38 86t39 85l122 -29q-35 -73 -70 -145.5t-66 -147.5q35 -86 70.5 -172.5t67.5 -174.5z" />
    <glyph glyph-name="y" unicode="y" horiz-adv-x="370" 
d="M360 583q0 -72 -3 -143.5t-5 -143.5q-1 -61 -6.5 -116.5t-27 -98t-64.5 -67.5t-119 -25q-66 0 -125 22l12 189q19 -35 50 -54t70 -19q29 0 48.5 10.5t31.5 27.5t17 40t7 48l4 80q-12 -42 -48 -71t-81 -29q-34 0 -55.5 19.5t-34 49t-17 63t-4.5 60.5q0 65 3 130.5
t14 129.5l129 -5q-12 -48 -17 -97.5t-5 -99.5q0 -12 0.5 -29.5t5 -34t13.5 -28t26 -11.5q22 0 34.5 22.5t18 52.5t6.5 60t1 45q0 30 -1 59.5t-6 58.5l127 8q0 -26 0.5 -51.5t0.5 -51.5z" />
    <glyph glyph-name="z" unicode="z" horiz-adv-x="361" 
d="M349 545q-11 -26 -24.5 -57.5t-28 -65.5t-29.5 -68t-29 -66q-33 -75 -69 -152l169 2l-4 -142l-319 -2l3 137q14 25 30 56t32.5 64.5t32.5 68.5t30 68q33 77 67 158q-33 -1 -65 -2q-27 -1 -58 -1.5t-54 -2.5l-1 145q69 4 138.5 6t139.5 2h41z" />
    <glyph glyph-name="braceleft" unicode="{" horiz-adv-x="315" 
d="M315 -37q-25 -23 -55 -37t-64 -14q-62 0 -100 39t-38 100q0 24 6 48t12.5 46t12.5 42t6 37q0 16 -7 29t-17.5 23t-24 17.5t-26.5 12.5l6 122q2 0 4.5 -0.5t4.5 -0.5q24 0 43.5 17.5t19.5 42.5q0 17 -6 36t-12.5 39.5t-12.5 42.5t-6 45q0 31 10.5 59t30 48.5t46.5 32.5
t59 12q28 0 54 -8.5t50 -21.5l-36 -122q-10 11 -24 16.5t-29 5.5q-23 0 -32.5 -14t-9.5 -35q0 -18 5.5 -33.5t12 -31.5t12 -34t5.5 -40q0 -88 -83 -123q35 -14 57 -40.5t22 -65.5q0 -23 -5 -44t-11.5 -40.5t-11.5 -38t-5 -35.5q0 -20 12 -36.5t34 -16.5q14 0 31.5 11
t28.5 19z" />
    <glyph glyph-name="bar" unicode="|" horiz-adv-x="187" 
d="M20 -46l14 782h127l6 -779z" />
    <glyph glyph-name="braceright" unicode="}" horiz-adv-x="315" 
d="M290 285q-4 1 -10 1q-24 0 -43.5 -17t-19.5 -42q0 -17 6 -36t12.5 -39.5t12.5 -42.5t6 -46q0 -31 -10.5 -58.5t-30 -48t-46.5 -32.5t-59 -12q-28 0 -54 8t-50 21l36 122q10 -11 24 -16.5t29 -5.5q23 0 32.5 14t9.5 36q0 18 -5.5 33.5t-12 31.5t-12 33.5t-5.5 40.5
q0 87 83 122q-35 15 -57 41.5t-22 64.5q0 23 5 44t11.5 41t11.5 38.5t5 35.5q0 20 -12 36t-33 16q-14 0 -32 -10.5t-29 -18.5l-31 111q25 22 55 36.5t64 14.5q31 0 56.5 -10.5t43.5 -29t28 -44t10 -55.5q0 -24 -6 -48t-12.5 -46.5t-12.5 -43t-6 -36.5t7 -29t17.5 -23
t24 -17.5t26.5 -11.5z" />
    <glyph glyph-name="asciitilde" unicode="~" horiz-adv-x="430" 
d="M400 441q10 -34 10 -74q0 -31 -7 -59.5t-22.5 -51t-40 -36t-59.5 -13.5q-39 0 -59.5 18.5t-32.5 41t-20.5 41t-21.5 18.5q-11 0 -14 -11t-3 -19q0 -17 5 -33.5t11 -31.5l-110 -19q-8 18 -12 37.5t-4 39.5q0 32 8 59.5t24 48t41 32.5t59 12q28 0 46 -8.5t29.5 -21.5
t18.5 -28.5t12.5 -28.5t11.5 -21.5t15 -8.5q11 0 13.5 11.5t2.5 19.5q0 18 -5 38t-11 37z" />
    <glyph glyph-name="uni00A0" unicode="&#xa0;" horiz-adv-x="230" 
 />
    <glyph glyph-name="exclamdown" unicode="&#xa1;" horiz-adv-x="216" 
d="M196 431q0 -20 -9 -36.5t-23.5 -28t-33 -18t-37.5 -6.5q-29 0 -50.5 18.5t-21.5 48.5q0 21 9 37.5t24 28.5t33.5 18.5t37.5 6.5q30 0 50.5 -19t20.5 -50zM20 -218l43 507l113 -8l18 -484z" />
    <glyph glyph-name="cent" unicode="&#xa2;" horiz-adv-x="376" 
d="M371 301q-5 -31 -19 -61t-35 -54.5t-48 -41.5t-59 -23l5 -170l-101 -4l24 173q-36 7 -60.5 30t-39.5 54t-21.5 66.5t-6.5 67.5q0 37 9.5 81t28.5 84t48 71t68 42l-8 157l108 -3l-22 -154q25 -7 45 -24t35 -39.5t25 -47.5t15 -49l-116 -35q0 10 -2.5 21.5t-8.5 21
t-14.5 15.5t-20.5 6q-22 0 -36 -17t-22 -40t-11 -47.5t-3 -40.5q0 -12 2 -28.5t7.5 -32t15.5 -26.5t27 -11q12 0 22.5 9.5t18 22.5t12.5 27t8 23z" />
    <glyph glyph-name="sterling" unicode="&#xa3;" horiz-adv-x="354" 
d="M38 117l-16 136q13 12 24 29.5t16 34.5h-52l3 83l43 1q-7 25 -13 51t-6 52q0 30 11 56t30.5 45.5t46 30.5t56.5 11q33 0 58 -13.5t42.5 -35.5t28.5 -50.5t17 -57.5l-101 -34q0 24 -10 45.5t-38 21.5q-17 0 -27.5 -9.5t-10.5 -26.5q0 -21 9.5 -42.5t14.5 -41.5l75 2
l-1 -90h-66q-2 -25 -12.5 -47.5t-26.5 -42.5l198 16l3 -119z" />
    <glyph glyph-name="currency" unicode="&#xa4;" horiz-adv-x="340" 
d="M283 490q10 -28 14 -57.5t4 -51.5q0 -32 -6.5 -72.5t-22.5 -78.5l51 -102l-80 -40l-32 61q-30 -22 -71 -22q-16 0 -29 6l-26 -54l-81 39l48 103q-8 25 -10.5 48t-2.5 40q0 25 5.5 60.5t17.5 72.5l-58 114l85 47l30 -61q14 14 31.5 22t37.5 8q15 0 26 -4l30 65l89 -39z
M182 473q-17 0 -28 -17.5t-18 -40.5t-9.5 -47t-2.5 -36q0 -10 1.5 -24.5t5.5 -28t12 -23.5t21 -10q17 0 27.5 15t16 35t7.5 41.5t2 33.5q0 9 -0.5 26.5t-3.5 34t-10.5 29t-20.5 12.5z" />
    <glyph glyph-name="yen" unicode="&#xa5;" horiz-adv-x="337" 
d="M89 341l-79 282l115 8l41 -180l37 172l124 -2l-94 -280h78v-106h-89l-3 -119h-122l3 119h-82v106h71z" />
    <glyph glyph-name="brokenbar" unicode="&#xa6;" horiz-adv-x="196" 
d="M162 367l-126 -2v370l140 2zM20 -46l14 354h127l6 -351z" />
    <glyph glyph-name="section" unicode="&#xa7;" horiz-adv-x="399" 
d="M314 525q-6 7 -18 20.5t-26 26.5t-28.5 22.5t-24.5 9.5q-11 0 -19 -8.5t-8 -19.5q0 -17 14 -33.5t35 -34.5t46 -38t46 -43t35 -50t14 -59q0 -35 -15.5 -67t-36.5 -59q26 -38 26 -86q0 -29 -10.5 -55.5t-28.5 -46.5t-43.5 -32t-55.5 -12q-29 0 -58.5 9t-57 24t-52 34
t-43.5 39l77 103q8 -7 23 -20.5t31.5 -26.5t32 -23t25.5 -10q11 0 19.5 8t8.5 19q0 15 -15 32t-37.5 36t-49 41t-49 47t-37.5 54.5t-15 63.5q0 38 15 73t41 62q-11 17 -17 36.5t-6 39.5q0 28 12.5 54t33 46t46.5 32t54 12q30 0 58 -10.5t53.5 -28t47.5 -38.5t42 -42z
M255 314q0 16 -11.5 32t-27.5 31.5t-33 29t-28 24.5q-8 -14 -8 -30q0 -20 10 -37t24.5 -33t31 -29.5t29.5 -25.5q5 8 9 17.5t4 20.5z" />
    <glyph glyph-name="dieresis" unicode="&#xa8;" 
d="M359 579q0 -29 -21 -48t-49 -19t-49 19t-21 48t21 47.5t49 18.5t49 -18.5t21 -47.5zM173 573q0 -27 -20 -45.5t-46 -18.5t-46 18.5t-20 45.5q0 28 20 46t46 18t46 -18t20 -46z" />
    <glyph glyph-name="copyright" unicode="&#xa9;" horiz-adv-x="370" 
d="M360 367q0 -42 -13.5 -79t-37.5 -64.5t-56 -43.5t-68 -16t-68 16t-56 43.5t-37.5 64.5t-13.5 79t13.5 79t37.5 64.5t56 43.5t68 16t68 -16t56 -43.5t37.5 -64.5t13.5 -79zM315 369q0 31 -10 58t-28 47t-41.5 31.5t-50.5 11.5t-50.5 -11.5t-41 -31.5t-27.5 -47t-10 -58
t10 -58t27.5 -47t41 -31.5t50.5 -11.5t50.5 11.5t41.5 31.5t28 47t10 58zM207 403v2q0 11 -4 24.5t-12 13.5t-13.5 -9t-9 -22t-5 -26t-1.5 -20v-17t1.5 -21.5t6 -18.5t12.5 -8q11 0 16 12t7 21l42 -9q-2 -11 -7 -25.5t-12.5 -27.5t-18.5 -21.5t-25 -8.5q-21 0 -34 11.5
t-20.5 29t-10.5 37t-3 35.5q0 17 3.5 41t12.5 46t23 37.5t35 15.5q17 0 28.5 -8.5t19 -21.5t11 -28.5t3.5 -29.5z" />
    <glyph glyph-name="ordfeminine" unicode="&#xaa;" horiz-adv-x="304" 
d="M193 195q-1 25 -1.5 50t-2.5 50h-23h-24.5t-24.5 -2l-6 -46l-6 -46h-105q19 122 43 241.5t54 239.5l140 8q16 -122 30.5 -243t26.5 -243zM185 371q-4 55 -9 110t-11 110q-11 -55 -20 -110t-17 -110q7 1 13 1h13q8 0 15.5 -0.5t15.5 -0.5z" />
    <glyph glyph-name="guillemotleft" unicode="&#xab;" horiz-adv-x="459" 
d="M222 147l-222 195l203 215l40 -110l-104 -93l115 -92zM417 162l-222 195l203 215l40 -110l-104 -93l115 -92z" />
    <glyph glyph-name="logicalnot" unicode="&#xac;" horiz-adv-x="420" 
d="M272 208v130l-251 -2l-1 127l380 -5v-250h-128z" />
    <glyph glyph-name="uni00AD" unicode="&#xad;" horiz-adv-x="334" 
d="M313 296l-293 6v121l294 -5z" />
    <glyph glyph-name="registered" unicode="&#xae;" horiz-adv-x="230" 
d="M220 559q0 -26 -8.5 -48t-22.5 -38.5t-33 -26t-41 -9.5t-41 9.5t-33.5 26t-22.5 38.5t-8 48q0 25 8 47t22.5 38.5t33.5 26t41 9.5t41 -9.5t33 -26t22.5 -38.5t8.5 -47zM193 560q0 18 -6 34.5t-16.5 28.5t-25 19t-30.5 7t-30.5 -7t-25 -19t-16.5 -28.5t-6 -34.5
q0 -19 6 -35t16.5 -28t25 -19t30.5 -7t30.5 7t25 19t16.5 28t6 35zM145 488l-39 33l1 -35l-30 -2l1 143q16 8 34 8q23 0 36.5 -12.5t13.5 -35.5q0 -36 -34 -52l35 -15zM135 586q0 10 -6.5 15t-15.5 5h-7v-53q12 3 20.5 12t8.5 21z" />
    <glyph glyph-name="macron" unicode="&#xaf;" 
d="M328 538h-253l-5 100h260z" />
    <glyph glyph-name="degree" unicode="&#xb0;" horiz-adv-x="284" 
d="M274 572q0 -27 -10.5 -50.5t-28.5 -40.5t-42 -27t-51 -10t-51 10t-42 27t-28.5 40.5t-10.5 50.5t10.5 50t28.5 40.5t42 27t51 9.5t51 -9.5t42 -27t28.5 -40.5t10.5 -50zM185 567q0 17 -11.5 28t-28.5 11q-16 0 -28 -11t-12 -28t12 -28t28 -11q17 0 28.5 11t11.5 28z" />
    <glyph glyph-name="plusminus" unicode="&#xb1;" horiz-adv-x="351" 
d="M243 302l2 -88l-132 -4v92l-91 1l-2 120h93v99l126 3l2 -101h88l2 -122h-88zM320 13l-294 6v121l295 -5z" />
    <glyph glyph-name="uni00B2" unicode="&#xb2;" horiz-adv-x="257" 
d="M234 289l-234 -3v7q0 56 25 101.5t55 80.5q15 18 29.5 33t25.5 28q24 27 24 39q0 17 -11.5 28.5t-28.5 11.5q-14 0 -29.5 -13.5t-31.5 -33.5l-51 67q26 34 57.5 53t67.5 19q27 0 48.5 -10.5t36.5 -28t22.5 -41t7.5 -48.5q0 -28 -19.5 -55t-42.5 -53q-19 -20 -42 -45
t-34 -51l127 1z" />
    <glyph glyph-name="uni00B3" unicode="&#xb3;" horiz-adv-x="250" 
d="M113 274q-26 0 -52.5 8t-50.5 26l49 70q25 -13 47 -13q18 0 31.5 11.5t13.5 29.5q0 26 -26.5 36.5t-64.5 10.5l-4 75q42 0 64 15t22 42q0 16 -11.5 23t-28.5 7q-26 0 -54 -26l-48 69q24 25 54.5 37t62.5 12q49 0 80.5 -31.5t31.5 -80.5q0 -30 -13 -55t-37 -40
q61 -21 61 -101q0 -28 -10 -51t-27.5 -39.5t-40.5 -25.5t-49 -9z" />
    <glyph glyph-name="acute" unicode="&#xb4;" 
d="M200 479l-79 42l108 210l114 -67z" />
    <glyph glyph-name="mu" unicode="&#xb5;" horiz-adv-x="455" 
d="M445 398q0 -37 -4 -80t-14 -85.5t-27 -82.5t-43 -70.5t-62 -48.5t-84 -18q-26 0 -51 12.5t-38 36.5v-3q0 -57 3.5 -112.5t12.5 -111.5l-121 -4q-4 56 -5.5 111t-1.5 111q0 87 3 173t13 172q9 74 27.5 145t41.5 142l120 -28q-14 -35 -27 -76t-22.5 -83.5t-15.5 -85
t-6 -79.5q0 -20 3 -44.5t11.5 -45.5t24.5 -35.5t42 -14.5q29 0 47.5 18t29 44.5t14.5 55.5t4 51q0 72 -3 144t-15 144l116 22q18 -67 22.5 -136t4.5 -138z" />
    <glyph glyph-name="paragraph" unicode="&#xb6;" horiz-adv-x="592" 
d="M450 32l-10 495l-65 6l5 -506l-129 -11l1 183h-9q-50 -1 -92.5 15t-74 45.5t-49 70.5t-17.5 91q0 75 31.5 122t81 74t111.5 36.5t123 9.5q51 0 103 -4.5t100 -18.5l14 -596zM251 530q-26 0 -48.5 -8t-39.5 -23t-27 -37t-10 -49q0 -49 31.5 -79.5t81.5 -30.5h7.5t8.5 1
l2 226h-6z" />
    <glyph glyph-name="periodcentered" unicode="&#xb7;" horiz-adv-x="196" 
d="M176 372q0 -32 -23.5 -53t-54.5 -21t-54.5 21t-23.5 53t23.5 53.5t54.5 21.5t54.5 -21.5t23.5 -53.5z" />
    <glyph glyph-name="cedilla" unicode="&#xb8;" 
d="M316 -147q0 -23 -10 -41.5t-27.5 -32t-39.5 -21t-46 -7.5q-26 0 -52.5 4.5t-48.5 18.5l26 88q14 -9 28.5 -15t31.5 -6q12 0 22.5 6.5t10.5 21.5q0 17 -19 24t-37 7h-17t-17 -1l37 101h77l-15 -41q42 -8 69 -34.5t27 -71.5z" />
    <glyph glyph-name="uni00B9" unicode="&#xb9;" horiz-adv-x="157" 
d="M48 602l-46 -9l-2 95l137 15l-8 -430l-88 -3z" />
    <glyph glyph-name="ordmasculine" unicode="&#xba;" horiz-adv-x="303" 
d="M293 510q0 -23 -3.5 -55.5t-11.5 -68t-20.5 -70.5t-30.5 -62.5t-42.5 -45t-55.5 -17.5q-33 0 -55.5 20.5t-36.5 50.5t-20.5 63t-6.5 58q0 23 4 55.5t12.5 67.5t22 69t32.5 61t44 44t56 17q33 0 55 -20t34.5 -48.5t17.5 -61t5 -57.5zM214 476q0 10 -1.5 26t-6.5 30.5
t-14 25t-24 10.5q-20 0 -33.5 -16.5t-21.5 -39t-11.5 -46t-3.5 -38.5q0 -9 2 -25t6.5 -32t13 -27.5t21.5 -11.5q21 0 35.5 16.5t22.5 40t11.5 48t3.5 39.5z" />
    <glyph glyph-name="guillemotright" unicode="&#xbb;" horiz-adv-x="459" 
d="M255 162l-39 110l103 93l-114 92l32 115l222 -195zM60 147l-39 110l103 93l-114 92l32 115l222 -195z" />
    <glyph glyph-name="onequarter" unicode="&#xbc;" horiz-adv-x="601" 
d="M175 1l-85 30l248 672l93 -29zM48 602l-46 -9l-2 95l137 15l-8 -430l-88 -3zM493 162l-128 1l5 256h85l-2 -178l40 2v178l85 2l3 -426l-87 -4z" />
    <glyph glyph-name="onehalf" unicode="&#xbd;" horiz-adv-x="597" 
d="M175 1l-85 30l248 672l93 -29zM48 602l-46 -9l-2 95l137 15l-8 -430l-88 -3zM574 6l-234 -3v7q0 56 25 101.5t55 80.5q15 18 29.5 33t25.5 28q24 27 24 39q0 17 -11.5 28.5t-28.5 11.5q-14 0 -29.5 -13.5t-31.5 -33.5l-51 67q26 34 57.5 53t67.5 19q27 0 48.5 -10.5
t36.5 -28t22.5 -41t7.5 -48.5q0 -28 -19.5 -55t-42.5 -53q-19 -20 -42 -45t-34 -51l127 1z" />
    <glyph glyph-name="threequarters" unicode="&#xbe;" horiz-adv-x="666" 
d="M240 1l-85 30l248 672l93 -29zM558 162l-128 1l5 256h85l-2 -178l40 2v178l85 2l3 -426l-87 -4zM113 274q-26 0 -52.5 8t-50.5 26l49 70q25 -13 47 -13q18 0 31.5 11.5t13.5 29.5q0 26 -26.5 36.5t-64.5 10.5l-4 75q42 0 64 15t22 42q0 16 -11.5 23t-28.5 7
q-26 0 -54 -26l-48 69q24 25 54.5 37t62.5 12q49 0 80.5 -31.5t31.5 -80.5q0 -30 -13 -55t-37 -40q61 -21 61 -101q0 -28 -10 -51t-27.5 -39.5t-40.5 -25.5t-49 -9z" />
    <glyph glyph-name="questiondown" unicode="&#xbf;" horiz-adv-x="423" 
d="M339 451q0 -21 -8.5 -39t-23 -30.5t-33 -20t-38.5 -7.5q-34 0 -58 20t-24 55q0 19 9.5 35.5t24.5 28t33.5 18t36.5 6.5q14 0 28.5 -4.5t26 -13t19 -20.5t7.5 -28zM418 -58q-11 -35 -31 -64.5t-47.5 -50.5t-60.5 -33t-70 -12q-93 0 -146 52.5t-53 144.5q0 55 15 87.5
t37.5 53.5t48 36t46.5 33.5t34 46.5t10 76h115q3 -15 3 -30q0 -45 -13 -76.5t-32 -54t-42 -38.5t-42 -32t-32 -34t-13 -43q0 -30 22.5 -51t52.5 -21q20 0 34.5 11.5t24 28t14 36t4.5 36.5z" />
    <glyph glyph-name="Agrave" unicode="&#xc0;" horiz-adv-x="399" 
d="M258 -5q-2 38 -4 83t-5 83q-10 1 -19 1h-19q-17 0 -34.5 -0.5t-34.5 -1.5q-3 -35 -5 -76.5t-4 -76.5l-148 2q11 84 25 172.5t30.5 177.5t35.5 177t41 169l182 -3q15 -82 28.5 -170t25.5 -177.5t22 -178t19 -171.5zM239 268q-7 75 -16.5 159t-22.5 159q-15 -75 -26.5 -159
t-20.5 -159q44 2 86 0zM210 734l-143 185l114 67l108 -210z" />
    <glyph glyph-name="Aacute" unicode="&#xc1;" horiz-adv-x="399" 
d="M258 -5q-2 38 -4 83t-5 83q-10 1 -19 1h-19q-17 0 -34.5 -0.5t-34.5 -1.5q-3 -35 -5 -76.5t-4 -76.5l-148 2q11 84 25 172.5t30.5 177.5t35.5 177t41 169l182 -3q15 -82 28.5 -170t25.5 -177.5t22 -178t19 -171.5zM239 268q-7 75 -16.5 159t-22.5 159q-15 -75 -26.5 -159
t-20.5 -159q44 2 86 0zM210 734l-79 42l108 210l114 -67z" />
    <glyph glyph-name="Acircumflex" unicode="&#xc2;" horiz-adv-x="399" 
d="M258 -5q-2 38 -4 83t-5 83q-10 1 -19 1h-19q-17 0 -34.5 -0.5t-34.5 -1.5q-3 -35 -5 -76.5t-4 -76.5l-148 2q11 84 25 172.5t30.5 177.5t35.5 177t41 169l182 -3q15 -82 28.5 -170t25.5 -177.5t22 -178t19 -171.5zM239 268q-7 75 -16.5 159t-22.5 159q-15 -75 -26.5 -159
t-20.5 -159q44 2 86 0zM270 734l-53 122l-74 -109l-85 48l116 167l96 -7l92 -172z" />
    <glyph glyph-name="Atilde" unicode="&#xc3;" horiz-adv-x="399" 
d="M258 -5q-2 38 -4 83t-5 83q-10 1 -19 1h-19q-17 0 -34.5 -0.5t-34.5 -1.5q-3 -35 -5 -76.5t-4 -76.5l-148 2q11 84 25 172.5t30.5 177.5t35.5 177t41 169l182 -3q15 -82 28.5 -170t25.5 -177.5t22 -178t19 -171.5zM239 268q-7 75 -16.5 159t-22.5 159q-15 -75 -26.5 -159
t-20.5 -159q44 2 86 0zM376 890q0 -26 -6 -50.5t-19.5 -43.5t-34 -30.5t-50.5 -11.5q-22 0 -37 7.5t-25 18.5t-16.5 24.5t-11.5 24.5t-10.5 18.5t-13.5 7.5q-9 0 -11.5 -9.5t-2.5 -16.5q0 -14 4 -27.5t9 -27.5l-93 -16q-8 15 -11 32t-3 34q0 27 6.5 50.5t20 41t35 27.5
t50.5 10q36 0 53.5 -15.5t27 -34.5t15 -34.5t17.5 -15.5q9 0 11.5 10t2.5 16q0 17 -4.5 33t-9.5 31l98 10q9 -32 9 -63z" />
    <glyph glyph-name="Adieresis" unicode="&#xc4;" horiz-adv-x="399" 
d="M258 -5q-2 38 -4 83t-5 83q-10 1 -19 1h-19q-17 0 -34.5 -0.5t-34.5 -1.5q-3 -35 -5 -76.5t-4 -76.5l-148 2q11 84 25 172.5t30.5 177.5t35.5 177t41 169l182 -3q15 -82 28.5 -170t25.5 -177.5t22 -178t19 -171.5zM239 268q-7 75 -16.5 159t-22.5 159q-15 -75 -26.5 -159
t-20.5 -159q44 2 86 0zM369 834q0 -29 -21 -48t-49 -19t-49 19t-21 48t21 47.5t49 18.5t49 -18.5t21 -47.5zM183 828q0 -27 -20 -45.5t-46 -18.5t-46 18.5t-20 45.5q0 28 20 46t46 18t46 -18t20 -46z" />
    <glyph glyph-name="Aring" unicode="&#xc5;" horiz-adv-x="399" 
d="M339 782q0 -26 -10.5 -49.5t-27.5 -40.5q15 -81 28 -168t24.5 -175t21.5 -175t19 -169l-136 -10q-2 38 -4 83t-5 83q-10 1 -19 1h-19q-17 0 -34.5 -0.5t-34.5 -1.5q-3 -35 -5 -76.5t-4 -76.5l-148 2q10 82 23.5 168.5t30 174.5t35 174t39.5 166q-17 17 -27.5 40t-10.5 50
t10.5 50t28.5 40.5t42 27t51 9.5t51 -9.5t42 -27t28.5 -40.5t10.5 -50zM239 268q-7 75 -16.5 159t-22.5 159q-15 -75 -26.5 -159t-20.5 -159q44 2 86 0zM250 777q0 17 -11.5 28t-28.5 11q-16 0 -28 -11t-12 -28t12 -28t28 -11q17 0 28.5 11t11.5 28z" />
    <glyph glyph-name="AE" unicode="&#xc6;" horiz-adv-x="635" 
d="M249 268q-8 80 -16.5 159t-22.5 159q-16 -79 -27 -158.5t-20 -159.5q44 2 86 0zM625 299q0 -19 -3 -35l-243 -9v-16q0 -18 3.5 -35.5t12.5 -31.5t24 -22.5t36 -8.5q31 0 60 11.5t50 34.5l21 -157q-32 -27 -73.5 -41t-83.5 -14q-32 0 -61.5 18t-53 45t-38.5 60t-17 63h-40
h-35t-32 -1q-6 -77 -9 -153l-148 2q23 177 54.5 350.5t77.5 345.5l182 -3l15 -84q22 41 57 71.5t85 30.5q48 0 78 -31t47 -75t23.5 -92.5t7.5 -84.5q1 -35 2 -69t1 -69zM497 422q0 10 -0.5 36t-4.5 52.5t-12 47t-24 20.5q-15 0 -26.5 -13.5t-19.5 -35t-13.5 -47t-8.5 -50.5
t-5 -46t-3 -32l116 11q1 14 1 28.5v28.5z" />
    <glyph glyph-name="Ccedilla" unicode="&#xc7;" horiz-adv-x="411" 
d="M277 -147q0 -23 -10 -41.5t-27.5 -32t-39.5 -21t-46 -7.5q-26 0 -52.5 4.5t-48.5 18.5l26 88q14 -9 28.5 -15t31.5 -6q12 0 22.5 6.5t10.5 21.5q0 17 -19 24t-37 7h-17t-17 -1l34 93q-33 14 -53.5 48.5t-32 76t-16 83.5t-4.5 71q0 35 5 82.5t17 97.5t31 98.5t46.5 87
t64 62t83.5 23.5q39 0 65.5 -23t43.5 -56.5t25 -72t10 -69.5l-111 -22v16q0 11 -3 24.5t-9 25t-15.5 19.5t-23.5 8q-18 0 -33 -19.5t-27 -50.5t-21 -69.5t-15 -75.5t-9 -69t-3 -50q0 -10 1 -23t5.5 -25t12 -20.5t21.5 -8.5q16 0 29.5 10.5t23.5 26t16.5 32.5t10.5 30
l119 -36q-11 -32 -27 -68.5t-38 -69.5t-50 -59t-63 -36l-11 -32q42 -8 69 -34.5t27 -71.5z" />
    <glyph glyph-name="Egrave" unicode="&#xc8;" horiz-adv-x="390" 
d="M380 299q0 -19 -3 -35l-243 -9v-12q0 -20 3.5 -38t12.5 -32.5t23.5 -23t36.5 -8.5q31 0 60 11.5t50 34.5l21 -157q-32 -27 -73.5 -41t-83.5 -14q-35 0 -61.5 17t-46 44.5t-32.5 62.5t-20.5 71.5t-10.5 71.5t-3 61q0 31 4 74t13.5 89.5t25.5 92t39.5 81.5t55 58t73.5 22
q48 0 78 -31t47 -75t23.5 -92.5t7.5 -84.5q1 -35 2 -69t1 -69zM252 400v41.5t-3.5 60t-12 53.5t-25.5 23q-23 0 -37 -28.5t-22 -66t-11.5 -74.5t-5.5 -55l116 11q1 8 1 17v18zM230 750l-143 185l114 67l108 -210z" />
    <glyph glyph-name="Eacute" unicode="&#xc9;" horiz-adv-x="390" 
d="M380 299q0 -19 -3 -35l-243 -9v-12q0 -20 3.5 -38t12.5 -32.5t23.5 -23t36.5 -8.5q31 0 60 11.5t50 34.5l21 -157q-32 -27 -73.5 -41t-83.5 -14q-35 0 -61.5 17t-46 44.5t-32.5 62.5t-20.5 71.5t-10.5 71.5t-3 61q0 31 4 74t13.5 89.5t25.5 92t39.5 81.5t55 58t73.5 22
q48 0 78 -31t47 -75t23.5 -92.5t7.5 -84.5q1 -35 2 -69t1 -69zM252 400v41.5t-3.5 60t-12 53.5t-25.5 23q-23 0 -37 -28.5t-22 -66t-11.5 -74.5t-5.5 -55l116 11q1 8 1 17v18zM230 750l-79 42l108 210l114 -67z" />
    <glyph glyph-name="Ecircumflex" unicode="&#xca;" horiz-adv-x="390" 
d="M380 299q0 -19 -3 -35l-243 -9v-12q0 -20 3.5 -38t12.5 -32.5t23.5 -23t36.5 -8.5q31 0 60 11.5t50 34.5l21 -157q-32 -27 -73.5 -41t-83.5 -14q-35 0 -61.5 17t-46 44.5t-32.5 62.5t-20.5 71.5t-10.5 71.5t-3 61q0 31 4 74t13.5 89.5t25.5 92t39.5 81.5t55 58t73.5 22
q48 0 78 -31t47 -75t23.5 -92.5t7.5 -84.5q1 -35 2 -69t1 -69zM252 400v41.5t-3.5 60t-12 53.5t-25.5 23q-23 0 -37 -28.5t-22 -66t-11.5 -74.5t-5.5 -55l116 11q1 8 1 17v18zM290 750l-53 122l-74 -109l-85 48l116 167l96 -7l92 -172z" />
    <glyph glyph-name="Edieresis" unicode="&#xcb;" horiz-adv-x="390" 
d="M380 299q0 -19 -3 -35l-243 -9v-12q0 -20 3.5 -38t12.5 -32.5t23.5 -23t36.5 -8.5q31 0 60 11.5t50 34.5l21 -157q-32 -27 -73.5 -41t-83.5 -14q-35 0 -61.5 17t-46 44.5t-32.5 62.5t-20.5 71.5t-10.5 71.5t-3 61q0 31 4 74t13.5 89.5t25.5 92t39.5 81.5t55 58t73.5 22
q48 0 78 -31t47 -75t23.5 -92.5t7.5 -84.5q1 -35 2 -69t1 -69zM252 400v41.5t-3.5 60t-12 53.5t-25.5 23q-23 0 -37 -28.5t-22 -66t-11.5 -74.5t-5.5 -55l116 11q1 8 1 17v18zM389 850q0 -29 -21 -48t-49 -19t-49 19t-21 48t21 47.5t49 18.5t49 -18.5t21 -47.5zM203 844
q0 -27 -20 -45.5t-46 -18.5t-46 18.5t-20 45.5q0 28 20 46t46 18t46 -18t20 -46z" />
    <glyph glyph-name="Igrave" unicode="&#xcc;" horiz-adv-x="187" 
d="M32 -10l-16 676l144 16l6 -683zM88 705l-143 185l114 67l108 -210z" />
    <glyph glyph-name="Iacute" unicode="&#xcd;" horiz-adv-x="187" 
d="M32 -10l-16 676l144 16l6 -683zM88 705l-79 42l108 210l114 -67z" />
    <glyph glyph-name="Icircumflex" unicode="&#xce;" horiz-adv-x="187" 
d="M32 -10l-16 676l144 16l6 -683zM148 705l-53 122l-74 -109l-85 48l116 167l96 -7l92 -172z" />
    <glyph glyph-name="Idieresis" unicode="&#xcf;" horiz-adv-x="187" 
d="M32 -10l-16 676l144 16l6 -683zM247 805q0 -29 -21 -48t-49 -19t-49 19t-21 48t21 47.5t49 18.5t49 -18.5t21 -47.5zM61 799q0 -27 -20 -45.5t-46 -18.5t-46 18.5t-20 45.5q0 28 20 46t46 18t46 -18t20 -46z" />
    <glyph glyph-name="Eth" unicode="&#xd0;" horiz-adv-x="452" 
d="M0 312v121h57l-2 274q17 2 34.5 3t34.5 1q75 0 134 -23.5t100 -66t62.5 -103t21.5 -133.5q0 -83 -30.5 -150t-83 -117t-121.5 -81.5t-146 -42.5l-3 318h-58zM243 311h-56l2 -143q29 16 52.5 41t40 54.5t25.5 62.5t9 66q0 31 -8.5 60.5t-25.5 53.5t-42 40.5t-57 21.5
l2 -135h59z" />
    <glyph glyph-name="Ntilde" unicode="&#xd1;" horiz-adv-x="434" 
d="M404 15l-138 -8l-123 368l8 -360l-134 -7l9 678h138l120 -387v395l137 4zM386 880q0 -26 -6 -50.5t-19.5 -43.5t-34 -30.5t-50.5 -11.5q-22 0 -37 7.5t-25 18.5t-16.5 24.5t-11.5 24.5t-10.5 18.5t-13.5 7.5q-9 0 -11.5 -9.5t-2.5 -16.5q0 -14 4 -27.5t9 -27.5l-93 -16
q-8 15 -11 32t-3 34q0 27 6.5 50.5t20 41t35 27.5t50.5 10q36 0 53.5 -15.5t27 -34.5t15 -34.5t17.5 -15.5q9 0 11.5 10t2.5 16q0 17 -4.5 33t-9.5 31l98 10q9 -32 9 -63z" />
    <glyph glyph-name="Ograve" unicode="&#xd2;" horiz-adv-x="409" 
d="M399 490q0 -33 -4.5 -83.5t-15.5 -107t-28 -114t-42.5 -103.5t-59.5 -75t-78 -29q-31 0 -55 16t-41.5 42t-30 59t-20 67t-11 65.5t-3.5 54.5q0 33 7 78.5t21.5 94t36 96t50 85t63.5 60.5t77 23t68 -24t41 -59t20 -74.5t5 -71.5zM282 460q0 10 -1 27t-5 34t-12.5 29.5
t-22.5 12.5q-20 0 -36 -16t-27.5 -41.5t-19.5 -57t-13.5 -62t-7.5 -56.5t-2 -41q0 -11 0.5 -31.5t4.5 -40.5t12.5 -35t25.5 -15q21 0 36.5 17.5t27 45t19.5 61.5t12.5 66.5t6.5 60t2 42.5zM271 749l-143 185l114 67l108 -210z" />
    <glyph glyph-name="Oacute" unicode="&#xd3;" horiz-adv-x="409" 
d="M399 490q0 -33 -4.5 -83.5t-15.5 -107t-28 -114t-42.5 -103.5t-59.5 -75t-78 -29q-31 0 -55 16t-41.5 42t-30 59t-20 67t-11 65.5t-3.5 54.5q0 33 7 78.5t21.5 94t36 96t50 85t63.5 60.5t77 23t68 -24t41 -59t20 -74.5t5 -71.5zM282 460q0 10 -1 27t-5 34t-12.5 29.5
t-22.5 12.5q-20 0 -36 -16t-27.5 -41.5t-19.5 -57t-13.5 -62t-7.5 -56.5t-2 -41q0 -11 0.5 -31.5t4.5 -40.5t12.5 -35t25.5 -15q21 0 36.5 17.5t27 45t19.5 61.5t12.5 66.5t6.5 60t2 42.5zM271 749l-79 42l108 210l114 -67z" />
    <glyph glyph-name="Ocircumflex" unicode="&#xd4;" horiz-adv-x="409" 
d="M399 490q0 -33 -4.5 -83.5t-15.5 -107t-28 -114t-42.5 -103.5t-59.5 -75t-78 -29q-31 0 -55 16t-41.5 42t-30 59t-20 67t-11 65.5t-3.5 54.5q0 33 7 78.5t21.5 94t36 96t50 85t63.5 60.5t77 23t68 -24t41 -59t20 -74.5t5 -71.5zM282 460q0 10 -1 27t-5 34t-12.5 29.5
t-22.5 12.5q-20 0 -36 -16t-27.5 -41.5t-19.5 -57t-13.5 -62t-7.5 -56.5t-2 -41q0 -11 0.5 -31.5t4.5 -40.5t12.5 -35t25.5 -15q21 0 36.5 17.5t27 45t19.5 61.5t12.5 66.5t6.5 60t2 42.5zM331 749l-53 122l-74 -109l-85 48l116 167l96 -7l92 -172z" />
    <glyph glyph-name="Otilde" unicode="&#xd5;" horiz-adv-x="409" 
d="M399 490q0 -33 -4.5 -83.5t-15.5 -107t-28 -114t-42.5 -103.5t-59.5 -75t-78 -29q-31 0 -55 16t-41.5 42t-30 59t-20 67t-11 65.5t-3.5 54.5q0 33 7 78.5t21.5 94t36 96t50 85t63.5 60.5t77 23t68 -24t41 -59t20 -74.5t5 -71.5zM282 460q0 10 -1 27t-5 34t-12.5 29.5
t-22.5 12.5q-20 0 -36 -16t-27.5 -41.5t-19.5 -57t-13.5 -62t-7.5 -56.5t-2 -41q0 -11 0.5 -31.5t4.5 -40.5t12.5 -35t25.5 -15q21 0 36.5 17.5t27 45t19.5 61.5t12.5 66.5t6.5 60t2 42.5zM437 905q0 -26 -6 -50.5t-19.5 -43.5t-34 -30.5t-50.5 -11.5q-22 0 -37 7.5
t-25 18.5t-16.5 24.5t-11.5 24.5t-10.5 18.5t-13.5 7.5q-9 0 -11.5 -9.5t-2.5 -16.5q0 -14 4 -27.5t9 -27.5l-93 -16q-8 15 -11 32t-3 34q0 27 6.5 50.5t20 41t35 27.5t50.5 10q36 0 53.5 -15.5t27 -34.5t15 -34.5t17.5 -15.5q9 0 11.5 10t2.5 16q0 17 -4.5 33t-9.5 31
l98 10q9 -32 9 -63z" />
    <glyph glyph-name="Odieresis" unicode="&#xd6;" horiz-adv-x="409" 
d="M399 490q0 -33 -4.5 -83.5t-15.5 -107t-28 -114t-42.5 -103.5t-59.5 -75t-78 -29q-31 0 -55 16t-41.5 42t-30 59t-20 67t-11 65.5t-3.5 54.5q0 33 7 78.5t21.5 94t36 96t50 85t63.5 60.5t77 23t68 -24t41 -59t20 -74.5t5 -71.5zM282 460q0 10 -1 27t-5 34t-12.5 29.5
t-22.5 12.5q-20 0 -36 -16t-27.5 -41.5t-19.5 -57t-13.5 -62t-7.5 -56.5t-2 -41q0 -11 0.5 -31.5t4.5 -40.5t12.5 -35t25.5 -15q21 0 36.5 17.5t27 45t19.5 61.5t12.5 66.5t6.5 60t2 42.5zM430 849q0 -29 -21 -48t-49 -19t-49 19t-21 48t21 47.5t49 18.5t49 -18.5t21 -47.5z
M244 843q0 -27 -20 -45.5t-46 -18.5t-46 18.5t-20 45.5q0 28 20 46t46 18t46 -18t20 -46z" />
    <glyph glyph-name="multiply" unicode="&#xd7;" horiz-adv-x="351" 
d="M261 361l63 -62l-86 -88l-61 62l-61 -63l-96 90l65 65l-64 65l83 87l66 -66l70 70l91 -87z" />
    <glyph glyph-name="Oslash" unicode="&#xd8;" horiz-adv-x="409" 
d="M234 563q-19 -3 -33.5 -20.5t-25.5 -43.5t-19 -56.5t-12.5 -60t-6.5 -54.5t-2 -39v-26zM173 168q1 -1 5 -1q21 0 36.5 17.5t27 45t19.5 61.5t12.5 66.5t6.5 60t2 42.5v9.5t-1 12.5zM369 648q18 -36 24 -79.5t6 -78.5q0 -33 -4.5 -83.5t-15.5 -107t-28 -114t-42.5 -103.5
t-59.5 -75t-78 -29q-15 0 -32 5l-21 -60l-108 50l38 114q-11 25 -18 51.5t-11.5 52.5t-6.5 49.5t-2 41.5q0 33 7 77t20.5 91.5t34 94.5t48 84.5t61.5 62t74 27.5l22 66l122 -49z" />
    <glyph glyph-name="Ugrave" unicode="&#xd9;" horiz-adv-x="429" 
d="M419 608q0 -41 -3 -102t-12.5 -128t-27 -134.5t-46.5 -121t-70.5 -87t-98.5 -33.5q-46 0 -75.5 27t-46 66.5t-23 84.5t-6.5 80q0 51 5.5 110.5t16 119t26.5 116t38 103.5l123 -26q-41 -94 -62 -193t-21 -201q0 -13 1 -31t5.5 -34.5t15 -28t28.5 -11.5q24 0 42.5 26.5
t32 68t22.5 91.5t14.5 97.5t7.5 86.5t2 57q0 23 -4 42l116 -7v-38zM278 717l-143 185l114 67l108 -210z" />
    <glyph glyph-name="Uacute" unicode="&#xda;" horiz-adv-x="429" 
d="M419 608q0 -41 -3 -102t-12.5 -128t-27 -134.5t-46.5 -121t-70.5 -87t-98.5 -33.5q-46 0 -75.5 27t-46 66.5t-23 84.5t-6.5 80q0 51 5.5 110.5t16 119t26.5 116t38 103.5l123 -26q-41 -94 -62 -193t-21 -201q0 -13 1 -31t5.5 -34.5t15 -28t28.5 -11.5q24 0 42.5 26.5
t32 68t22.5 91.5t14.5 97.5t7.5 86.5t2 57q0 23 -4 42l116 -7v-38zM278 717l-79 42l108 210l114 -67z" />
    <glyph glyph-name="Ucircumflex" unicode="&#xdb;" horiz-adv-x="429" 
d="M419 608q0 -41 -3 -102t-12.5 -128t-27 -134.5t-46.5 -121t-70.5 -87t-98.5 -33.5q-46 0 -75.5 27t-46 66.5t-23 84.5t-6.5 80q0 51 5.5 110.5t16 119t26.5 116t38 103.5l123 -26q-41 -94 -62 -193t-21 -201q0 -13 1 -31t5.5 -34.5t15 -28t28.5 -11.5q24 0 42.5 26.5
t32 68t22.5 91.5t14.5 97.5t7.5 86.5t2 57q0 23 -4 42l116 -7v-38zM338 717l-53 122l-74 -109l-85 48l116 167l96 -7l92 -172z" />
    <glyph glyph-name="Udieresis" unicode="&#xdc;" horiz-adv-x="429" 
d="M419 608q0 -41 -3 -102t-12.5 -128t-27 -134.5t-46.5 -121t-70.5 -87t-98.5 -33.5q-46 0 -75.5 27t-46 66.5t-23 84.5t-6.5 80q0 51 5.5 110.5t16 119t26.5 116t38 103.5l123 -26q-41 -94 -62 -193t-21 -201q0 -13 1 -31t5.5 -34.5t15 -28t28.5 -11.5q24 0 42.5 26.5
t32 68t22.5 91.5t14.5 97.5t7.5 86.5t2 57q0 23 -4 42l116 -7v-38zM437 817q0 -29 -21 -48t-49 -19t-49 19t-21 48t21 47.5t49 18.5t49 -18.5t21 -47.5zM251 811q0 -27 -20 -45.5t-46 -18.5t-46 18.5t-20 45.5q0 28 20 46t46 18t46 -18t20 -46z" />
    <glyph glyph-name="Yacute" unicode="&#xdd;" horiz-adv-x="379" 
d="M369 692q-2 -102 -4.5 -203t-6.5 -204q-2 -60 -8.5 -112.5t-28.5 -91.5t-64 -61.5t-114 -22.5q-37 0 -73 6t-70 20l8 174q29 -26 66.5 -45t77.5 -19h4q50 10 69 43.5t23 80.5q1 12 1.5 20t1.5 15.5t1.5 15.5t0.5 20q-5 -19 -20.5 -34t-35.5 -25t-42 -15.5t-41 -5.5
q-32 0 -51 18t-29 44.5t-13 57t-3 54.5q0 64 7 127t20 126l133 8q-17 -57 -26.5 -117.5t-9.5 -120.5q0 -8 0.5 -18t3.5 -20t9 -16.5t17 -6.5q26 0 40.5 22t21 52t8 60.5t1.5 48.5q0 29 -1 57.5t-3 57.5zM210 717l-79 42l108 210l114 -67z" />
    <glyph glyph-name="Thorn" unicode="&#xde;" horiz-adv-x="386" 
d="M376 382q0 -49 -20 -87.5t-52 -68.5t-73 -51t-83 -34l2 -143l-125 -9l-15 706l129 13l2 -147q8 0 15.5 0.5t15.5 0.5q43 0 80.5 -10t65 -32t43 -56t15.5 -82zM258 376q0 18 -7 29.5t-18.5 18t-25.5 9t-29 2.5q-17 0 -35 -3l3 -169q18 7 38 17t36.5 24t27 32t10.5 40z" />
    <glyph glyph-name="germandbls" unicode="&#xdf;" horiz-adv-x="769" 
d="M290 500q-6 9 -17 20.5t-24 22.5t-26.5 18.5t-24.5 7.5q-18 0 -30 -12.5t-12 -29.5q0 -26 15.5 -50.5t39 -49.5t50.5 -51.5t50.5 -56.5t39 -63.5t15.5 -72.5q0 -42 -15.5 -78.5t-42.5 -64t-63.5 -43t-78.5 -15.5q-31 0 -56 9t-47 23t-42 32.5t-41 38.5l79 113
q10 -13 23.5 -27t29 -26t32.5 -19.5t35 -7.5q26 0 41 15t15 41q0 24 -16.5 49t-41 51.5t-53 56t-53 62.5t-41 70.5t-16.5 81.5q0 40 13 72.5t36.5 56t56 36t72.5 12.5q33 0 59 -10t48 -27t41 -39t38 -45zM750 207q0 -46 -15.5 -88t-43.5 -73.5t-65.5 -50.5t-81.5 -19
q-24 0 -44 6.5t-38.5 16.5t-36.5 22.5t-37 25.5l42 153q11 -12 25 -25.5t29.5 -25t32 -19.5t32.5 -8q12 0 24 4.5t21.5 13t16 20.5t6.5 27q0 33 -16.5 56.5t-41.5 42.5t-54.5 38t-54.5 43t-41.5 57.5t-16.5 81.5q0 50 15 88.5t42.5 65t65.5 40t83 13.5q25 0 46 -8t40.5 -21
t37.5 -29t37 -32l-82 -125q-19 23 -43 40.5t-53 17.5q-48 0 -48 -55q0 -26 16 -44t40 -34t52.5 -33.5t52.5 -41.5t40 -58t16 -83z" />
    <glyph glyph-name="agrave" unicode="&#xe0;" 
d="M266 -7q-1 71 -6 142q-8 1 -16.5 1h-16.5q-36 0 -70 -3q-5 -33 -9 -65.5t-8 -65.5l-150 -1q27 174 61.5 345.5t77.5 342.5l200 11q23 -174 43.5 -347t37.5 -348zM254 244q-5 79 -12.5 157.5t-16.5 156.5q-14 -78 -27 -156.5t-25 -157.5q9 1 18 1h18h22.5t22.5 -1z
M233 725l-143 185l114 67l108 -210z" />
    <glyph glyph-name="aacute" unicode="&#xe1;" 
d="M266 -7q-1 71 -6 142q-8 1 -16.5 1h-16.5q-36 0 -70 -3q-5 -33 -9 -65.5t-8 -65.5l-150 -1q27 174 61.5 345.5t77.5 342.5l200 11q23 -174 43.5 -347t37.5 -348zM254 244q-5 79 -12.5 157.5t-16.5 156.5q-14 -78 -27 -156.5t-25 -157.5q9 1 18 1h18h22.5t22.5 -1z
M233 725l-79 42l108 210l114 -67z" />
    <glyph glyph-name="acircumflex" unicode="&#xe2;" 
d="M266 -7q-1 71 -6 142q-8 1 -16.5 1h-16.5q-36 0 -70 -3q-5 -33 -9 -65.5t-8 -65.5l-150 -1q27 174 61.5 345.5t77.5 342.5l200 11q23 -174 43.5 -347t37.5 -348zM254 244q-5 79 -12.5 157.5t-16.5 156.5q-14 -78 -27 -156.5t-25 -157.5q9 1 18 1h18h22.5t22.5 -1z
M293 725l-53 122l-74 -109l-85 48l116 167l96 -7l92 -172z" />
    <glyph glyph-name="atilde" unicode="&#xe3;" 
d="M266 -7q-1 71 -6 142q-8 1 -16.5 1h-16.5q-36 0 -70 -3q-5 -33 -9 -65.5t-8 -65.5l-150 -1q27 174 61.5 345.5t77.5 342.5l200 11q23 -174 43.5 -347t37.5 -348zM254 244q-5 79 -12.5 157.5t-16.5 156.5q-14 -78 -27 -156.5t-25 -157.5q9 1 18 1h18h22.5t22.5 -1z
M399 881q0 -26 -6 -50.5t-19.5 -43.5t-34 -30.5t-50.5 -11.5q-22 0 -37 7.5t-25 18.5t-16.5 24.5t-11.5 24.5t-10.5 18.5t-13.5 7.5q-9 0 -11.5 -9.5t-2.5 -16.5q0 -14 4 -27.5t9 -27.5l-93 -16q-8 15 -11 32t-3 34q0 27 6.5 50.5t20 41t35 27.5t50.5 10q36 0 53.5 -15.5
t27 -34.5t15 -34.5t17.5 -15.5q9 0 11.5 10t2.5 16q0 17 -4.5 33t-9.5 31l98 10q9 -32 9 -63z" />
    <glyph glyph-name="adieresis" unicode="&#xe4;" 
d="M266 -7q-1 71 -6 142q-8 1 -16.5 1h-16.5q-36 0 -70 -3q-5 -33 -9 -65.5t-8 -65.5l-150 -1q27 174 61.5 345.5t77.5 342.5l200 11q23 -174 43.5 -347t37.5 -348zM254 244q-5 79 -12.5 157.5t-16.5 156.5q-14 -78 -27 -156.5t-25 -157.5q9 1 18 1h18h22.5t22.5 -1z
M392 825q0 -29 -21 -48t-49 -19t-49 19t-21 48t21 47.5t49 18.5t49 -18.5t21 -47.5zM206 819q0 -27 -20 -45.5t-46 -18.5t-46 18.5t-20 45.5q0 28 20 46t46 18t46 -18t20 -46z" />
    <glyph glyph-name="aring" unicode="&#xe5;" 
d="M358 768q0 -23 -7.5 -42.5t-20.5 -35.5q23 -172 43 -342.5t37 -342.5l-144 -12q-1 71 -6 142q-8 1 -16.5 1h-16.5q-36 0 -70 -3q-5 -33 -9 -65.5t-8 -65.5l-150 -1q26 173 60.5 342.5t76.5 339.5q-15 17 -24 38.5t-9 46.5q0 27 10.5 50t28.5 40.5t42 27t51 9.5t51 -9.5
t42 -27t28.5 -40.5t10.5 -50zM254 244q-5 79 -12.5 157.5t-16.5 156.5q-14 -78 -27 -156.5t-25 -157.5q9 1 18 1h18h22.5t22.5 -1zM269 763q0 17 -11.5 28t-28.5 11q-16 0 -28 -11t-12 -28t12 -28t28 -11q17 0 28.5 11t11.5 28z" />
    <glyph glyph-name="ae" unicode="&#xe6;" horiz-adv-x="663" 
d="M254 244q-5 79 -12.5 157.5t-16.5 156.5q-14 -78 -27 -156.5t-25 -157.5q9 1 18 1h18h22.5t22.5 -1zM653 347v-25.5t-2 -25.5l-256 -27q0 -20 1.5 -42.5t8.5 -41t22 -30.5t42 -12q39 0 74 17.5t64 43.5l17 -187q-31 -20 -66.5 -30t-73.5 -10q-32 0 -70 11.5t-71.5 32.5
t-57 50t-25.5 64h-39q-17 0 -34 -0.5t-30 -1.5q-5 -33 -9 -65.5t-8 -65.5l-150 -1q27 174 61.5 345.5t77.5 342.5l200 11l9 -70q24 41 60 70t86 29q37 0 64 -21t45.5 -54.5t30.5 -75.5t18.5 -84.5t8.5 -81t2 -65.5zM523 393q0 13 -1 43.5t-6 61t-15.5 54t-30.5 23.5
q-12 0 -21.5 -12.5t-16.5 -32t-12 -43.5t-8.5 -46.5t-5.5 -41t-3 -27.5l120 15v6z" />
    <glyph glyph-name="ccedilla" unicode="&#xe7;" horiz-adv-x="393" 
d="M313 -127q0 -23 -10 -41.5t-27.5 -32t-39.5 -21t-46 -7.5q-26 0 -52.5 4.5t-48.5 18.5l26 88q14 -9 28.5 -15t31.5 -6q12 0 22.5 6.5t10.5 21.5q0 17 -19 24t-37 7h-17t-17 -1l34 94q-43 13 -70.5 47.5t-43.5 79t-22 92t-6 87.5q0 31 4.5 72t14 84t25.5 84.5t38.5 74.5
t53 53t69.5 20q47 0 79.5 -23.5t53 -59t30 -78.5t10.5 -82l-126 -12v5q0 15 -2.5 33.5t-8 34.5t-14 27t-19.5 11q-22 0 -37.5 -25.5t-25.5 -60.5t-14.5 -71t-4.5 -57q0 -17 0.5 -47t5.5 -59.5t16.5 -51.5t34.5 -22q15 0 26 10t18.5 24t11.5 30t6 28l118 -25
q-5 -28 -16.5 -63t-29.5 -67.5t-42.5 -58.5t-55.5 -36l-12 -32q42 -8 69 -34.5t27 -71.5z" />
    <glyph glyph-name="egrave" unicode="&#xe8;" horiz-adv-x="418" 
d="M408 347v-25.5t-2 -25.5l-256 -27q0 -23 2 -45.5t9.5 -40.5t22 -29t40.5 -11q39 0 74 17.5t64 43.5l17 -187q-32 -20 -67 -30t-73 -10q-66 0 -110 24.5t-70.5 65.5t-37.5 95.5t-11 113.5q0 49 6 102t18.5 103.5t31 95.5t44 78.5t58 53.5t71.5 20q36 0 63 -20.5t45.5 -54
t30.5 -75t18.5 -84t9 -81.5t2.5 -67zM278 393q0 13 -1 43t-6 61t-15.5 54.5t-30.5 23.5q-12 0 -21 -12.5t-16 -32t-12 -43.5t-8.5 -46.5t-5.5 -41t-4 -27.5l120 15v6zM239 759l-143 185l114 67l108 -210z" />
    <glyph glyph-name="eacute" unicode="&#xe9;" horiz-adv-x="418" 
d="M408 347v-25.5t-2 -25.5l-256 -27q0 -23 2 -45.5t9.5 -40.5t22 -29t40.5 -11q39 0 74 17.5t64 43.5l17 -187q-32 -20 -67 -30t-73 -10q-66 0 -110 24.5t-70.5 65.5t-37.5 95.5t-11 113.5q0 49 6 102t18.5 103.5t31 95.5t44 78.5t58 53.5t71.5 20q36 0 63 -20.5t45.5 -54
t30.5 -75t18.5 -84t9 -81.5t2.5 -67zM278 393q0 13 -1 43t-6 61t-15.5 54.5t-30.5 23.5q-12 0 -21 -12.5t-16 -32t-12 -43.5t-8.5 -46.5t-5.5 -41t-4 -27.5l120 15v6zM239 759l-79 42l108 210l114 -67z" />
    <glyph glyph-name="ecircumflex" unicode="&#xea;" horiz-adv-x="418" 
d="M408 347v-25.5t-2 -25.5l-256 -27q0 -23 2 -45.5t9.5 -40.5t22 -29t40.5 -11q39 0 74 17.5t64 43.5l17 -187q-32 -20 -67 -30t-73 -10q-66 0 -110 24.5t-70.5 65.5t-37.5 95.5t-11 113.5q0 49 6 102t18.5 103.5t31 95.5t44 78.5t58 53.5t71.5 20q36 0 63 -20.5t45.5 -54
t30.5 -75t18.5 -84t9 -81.5t2.5 -67zM278 393q0 13 -1 43t-6 61t-15.5 54.5t-30.5 23.5q-12 0 -21 -12.5t-16 -32t-12 -43.5t-8.5 -46.5t-5.5 -41t-4 -27.5l120 15v6zM299 759l-53 122l-74 -109l-85 48l116 167l96 -7l92 -172z" />
    <glyph glyph-name="edieresis" unicode="&#xeb;" horiz-adv-x="418" 
d="M408 347v-25.5t-2 -25.5l-256 -27q0 -23 2 -45.5t9.5 -40.5t22 -29t40.5 -11q39 0 74 17.5t64 43.5l17 -187q-32 -20 -67 -30t-73 -10q-66 0 -110 24.5t-70.5 65.5t-37.5 95.5t-11 113.5q0 49 6 102t18.5 103.5t31 95.5t44 78.5t58 53.5t71.5 20q36 0 63 -20.5t45.5 -54
t30.5 -75t18.5 -84t9 -81.5t2.5 -67zM278 393q0 13 -1 43t-6 61t-15.5 54.5t-30.5 23.5q-12 0 -21 -12.5t-16 -32t-12 -43.5t-8.5 -46.5t-5.5 -41t-4 -27.5l120 15v6zM398 859q0 -29 -21 -48t-49 -19t-49 19t-21 48t21 47.5t49 18.5t49 -18.5t21 -47.5zM212 853
q0 -27 -20 -45.5t-46 -18.5t-46 18.5t-20 45.5q0 28 20 46t46 18t46 -18t20 -46z" />
    <glyph glyph-name="igrave" unicode="&#xec;" horiz-adv-x="187" 
d="M168 5l-142 -5l-4 676l149 6zM95 709l-143 185l114 67l108 -210z" />
    <glyph glyph-name="iacute" unicode="&#xed;" horiz-adv-x="187" 
d="M168 5l-142 -5l-4 676l149 6zM95 709l-79 42l108 210l114 -67z" />
    <glyph glyph-name="icircumflex" unicode="&#xee;" horiz-adv-x="187" 
d="M168 5l-142 -5l-4 676l149 6zM155 709l-53 122l-74 -109l-85 48l116 167l96 -7l92 -172z" />
    <glyph glyph-name="idieresis" unicode="&#xef;" horiz-adv-x="187" 
d="M168 5l-142 -5l-4 676l149 6zM254 809q0 -29 -21 -48t-49 -19t-49 19t-21 48t21 47.5t49 18.5t49 -18.5t21 -47.5zM68 803q0 -27 -20 -45.5t-46 -18.5t-46 18.5t-20 45.5q0 28 20 46t46 18t46 -18t20 -46z" />
    <glyph glyph-name="eth" unicode="&#xf0;" horiz-adv-x="448" 
d="M0 312v121h58l1 246q27 9 56.5 15.5t58.5 6.5q59 0 107.5 -24.5t83.5 -65.5t54 -93.5t19 -108.5q0 -75 -26.5 -146.5t-74 -127t-114 -89.5t-146.5 -34q-5 0 -11 0.5t-11 1.5l2 298h-57zM243 311h-59l2 -137q32 12 55.5 36t38.5 54.5t22.5 65t7.5 66.5q0 28 -7 59
t-22 55.5t-39.5 38.5t-59.5 10l1 -126h61z" />
    <glyph glyph-name="ntilde" unicode="&#xf1;" horiz-adv-x="443" 
d="M410 -1l-136 -4l-124 392l5 -374l-136 -6l6 685l143 5l126 -395l-4 401l138 4zM390 889q0 -26 -6 -50.5t-19.5 -43.5t-34 -30.5t-50.5 -11.5q-22 0 -37 7.5t-25 18.5t-16.5 24.5t-11.5 24.5t-10.5 18.5t-13.5 7.5q-9 0 -11.5 -9.5t-2.5 -16.5q0 -14 4 -27.5t9 -27.5
l-93 -16q-8 15 -11 32t-3 34q0 27 6.5 50.5t20 41t35 27.5t50.5 10q36 0 53.5 -15.5t27 -34.5t15 -34.5t17.5 -15.5q9 0 11.5 10t2.5 16q0 17 -4.5 33t-9.5 31l98 10q9 -32 9 -63z" />
    <glyph glyph-name="ograve" unicode="&#xf2;" horiz-adv-x="425" 
d="M415 443q0 -33 -5 -79t-16.5 -97t-29.5 -101t-44 -90t-61 -64.5t-80 -24.5q-46 0 -78 29.5t-52.5 72t-29.5 90t-9 83.5q0 33 5.5 79t18 95.5t32 98.5t46.5 87.5t62.5 62.5t79.5 24q48 0 79 -28t49 -69t25.5 -87t7.5 -82zM302 394q0 15 -2.5 37.5t-9.5 43.5t-20 36t-34 15
q-29 0 -48 -23.5t-30.5 -55.5t-16.5 -66t-5 -55q0 -13 2.5 -36t9 -45.5t18.5 -39t31 -16.5q31 0 51 23.5t32 56.5t17 68t5 57zM261 739l-143 185l114 67l108 -210z" />
    <glyph glyph-name="oacute" unicode="&#xf3;" horiz-adv-x="425" 
d="M415 443q0 -33 -5 -79t-16.5 -97t-29.5 -101t-44 -90t-61 -64.5t-80 -24.5q-46 0 -78 29.5t-52.5 72t-29.5 90t-9 83.5q0 33 5.5 79t18 95.5t32 98.5t46.5 87.5t62.5 62.5t79.5 24q48 0 79 -28t49 -69t25.5 -87t7.5 -82zM302 394q0 15 -2.5 37.5t-9.5 43.5t-20 36t-34 15
q-29 0 -48 -23.5t-30.5 -55.5t-16.5 -66t-5 -55q0 -13 2.5 -36t9 -45.5t18.5 -39t31 -16.5q31 0 51 23.5t32 56.5t17 68t5 57zM261 739l-79 42l108 210l114 -67z" />
    <glyph glyph-name="ocircumflex" unicode="&#xf4;" horiz-adv-x="425" 
d="M415 443q0 -33 -5 -79t-16.5 -97t-29.5 -101t-44 -90t-61 -64.5t-80 -24.5q-46 0 -78 29.5t-52.5 72t-29.5 90t-9 83.5q0 33 5.5 79t18 95.5t32 98.5t46.5 87.5t62.5 62.5t79.5 24q48 0 79 -28t49 -69t25.5 -87t7.5 -82zM302 394q0 15 -2.5 37.5t-9.5 43.5t-20 36t-34 15
q-29 0 -48 -23.5t-30.5 -55.5t-16.5 -66t-5 -55q0 -13 2.5 -36t9 -45.5t18.5 -39t31 -16.5q31 0 51 23.5t32 56.5t17 68t5 57zM321 739l-53 122l-74 -109l-85 48l116 167l96 -7l92 -172z" />
    <glyph glyph-name="otilde" unicode="&#xf5;" horiz-adv-x="425" 
d="M415 443q0 -33 -5 -79t-16.5 -97t-29.5 -101t-44 -90t-61 -64.5t-80 -24.5q-46 0 -78 29.5t-52.5 72t-29.5 90t-9 83.5q0 33 5.5 79t18 95.5t32 98.5t46.5 87.5t62.5 62.5t79.5 24q48 0 79 -28t49 -69t25.5 -87t7.5 -82zM302 394q0 15 -2.5 37.5t-9.5 43.5t-20 36t-34 15
q-29 0 -48 -23.5t-30.5 -55.5t-16.5 -66t-5 -55q0 -13 2.5 -36t9 -45.5t18.5 -39t31 -16.5q31 0 51 23.5t32 56.5t17 68t5 57zM427 895q0 -26 -6 -50.5t-19.5 -43.5t-34 -30.5t-50.5 -11.5q-22 0 -37 7.5t-25 18.5t-16.5 24.5t-11.5 24.5t-10.5 18.5t-13.5 7.5
q-9 0 -11.5 -9.5t-2.5 -16.5q0 -14 4 -27.5t9 -27.5l-93 -16q-8 15 -11 32t-3 34q0 27 6.5 50.5t20 41t35 27.5t50.5 10q36 0 53.5 -15.5t27 -34.5t15 -34.5t17.5 -15.5q9 0 11.5 10t2.5 16q0 17 -4.5 33t-9.5 31l98 10q9 -32 9 -63z" />
    <glyph glyph-name="odieresis" unicode="&#xf6;" horiz-adv-x="425" 
d="M415 443q0 -33 -5 -79t-16.5 -97t-29.5 -101t-44 -90t-61 -64.5t-80 -24.5q-46 0 -78 29.5t-52.5 72t-29.5 90t-9 83.5q0 33 5.5 79t18 95.5t32 98.5t46.5 87.5t62.5 62.5t79.5 24q48 0 79 -28t49 -69t25.5 -87t7.5 -82zM302 394q0 15 -2.5 37.5t-9.5 43.5t-20 36t-34 15
q-29 0 -48 -23.5t-30.5 -55.5t-16.5 -66t-5 -55q0 -13 2.5 -36t9 -45.5t18.5 -39t31 -16.5q31 0 51 23.5t32 56.5t17 68t5 57zM420 839q0 -29 -21 -48t-49 -19t-49 19t-21 48t21 47.5t49 18.5t49 -18.5t21 -47.5zM234 833q0 -27 -20 -45.5t-46 -18.5t-46 18.5t-20 45.5
q0 28 20 46t46 18t46 -18t20 -46z" />
    <glyph glyph-name="divide" unicode="&#xf7;" horiz-adv-x="334" 
d="M313 296l-293 6v121l294 -5zM240 192q0 -32 -23.5 -53.5t-54.5 -21.5t-54.5 21.5t-23.5 53.5t23.5 53t54.5 21t54.5 -21t23.5 -53zM250 522q0 -32 -23.5 -53.5t-54.5 -21.5t-54.5 21.5t-23.5 53.5t23.5 53t54.5 21t54.5 -21t23.5 -53z" />
    <glyph glyph-name="oslash" unicode="&#xf8;" horiz-adv-x="425" 
d="M226 525q-26 -4 -43 -28t-27.5 -55.5t-15 -63.5t-4.5 -52q0 -9 1.5 -25t4.5 -33zM186 191q6 -2 11 -2q31 0 51 23.5t32 56.5t17 68t5 57q0 17 -3 42t-12 48zM369 636q13 -21 21.5 -46.5t14 -51t8 -50t2.5 -45.5q0 -33 -5 -79t-16.5 -97t-29.5 -101t-44 -90t-61 -64.5
t-80 -24.5q-15 0 -32 5l-24 -69l-108 50l36 110q-22 44 -31.5 92.5t-9.5 86.5q0 33 5.5 79t18 96t32 99t46.5 87.5t62.5 62.5t79.5 23h3l25 76l122 -49z" />
    <glyph glyph-name="ugrave" unicode="&#xf9;" horiz-adv-x="443" 
d="M433 398q0 -36 -4.5 -78.5t-15 -85.5t-28 -83t-43.5 -70.5t-61.5 -49t-81.5 -18.5q-59 0 -95.5 31t-57.5 77.5t-28.5 100.5t-7.5 99q0 44 6.5 90.5t16.5 93.5t23 92.5t27 87.5l131 -28q-14 -35 -27 -76t-23 -83.5t-16 -85t-6 -79.5q0 -20 1 -46t8 -49t21.5 -39t40.5 -16
q30 0 47 19.5t25.5 47.5t11 59t2.5 53q0 73 -3 144.5t-16 143.5l127 22q17 -67 21.5 -136t4.5 -138zM255 697l-143 185l114 67l108 -210z" />
    <glyph glyph-name="uacute" unicode="&#xfa;" horiz-adv-x="443" 
d="M433 398q0 -36 -4.5 -78.5t-15 -85.5t-28 -83t-43.5 -70.5t-61.5 -49t-81.5 -18.5q-59 0 -95.5 31t-57.5 77.5t-28.5 100.5t-7.5 99q0 44 6.5 90.5t16.5 93.5t23 92.5t27 87.5l131 -28q-14 -35 -27 -76t-23 -83.5t-16 -85t-6 -79.5q0 -20 1 -46t8 -49t21.5 -39t40.5 -16
q30 0 47 19.5t25.5 47.5t11 59t2.5 53q0 73 -3 144.5t-16 143.5l127 22q17 -67 21.5 -136t4.5 -138zM255 697l-79 42l108 210l114 -67z" />
    <glyph glyph-name="ucircumflex" unicode="&#xfb;" horiz-adv-x="443" 
d="M433 398q0 -36 -4.5 -78.5t-15 -85.5t-28 -83t-43.5 -70.5t-61.5 -49t-81.5 -18.5q-59 0 -95.5 31t-57.5 77.5t-28.5 100.5t-7.5 99q0 44 6.5 90.5t16.5 93.5t23 92.5t27 87.5l131 -28q-14 -35 -27 -76t-23 -83.5t-16 -85t-6 -79.5q0 -20 1 -46t8 -49t21.5 -39t40.5 -16
q30 0 47 19.5t25.5 47.5t11 59t2.5 53q0 73 -3 144.5t-16 143.5l127 22q17 -67 21.5 -136t4.5 -138zM315 697l-53 122l-74 -109l-85 48l116 167l96 -7l92 -172z" />
    <glyph glyph-name="udieresis" unicode="&#xfc;" horiz-adv-x="443" 
d="M433 398q0 -36 -4.5 -78.5t-15 -85.5t-28 -83t-43.5 -70.5t-61.5 -49t-81.5 -18.5q-59 0 -95.5 31t-57.5 77.5t-28.5 100.5t-7.5 99q0 44 6.5 90.5t16.5 93.5t23 92.5t27 87.5l131 -28q-14 -35 -27 -76t-23 -83.5t-16 -85t-6 -79.5q0 -20 1 -46t8 -49t21.5 -39t40.5 -16
q30 0 47 19.5t25.5 47.5t11 59t2.5 53q0 73 -3 144.5t-16 143.5l127 22q17 -67 21.5 -136t4.5 -138zM414 797q0 -29 -21 -48t-49 -19t-49 19t-21 48t21 47.5t49 18.5t49 -18.5t21 -47.5zM228 791q0 -27 -20 -45.5t-46 -18.5t-46 18.5t-20 45.5q0 28 20 46t46 18t46 -18
t20 -46z" />
    <glyph glyph-name="yacute" unicode="&#xfd;" horiz-adv-x="370" 
d="M360 583q0 -72 -3 -143.5t-5 -143.5q-1 -61 -6.5 -116.5t-27 -98t-64.5 -67.5t-119 -25q-66 0 -125 22l12 189q19 -35 50 -54t70 -19q29 0 48.5 10.5t31.5 27.5t17 40t7 48l4 80q-12 -42 -48 -71t-81 -29q-34 0 -55.5 19.5t-34 49t-17 63t-4.5 60.5q0 65 3 130.5
t14 129.5l129 -5q-12 -48 -17 -97.5t-5 -99.5q0 -12 0.5 -29.5t5 -34t13.5 -28t26 -11.5q22 0 34.5 22.5t18 52.5t6.5 60t1 45q0 30 -1 59.5t-6 58.5l127 8q0 -26 0.5 -51.5t0.5 -51.5zM192 712l-79 42l108 210l114 -67z" />
    <glyph glyph-name="thorn" unicode="&#xfe;" horiz-adv-x="388" 
d="M378 385q0 -51 -19.5 -92t-52 -72.5t-74 -54t-85.5 -36.5v-116l-129 -9l4 658l123 7v-82q48 0 90.5 -12t74 -36.5t50 -63t18.5 -91.5zM264 374q0 25 -10.5 42t-27.5 27.5t-38 15t-43 4.5l1 -216q21 7 42.5 18.5t38 27.5t27 36t10.5 45z" />
    <glyph glyph-name="ydieresis" unicode="&#xff;" horiz-adv-x="370" 
d="M360 583q0 -72 -3 -143.5t-5 -143.5q-1 -61 -6.5 -116.5t-27 -98t-64.5 -67.5t-119 -25q-66 0 -125 22l12 189q19 -35 50 -54t70 -19q29 0 48.5 10.5t31.5 27.5t17 40t7 48l4 80q-12 -42 -48 -71t-81 -29q-34 0 -55.5 19.5t-34 49t-17 63t-4.5 60.5q0 65 3 130.5
t14 129.5l129 -5q-12 -48 -17 -97.5t-5 -99.5q0 -12 0.5 -29.5t5 -34t13.5 -28t26 -11.5q22 0 34.5 22.5t18 52.5t6.5 60t1 45q0 30 -1 59.5t-6 58.5l127 8q0 -26 0.5 -51.5t0.5 -51.5zM351 812q0 -29 -21 -48t-49 -19t-49 19t-21 48t21 47.5t49 18.5t49 -18.5t21 -47.5z
M165 806q0 -27 -20 -45.5t-46 -18.5t-46 18.5t-20 45.5q0 28 20 46t46 18t46 -18t20 -46z" />
    <glyph glyph-name="OE" unicode="&#x152;" horiz-adv-x="655" 
d="M282 460q0 10 -1 27t-5 34t-12.5 29.5t-22.5 12.5q-20 0 -36 -16t-27.5 -41.5t-19.5 -57t-13.5 -62t-7.5 -56.5t-2 -41q0 -11 0.5 -31.5t4.5 -40.5t12.5 -35t25.5 -15q21 0 36.5 17.5t27 45t19.5 61.5t12.5 66.5t6.5 60t2 42.5zM645 299q0 -19 -3 -35l-243 -9v-12
q0 -20 3.5 -38t12.5 -32.5t23.5 -23t36.5 -8.5q31 0 60 11.5t50 34.5l21 -157q-32 -27 -73.5 -41t-83.5 -14q-51 0 -83.5 33.5t-52.5 81.5q-26 -50 -61 -81t-81 -31q-31 0 -55 16t-41.5 42t-30 59t-20 67t-11 65.5t-3.5 54.5q0 33 7 78.5t21.5 94t36 96t50 85t63.5 60.5
t77 23q37 0 61.5 -18.5t39.5 -47.5q23 31 52.5 49t67.5 18q48 0 78 -31t47 -75t23.5 -92.5t7.5 -84.5q1 -35 2 -69t1 -69zM517 400v41.5t-3.5 60t-12 53.5t-25.5 23q-23 0 -37 -28.5t-22 -66t-11.5 -74.5t-5.5 -55l116 11q1 8 1 17v18z" />
    <glyph glyph-name="oe" unicode="&#x153;" horiz-adv-x="703" 
d="M302 394q0 15 -2.5 37.5t-9.5 43.5t-20 36t-34 15q-29 0 -48 -23t-30.5 -55t-16.5 -66t-5 -56q0 -14 2.5 -37t9 -45t18.5 -38.5t31 -16.5q31 0 51 23.5t32 56t17 67.5t5 58zM693 347v-25.5t-2 -25.5l-256 -27q0 -20 1.5 -42.5t9 -41t22 -30.5t41.5 -12q39 0 74 17.5
t64 43.5l17 -187q-31 -20 -66.5 -30t-73.5 -10q-66 0 -115.5 28t-78.5 88q-12 -21 -27.5 -40t-34 -34t-41 -23.5t-48.5 -8.5q-46 0 -78 29t-52.5 71.5t-29.5 90t-9 84.5q0 34 6 80t18.5 96t31.5 98.5t46.5 87t62.5 62t79 23.5q43 0 72.5 -23t48.5 -60q12 21 27.5 39.5
t34 32.5t40 22.5t47.5 8.5q37 0 64 -21t45.5 -54.5t30.5 -76t18.5 -85t8.5 -81t2 -64.5zM563 393q0 13 -1 43.5t-6 61t-15.5 54t-30.5 23.5q-12 0 -21.5 -12.5t-16.5 -32t-12 -43.5t-8.5 -46.5t-5.5 -41t-3 -27.5l120 15v6z" />
    <glyph glyph-name="Scaron" unicode="&#x160;" horiz-adv-x="391" 
d="M372 207q0 -46 -15.5 -88t-43.5 -73.5t-65.5 -50.5t-81.5 -19q-24 0 -44 6.5t-38.5 16.5t-36.5 22.5t-37 25.5l42 153q11 -12 25 -25.5t29.5 -25t32 -19.5t32.5 -8q12 0 24 4.5t21.5 13t16 20.5t6.5 27q0 33 -16.5 56.5t-41.5 42.5t-54.5 38t-54.5 43t-41.5 57.5
t-16.5 81.5q0 50 15 88.5t42.5 65t65.5 40t83 13.5q25 0 46 -8t40.5 -21t37.5 -29t37 -32l-82 -125q-19 23 -43 40.5t-53 17.5q-48 0 -48 -55q0 -26 16 -44t40 -34t52.5 -33.5t52.5 -41.5t40 -58t16 -83zM259 743l-96 7l-92 172l92 49l53 -122l74 109l85 -47z" />
    <glyph glyph-name="scaron" unicode="&#x161;" horiz-adv-x="378" 
d="M290 500q-6 9 -17 20.5t-24 22.5t-26.5 18.5t-24.5 7.5q-18 0 -30 -12.5t-12 -29.5q0 -26 15.5 -50.5t39 -49.5t50.5 -51.5t50.5 -56.5t39 -63.5t15.5 -72.5q0 -42 -15.5 -78.5t-42.5 -64t-63.5 -43t-78.5 -15.5q-31 0 -56 9t-47 23t-42 32.5t-41 38.5l79 113
q10 -13 23.5 -27t29 -26t32.5 -19.5t35 -7.5q26 0 41 15t15 41q0 24 -16.5 49t-41 51.5t-53 56t-53 62.5t-41 70.5t-16.5 81.5q0 40 13 72.5t36.5 56t56 36t72.5 12.5q33 0 59 -10t48 -27t41 -39t38 -45zM240 752l-96 7l-92 172l92 49l53 -122l74 109l85 -47z" />
    <glyph glyph-name="Ydieresis" unicode="&#x178;" horiz-adv-x="379" 
d="M369 692q-2 -102 -4.5 -203t-6.5 -204q-2 -60 -8.5 -112.5t-28.5 -91.5t-64 -61.5t-114 -22.5q-37 0 -73 6t-70 20l8 174q29 -26 66.5 -45t77.5 -19h4q50 10 69 43.5t23 80.5q1 12 1.5 20t1.5 15.5t1.5 15.5t0.5 20q-5 -19 -20.5 -34t-35.5 -25t-42 -15.5t-41 -5.5
q-32 0 -51 18t-29 44.5t-13 57t-3 54.5q0 64 7 127t20 126l133 8q-17 -57 -26.5 -117.5t-9.5 -120.5q0 -8 0.5 -18t3.5 -20t9 -16.5t17 -6.5q26 0 40.5 22t21 52t8 60.5t1.5 48.5q0 29 -1 57.5t-3 57.5zM369 817q0 -29 -21 -48t-49 -19t-49 19t-21 48t21 47.5t49 18.5
t49 -18.5t21 -47.5zM183 811q0 -27 -20 -45.5t-46 -18.5t-46 18.5t-20 45.5q0 28 20 46t46 18t46 -18t20 -46z" />
    <glyph glyph-name="Zcaron" unicode="&#x17d;" horiz-adv-x="349" 
d="M334 559q-53 -103 -97.5 -207t-86.5 -212q12 -1 24 -1h24q34 0 65 1.5t66 3.5l-3 -130q-66 -4 -131.5 -6t-131.5 -2l-49 1l2 130q45 106 89 209.5t98 205.5h-8q-45 1 -83.5 -1t-82.5 -6l-1 144q40 2 80 3t80 1q73 0 145 -3zM232 723l-96 7l-92 172l92 49l53 -122l74 109
l85 -47z" />
    <glyph glyph-name="zcaron" unicode="&#x17e;" horiz-adv-x="361" 
d="M349 545q-11 -26 -24.5 -57.5t-28 -65.5t-29.5 -68t-29 -66q-33 -75 -69 -152l169 2l-4 -142l-319 -2l3 137q14 25 30 56t32.5 64.5t32.5 68.5t30 68q33 77 67 158q-33 -1 -65 -2q-27 -1 -58 -1.5t-54 -2.5l-1 145q69 4 138.5 6t139.5 2h41zM239 723l-96 7l-92 172l92 49
l53 -122l74 109l85 -47z" />
    <glyph glyph-name="florin" unicode="&#x192;" horiz-adv-x="352" 
d="M310 594q-15 10 -31 10q-13 0 -20 -6t-10.5 -15t-4 -19.5t-0.5 -20.5q0 -29 0.5 -60.5t2.5 -57.5q2 -31 4 -60l76 2l1 -119h-74q1 -39 2 -73q1 -29 2 -59.5t1 -46.5q0 -32 -7.5 -61.5t-24 -52.5t-41.5 -37t-60 -14t-66.5 12t-59.5 31l48 116q8 -9 19.5 -15t24.5 -6
q16 0 26 6.5t15.5 17t7.5 23.5t2 26q0 10 -0.5 32t-1.5 45q-1 26 -2 56l-94 -1l7 113l82 2q-3 39 -5 79q-2 34 -3.5 73.5t-1.5 74.5q0 63 32 103.5t100 40.5q53 0 96 -32z" />
    <glyph glyph-name="circumflex" unicode="&#x2c6;" 
d="M260 479l-53 122l-74 -109l-85 48l116 167l96 -7l92 -172z" />
    <glyph glyph-name="tilde" unicode="&#x2dc;" 
d="M366 635q0 -26 -6 -50.5t-19.5 -43.5t-34 -30.5t-50.5 -11.5q-22 0 -37 7.5t-25 18.5t-16.5 24.5t-11.5 24.5t-10.5 18.5t-13.5 7.5q-9 0 -11.5 -9.5t-2.5 -16.5q0 -14 4 -27.5t9 -27.5l-93 -16q-8 15 -11 32t-3 34q0 27 6.5 50.5t20 41t35 27.5t50.5 10q36 0 53.5 -15.5
t27 -34.5t15 -34.5t17.5 -15.5q9 0 11.5 10t2.5 16q0 17 -4.5 33t-9.5 31l98 10q9 -32 9 -63z" />
    <glyph glyph-name="endash" unicode="&#x2013;" horiz-adv-x="500" 
d="M499 296l-499 6v121l500 -5z" />
    <glyph glyph-name="emdash" unicode="&#x2014;" horiz-adv-x="1000" 
d="M999 296l-999 6v121l1000 -5z" />
    <glyph glyph-name="quoteleft" unicode="&#x2018;" horiz-adv-x="187" 
d="M161 518q-5 -25 -24.5 -41.5t-45.5 -16.5q-31 0 -51 23t-20 53q0 15 5 27.5t14 24.5l84 109l64 -33z" />
    <glyph glyph-name="quoteright" unicode="&#x2019;" horiz-adv-x="187" 
d="M167 621q0 -16 -5 -28t-14 -24l-84 -109l-64 32l26 147q5 25 24.5 41.5t45.5 16.5q15 0 28 -6.5t22.5 -17t15 -24t5.5 -28.5z" />
    <glyph glyph-name="quotesinglbase" unicode="&#x201a;" horiz-adv-x="187" 
d="M167 71q0 -16 -5 -28t-14 -24l-84 -109l-64 32l26 147q5 25 24.5 41.5t45.5 16.5q15 0 28 -6.5t22.5 -17t15 -24t5.5 -28.5z" />
    <glyph glyph-name="quotedblleft" unicode="&#x201c;" horiz-adv-x="362" 
d="M336 518q-5 -25 -24.5 -41.5t-45.5 -16.5q-31 0 -51 23t-20 53q0 15 5 27.5t14 24.5l84 109l64 -33zM161 518q-5 -25 -24.5 -41.5t-45.5 -16.5q-31 0 -51 23t-20 53q0 15 5 27.5t14 24.5l84 109l64 -33z" />
    <glyph glyph-name="quotedblright" unicode="&#x201d;" horiz-adv-x="362" 
d="M167 621q0 -16 -5 -28t-14 -24l-84 -109l-64 32l26 147q5 25 24.5 41.5t45.5 16.5q15 0 28 -6.5t22.5 -17t15 -24t5.5 -28.5zM342 621q0 -16 -5 -28t-14 -24l-84 -109l-64 32l26 147q5 25 24.5 41.5t45.5 16.5q15 0 28 -6.5t22.5 -17t15 -24t5.5 -28.5z" />
    <glyph glyph-name="quotedblbase" unicode="&#x201e;" horiz-adv-x="362" 
d="M167 71q0 -16 -5 -28t-14 -24l-84 -109l-64 32l26 147q5 25 24.5 41.5t45.5 16.5q15 0 28 -6.5t22.5 -17t15 -24t5.5 -28.5zM342 71q0 -16 -5 -28t-14 -24l-84 -109l-64 32l26 147q5 25 24.5 41.5t45.5 16.5q15 0 28 -6.5t22.5 -17t15 -24t5.5 -28.5z" />
    <glyph glyph-name="dagger" unicode="&#x2020;" horiz-adv-x="408" 
d="M274 468l-9 -511l-147 -3l15 512l-123 -2l1 130l125 2l4 139l138 2l-2 -140l122 2v-129z" />
    <glyph glyph-name="daggerdbl" unicode="&#x2021;" horiz-adv-x="408" 
d="M274 468l-3 -179l120 2l-2 -139h-120l-4 -195l-147 -3l6 199h-100v134l104 1l5 178l-123 -2l1 130l125 2l4 139l138 2l-2 -140l122 2v-129z" />
    <glyph glyph-name="bullet" unicode="&#x2022;" horiz-adv-x="249" 
d="M229 364q0 -22 -8 -42t-21.5 -35.5t-33 -24.5t-41.5 -9q-23 0 -42 9t-33 24.5t-22 35.5t-8 42t8 42t22 35t33 24t42 9q22 0 41.5 -9t33 -24t21.5 -35t8 -42z" />
    <glyph glyph-name="ellipsis" unicode="&#x2026;" horiz-adv-x="596" 
d="M176 72q0 -32 -23.5 -53t-54.5 -21t-54.5 21t-23.5 53t23.5 53.5t54.5 21.5t54.5 -21.5t23.5 -53.5zM376 72q0 -32 -23.5 -53t-54.5 -21t-54.5 21t-23.5 53t23.5 53.5t54.5 21.5t54.5 -21.5t23.5 -53.5zM576 72q0 -32 -23.5 -53t-54.5 -21t-54.5 21t-23.5 53t23.5 53.5
t54.5 21.5t54.5 -21.5t23.5 -53.5z" />
    <glyph glyph-name="perthousand" unicode="&#x2030;" horiz-adv-x="907" 
d="M111 257q-29 0 -48.5 21t-31 50t-16.5 60t-5 51q0 30 8 74.5t25.5 86.5t46 72t69.5 30q34 0 56 -20.5t34.5 -50.5t17.5 -63t5 -57q0 -35 -7.5 -79t-26 -83t-49.5 -65.5t-78 -26.5zM153 603q-17 0 -28 -17.5t-18 -40.5t-9.5 -47t-2.5 -36q0 -10 1.5 -24.5t5.5 -28
t12 -23.5t21 -10q17 0 27.5 15t16 35t7.5 41.5t2 33.5q0 9 -0.5 26.5t-3.5 34t-10.5 29t-20.5 12.5zM250 1l-85 30l248 672l93 -29zM469 -10q-27 0 -44 19t-27 45t-13.5 54t-3.5 46q0 20 2.5 48t9 58.5t17 60.5t26.5 54t37.5 39t50.5 15q30 0 48.5 -20t28.5 -47.5
t13.5 -57.5t3.5 -50q0 -19 -3.5 -46t-11 -56.5t-19.5 -58.5t-28.5 -52t-38 -37t-48.5 -14zM517 329q-20 0 -32 -20t-18 -46.5t-8 -53.5t-2 -42q0 -8 0.5 -19.5t3 -21.5t8.5 -17t17 -7q15 0 26.5 17.5t19 41.5t11.5 49t4 40q0 8 -0.5 21.5t-3.5 26t-9 22t-17 9.5zM736 -18
q-29 0 -48.5 21t-31 50t-16.5 60t-5 51q0 30 8 74.5t25.5 86.5t46 72t69.5 30q34 0 56 -20.5t34.5 -50.5t17.5 -63t5 -57q0 -35 -7.5 -79t-26 -83t-49.5 -65.5t-78 -26.5zM778 328q-17 0 -28 -17.5t-18 -40.5t-9.5 -47t-2.5 -36q0 -10 1.5 -24.5t5.5 -28t12 -23.5t21 -10
q17 0 27.5 15t16 35t7.5 41.5t2 33.5q0 9 -0.5 26.5t-3.5 34t-10.5 29t-20.5 12.5z" />
    <glyph glyph-name="guilsinglleft" unicode="&#x2039;" horiz-adv-x="264" 
d="M222 147l-222 195l203 215l40 -110l-104 -93l115 -92z" />
    <glyph glyph-name="guilsinglright" unicode="&#x203a;" horiz-adv-x="264" 
d="M60 147l-39 110l103 93l-114 92l32 115l222 -195z" />
    <glyph glyph-name="Euro" unicode="&#x20ac;" horiz-adv-x="469" 
d="M459 301q-7 -41 -25 -74.5t-45 -58t-62 -38t-77 -13.5q-29 0 -51.5 10.5t-40 28.5t-29.5 41.5t-19 48.5l-100 -23l32 101l56 6q-2 15 0 30l-66 -5l31 95l51 -4q9 30 23.5 61t36.5 56.5t50 42t64 16.5q34 0 61.5 -14.5t47.5 -38t33 -53t19 -60.5l-115 -35q0 10 -3 21.5
t-8.5 21t-14.5 15.5t-21 6q-20 0 -33 -15.5t-21 -32.5l47 -3l-15 -61l-48 -4q-1 -7 -1.5 -13t-0.5 -13l57 6l-10 -68l-35 -8q5 -11 15.5 -21t24.5 -10q13 0 23 9.5t18 22.5t13 27t7 23z" />
    <glyph glyph-name="trademark" unicode="&#x2122;" horiz-adv-x="243" 
d="M68 643q1 -29 1.5 -59.5t2.5 -59.5h-30q2 24 2.5 50t0.5 50v20l-24 1l-1 30h23h24.5t24.5 1l1 -34zM221 523l-29 -1l1 103l-17 -98h-22l-14 97l-1 -100h-31l2 151l45 -2l10 -77l17 81l41 1z" />
    </font>
</defs>
</svg>
